<?xml version="1.0" encoding="UTF-8"?>
<!--
  - Copyright (c) Huawei Device Co., Ltd. 2024-2025. All rights reserved.
  - Licensed under the Apache License, Version 2.0 (the "License");
  - you may not use this file except in compliance with the License.
  - You may obtain a copy of the License at
  -
  -     http://www.apache.org/licenses/LICENSE-2.0
  -
  - Unless required by applicable law or agreed to in writing, software
  - distributed under the License is distributed on an "AS IS" BASIS,
  - WITHOUT WARRANTIES OR CONDITIONS OF ANY KIND, either express or implied.
  - See the License for the specific language governing permissions and
  - limitations under the License.
  -->

<svg width="24px"
     height="24px"
     viewBox="0 0 24 24"
     version="1.1"
     xmlns="http://www.w3.org/2000/svg"
     xmlns:xlink="http://www.w3.org/1999/xlink">
    <title>dual_view</title>
    <g
        id="dual_view"
        stroke="#000000"
        stroke-opacity="0.3"
        stroke-width="0.3"
        fill="none"
        fill-rule="evenodd">
        <path
            d="M17.625,5.5 C21.1458153,5.5 24,8.35418472 24,11.875 C24,15.3958153 21.1458153,18.25 17.625,18.25 C14.1393929,18.25 11.3071504,15.4526136 11.2508541,11.9804223 L11.249261,11.7892478 C11.2035038,9.13642031 9.03874573,7 6.375,7 C3.68261184,7 1.5,9.18261184 1.5,11.875 C1.5,14.5673882 3.68261184,16.75 6.375,16.75 C7.51038538,16.75 8.58422534,16.361587 9.44678285,15.6607031 C9.76824958,15.3994905 10.2406045,15.4483362 10.5018171,15.7698029 C10.7630297,16.0912696 10.714184,16.5636245 10.3927173,16.8248371 C9.2651553,17.7410544 7.85808042,18.25 6.375,18.25 C2.85418472,18.25 0,15.3958153 0,11.875 C0,8.35418472 2.85418472,5.5 6.375,5.5 C9.86052453,5.5 12.6927154,8.29725387 12.7491419,11.7693309 L12.75,11.875 C12.75,14.5673882 14.9326118,16.75 17.625,16.75 C20.3173882,16.75 22.5,14.5673882 22.5,11.875 C22.5,9.18261184 20.3173882,7 17.625,7 C16.4896146,7 15.4157747,7.38841297 14.5532172,8.08929691 C14.2317504,8.35050949 13.7593955,8.30166384 13.4981829,7.98019711 C13.2369703,7.65873037 13.285816,7.18637546 13.6072827,6.92516287 C14.7348447,6.00894561 16.1419196,5.5 17.625,5.5 Z M17.6324211,9.25 C19.0827789,9.25 20.2585263,10.4252525 20.2585263,11.875 C20.2585263,13.3247475 19.0827789,14.5 17.6324211,14.5 C16.1820632,14.5 15.0063158,13.3247475 15.0063158,11.875 C15.0063158,10.4252525 16.1820632,9.25 17.6324211,9.25 Z M6.37768421,9.75 C7.55178345,9.75 8.50357895,10.7013949 8.50357895,11.875 C8.50357895,13.0486051 7.55178345,14 6.37768421,14 C5.20358497,14 4.25178947,13.0486051 4.25178947,11.875 C4.25178947,10.7013949 5.20358497,9.75 6.37768421,9.75 Z M17.6324211,10.75 C17.0108391,10.75 16.5069474,11.2536797 16.5069474,11.875 C16.5069474,12.4963203 17.0108391,13 17.6324211,13 C18.254003,13 18.7578947,12.4963203 18.7578947,11.875 C18.7578947,11.2536797 18.254003,10.75 17.6324211,10.75 Z"
            id="形状备份-26"
            fill="#fff"
            fill-rule="nonzero"></path>
    </g>
</svg>