<?xml version="1.0" encoding="UTF-8"?>
<!--
  - Copyright (c) Huawei Device Co., Ltd. 2024-2025. All rights reserved.
  - Licensed under the Apache License, Version 2.0 (the "License");
  - you may not use this file except in compliance with the License.
  - You may obtain a copy of the License at
  -
  -     http://www.apache.org/licenses/LICENSE-2.0
  -
  - Unless required by applicable law or agreed to in writing, software
  - distributed under the License is distributed on an "AS IS" BASIS,
  - WITHOUT WARRANTIES OR CONDITIONS OF ANY KIND, either express or implied.
  - See the License for the specific language governing permissions and
  - limitations under the License.
  -->

<svg width="86px" height="86px" viewBox="0 0 86 86" version="1.1" xmlns="http://www.w3.org/2000/svg" xmlns:xlink="http://www.w3.org/1999/xlink">
    <title>形状结合</title>
    <defs>
        <path d="M104,39.75 C104,40.1642136 103.664214,40.5 103.25,40.5 C102.870304,40.5 102.556509,40.2178461 102.506847,39.8517706 L102.5,39.75 L102.5,25.5 C102.5,23.6314366 101.035722,22.1048736 99.1920352,22.0051789 L99,22 L84.75,22 L84.6482294,21.9931534 C84.2821539,21.943491 84,21.6296958 84,21.25 C84,20.8703042 84.2821539,20.556509 84.6482294,20.5068466 L84.75,20.5 L99,20.5 C101.761424,20.5 104,22.7385763 104,25.5 L104,39.75 Z M24,39.75 C24,40.1642136 24.3357864,40.5 24.75,40.5 C25.1296958,40.5 25.443491,40.2178461 25.4931534,39.8517706 L25.5,39.75 L25.5,25.5 C25.5,23.6314366 26.9642776,22.1048736 28.8079648,22.0051789 L29,22 L43.25,22 L43.3517706,21.9931534 C43.7178461,21.943491 44,21.6296958 44,21.25 C44,20.8703042 43.7178461,20.556509 43.3517706,20.5068466 L43.25,20.5 L29,20.5 C26.2385763,20.5 24,22.7385763 24,25.5 L24,39.75 Z M84.75,100.5 C84.3357864,100.5 84,100.164214 84,99.75 C84,99.3703042 84.2821539,99.056509 84.6482294,99.0068466 L84.75,99 L99,99 C100.868563,99 102.395126,97.5357224 102.494821,95.6920352 L102.5,95.5 L102.5,81.25 L102.506847,81.1482294 C102.556509,80.7821539 102.870304,80.5 103.25,80.5 C103.629696,80.5 103.943491,80.7821539 103.993153,81.1482294 L104,81.25 L104,95.5 C104,98.2614237 101.761424,100.5 99,100.5 L84.75,100.5 Z M43.25,100.5 C43.6642136,100.5 44,100.164214 44,99.75 C44,99.3703042 43.7178461,99.056509 43.3517706,99.0068466 L43.25,99 L29,99 C27.1314366,99 25.6048736,97.5357224 25.5051789,95.6920352 L25.5,95.5 L25.5,81.25 L25.4931534,81.1482294 C25.443491,80.7821539 25.1296958,80.5 24.75,80.5 C24.3703042,80.5 24.056509,80.7821539 24.0068466,81.1482294 L24,81.25 L24,95.5 C24,98.2614237 26.2385763,100.5 29,100.5 L43.25,100.5 Z" id="path-1"></path>
        <filter x="-5.6%" y="-5.6%" width="111.2%" height="111.2%" filterUnits="objectBoundingBox" id="filter-2">
            <feOffset dx="0" dy="0" in="SourceAlpha" result="shadowOffsetOuter1"></feOffset>
            <feGaussianBlur stdDeviation="1.5" in="shadowOffsetOuter1" result="shadowBlurOuter1"></feGaussianBlur>
            <feColorMatrix values="0 0 0 0 0   0 0 0 0 0   0 0 0 0 0  0 0 0 0.2 0" type="matrix" in="shadowBlurOuter1"></feColorMatrix>
        </filter>
    </defs>
    <g id="页面-1" stroke="none" stroke-width="1" fill="none" fill-rule="evenodd">
        <g id="拍照常态备份-6" transform="translate(-117, -269)" fill-rule="nonzero">
            <g id="形状结合" transform="translate(96, 251.5)">
                <use fill="black" fill-opacity="1" filter="url(#filter-2)" xlink:href="#path-1"></use>
                <use fill="#FFFFFF" xlink:href="#path-1"></use>
            </g>
        </g>
    </g>
</svg>