<?xml version="1.0" encoding="UTF-8"?>
<!--
  - Copyright (c) Huawei Device Co., Ltd. 2024-2025. All rights reserved.
  - Licensed under the Apache License, Version 2.0 (the "License");
  - you may not use this file except in compliance with the License.
  - You may obtain a copy of the License at
  -
  -     http://www.apache.org/licenses/LICENSE-2.0
  -
  - Unless required by applicable law or agreed to in writing, software
  - distributed under the License is distributed on an "AS IS" BASIS,
  - WITHOUT WARRANTIES OR CONDITIONS OF ANY KIND, either express or implied.
  - See the License for the specific language governing permissions and
  - limitations under the License.
  -->

<svg width="24px"
     height="24px"
     viewBox="0 0 24 24"
     version="1.1"
     xmlns="http://www.w3.org/2000/svg"
     xmlns:xlink="http://www.w3.org/1999/xlink">
    <title>high_pixel</title>
    <g
        id="high_pixel"
        stroke="#000000"
        stroke-opacity="0.3"
        stroke-width="0.3"
        fill="none"
        fill-rule="evenodd">
        <path
            d="M12.0050526,1 C18.0827428,1 23.0096842,5.92486775 23.0096842,12 C23.0096842,14.7239853 22.0191364,17.2167132 20.3784498,19.1379177 L20.3027639,19.2256102 L22.7883327,21.710412 C23.083468,22.0054231 23.083468,22.4837306 22.7883327,22.7787417 C22.4931974,23.0737528 22.0146886,23.0737528 21.7195533,22.7787417 L19.2337052,20.294219 L19.2521639,20.2780957 C17.3162451,21.972858 14.7806503,23 12.0050526,23 C5.92736243,23 1.00042105,18.0751322 1.00042105,12 C1.00042105,5.92486775 5.92736243,1 12.0050526,1 Z M12.0050526,2.5 C6.75613837,2.5 2.50105263,6.75329488 2.50105263,12 C2.50105263,17.2467051 6.75613837,21.5 12.0050526,21.5 C17.2539669,21.5 21.5090526,17.2467051 21.5090526,12 C21.5090526,6.75329488 17.2539669,2.5 12.0050526,2.5 Z M10.5044211,13.5 L10.5044211,16.5 L7.50315789,16.5 L7.50315789,13.5 L10.5044211,13.5 Z M16.5069474,13.5 L16.5069474,16.5 L13.5056842,16.5 L13.5056842,13.5 L16.5069474,13.5 Z M13.5056842,10.5 L13.5056842,13.5 L10.5044211,13.5 L10.5044211,10.5 L13.5056842,10.5 Z M10.5044211,7.5 L10.5044211,10.5 L7.50315789,10.5 L7.50315789,7.5 L10.5044211,7.5 Z M16.5069474,7.5 L16.5069474,10.5 L13.5056842,10.5 L13.5056842,7.5 L16.5069474,7.5 Z"
            id="形状备份-27"
            fill="#fff"></path>
    </g>
</svg>