<svg width="24.000000" height="24.000000" viewBox="0 0 24 24" fill="none" xmlns="http://www.w3.org/2000/svg" xmlns:xlink="http://www.w3.org/1999/xlink">
	<desc>
		Created with Pixso.
	</desc>
	<defs>
		<filter id="filter_477_374_dd" x="-2.000000" y="-1.500000" width="28.000000" height="27.000000" filterUnits="userSpaceOnUse" color-interpolation-filters="sRGB">
			<feFlood flood-opacity="0" result="BackgroundImageFix"/>
			<feColorMatrix in="SourceAlpha" type="matrix" values="0 0 0 0 0 0 0 0 0 0 0 0 0 0 0 0 0 0 127 0" result="hardAlpha"/>
			<feOffset dx="0" dy="0"/>
			<feGaussianBlur stdDeviation="1"/>
			<feComposite in2="hardAlpha" operator="out" k2="-1" k3="1"/>
			<feColorMatrix type="matrix" values="0 0 0 0 0 0 0 0 0 0 0 0 0 0 0 0 0 0 0.2 0"/>
			<feBlend mode="normal" in2="BackgroundImageFix" result="effect_dropShadow_1"/>
			<feBlend mode="normal" in="SourceGraphic" in2="effect_dropShadow_1" result="shape"/>
		</filter>
		<clipPath id="clip477_376">
			<rect id="曝光过度" width="24.000000" height="24.000000" fill="white" fill-opacity="0"/>
		</clipPath>
	</defs>
	<rect id="曝光过度" width="24.000000" height="24.000000" fill="#8A8A8A" fill-opacity="0"/>
	<g clip-path="url(#clip477_376)">
		<g filter="url(#filter_477_374_dd)">
			<path id="形状" d="M12 20C12.4238 20 12.7675 20.3358 12.7675 20.75L12.7675 21.75C12.7675 22.1642 12.4238 22.5 12 22.5C11.5762 22.5 11.2325 22.1642 11.2325 21.75L11.2325 20.75C11.2325 20.3358 11.5762 20 12 20ZM18.8738 17.6569L19.7782 18.5407C19.928 18.6872 20.0029 18.8791 20.0029 19.0711C20.0029 19.263 19.928 19.455 19.7782 19.6014C19.4785 19.8943 18.9926 19.8943 18.6929 19.6014L17.7885 18.7175C17.6385 18.5711 17.5636 18.3791 17.5636 18.1872C17.5636 17.9952 17.6385 17.8033 17.7885 17.6569C18.0881 17.364 18.574 17.364 18.8738 17.6569ZM6.21155 17.6569C6.36145 17.8033 6.4364 17.9952 6.4364 18.1872C6.4364 18.3791 6.36145 18.5711 6.21155 18.7175L5.30713 19.6014C5.00745 19.8943 4.52148 19.8943 4.2218 19.6014C4.07202 19.455 3.99707 19.263 3.99707 19.0711C3.99707 18.8791 4.07202 18.6872 4.2218 18.5407L5.12622 17.6569C5.42603 17.364 5.91187 17.364 6.21155 17.6569ZM12 5C15.9559 5 19.1628 8.134 19.1628 12C19.1628 15.866 15.9559 19 12 19C8.04407 19 4.83716 15.866 4.83716 12C4.83716 8.134 8.04407 5 12 5ZM12 6.5C15.1082 6.5 17.6279 8.96243 17.6279 12C17.6279 15.0376 15.1082 17.5 12 17.5C8.89185 17.5 6.37207 15.0376 6.37207 12C6.37207 8.96243 8.89185 6.5 12 6.5ZM12 9C12.4142 9 12.75 9.33578 12.75 9.75L12.75 11.25L14.25 11.25C14.6642 11.25 15 11.5858 15 12C15 12.4142 14.6642 12.75 14.25 12.75L12.75 12.75L12.75 14.25C12.75 14.6642 12.4142 15 12 15C11.5858 15 11.25 14.6642 11.25 14.25L11.25 12.75L9.75 12.75C9.33582 12.75 9 12.4142 9 12C9 11.5858 9.33582 11.25 9.75 11.25L11.25 11.25L11.25 9.75C11.25 9.33578 11.5858 9 12 9ZM3.04651 11.25C3.47034 11.25 3.81396 11.5858 3.81396 12C3.81396 12.4142 3.47034 12.75 3.04651 12.75L1.76746 12.75C1.34363 12.75 1 12.4142 1 12C1 11.5858 1.34363 11.25 1.76746 11.25L3.04651 11.25ZM22.2325 11.25C22.6564 11.25 23 11.5858 23 12C23 12.4142 22.6564 12.75 22.2325 12.75L20.9535 12.75C20.5297 12.75 20.186 12.4142 20.186 12C20.186 11.5858 20.5297 11.25 20.9535 11.25L22.2325 11.25ZM5.30713 4.39859L6.21155 5.28247C6.36145 5.42892 6.4364 5.62088 6.4364 5.81281C6.4364 6.00476 6.36145 6.19669 6.21155 6.34314C5.91187 6.63605 5.42603 6.63605 5.12622 6.34314L4.2218 5.45926C4.07202 5.31281 3.99707 5.12088 3.99707 4.92892C3.99707 4.737 4.07202 4.54504 4.2218 4.39859C4.52148 4.10571 5.00745 4.10571 5.30713 4.39859ZM19.7782 4.39859C19.928 4.54504 20.0029 4.737 20.0029 4.92892C20.0029 5.12088 19.928 5.31281 19.7782 5.45926L18.8738 6.34314C18.574 6.63605 18.0881 6.63605 17.7885 6.34314C17.6385 6.19669 17.5636 6.00476 17.5636 5.81281C17.5636 5.62088 17.6385 5.42892 17.7885 5.28247L18.6929 4.39859C18.9926 4.10571 19.4785 4.10571 19.7782 4.39859ZM12 1.5C12.4238 1.5 12.7675 1.83578 12.7675 2.25L12.7675 3.25C12.7675 3.66422 12.4238 4 12 4C11.5762 4 11.2325 3.66422 11.2325 3.25L11.2325 2.25C11.2325 1.83578 11.5762 1.5 12 1.5Z" clip-rule="evenodd" fill="#FFFFFF" fill-opacity="1.000000" fill-rule="evenodd"/>
		</g>
	</g>
</svg>
