<?xml version="1.0" encoding="UTF-8"?>
<svg width="168px" height="168px" viewBox="0 0 168 168" version="1.1" xmlns="http://www.w3.org/2000/svg" xmlns:xlink="http://www.w3.org/1999/xlink">
    <title>画板</title>
    <g id="画板" stroke="none" stroke-width="1" fill="none" fill-rule="evenodd">
        <g id="frame_selected_mirror_round_tip备份-2" fill="#5291FF" fill-rule="nonzero">
            <path d="M160,0 C164.418278,0 168,3.581722 168,8 L168,160 C168,164.418278 164.418278,168 160,168 L8,168 C3.581722,168 0,164.418278 0,160 L0,8 C0,3.581722 3.581722,0 8,0 L160,0 Z M160,2.50746268 L8,2.50746268 C4.9665554,2.50746268 2.50746269,4.9665554 2.50746269,8 L2.50746269,160 C2.50746269,163.033444 4.9665554,165.492537 8,165.492537 L160,165.492537 C163.033445,165.492537 165.492537,163.033444 165.492537,160 L165.492537,8 C165.492537,4.9665554 163.033445,2.50746268 160,2.50746268 Z"></path>
        </g>
    </g>
</svg>