<?xml version="1.0" encoding="UTF-8"?>
<svg width="24px"
     height="24px"
     viewBox="0 0 24 24"
     version="1.1"
     xmlns="http://www.w3.org/2000/svg"
     xmlns:xlink="http://www.w3.org/1999/xlink">
    <title>流光快门备份</title>
    <g
        id="流光快门备份"
        stroke="#000000"
        stroke-opacity="0.3"
        stroke-width="0.3"
        fill="none"
        fill-rule="evenodd">
        <path
            d="M14.798096,14.6431003 L14.8212814,14.6453192 C14.8594808,14.6527156 14.8943585,14.6786032 14.9093061,14.7229819 L15.0599778,15.1987216 C15.1532507,15.5253488 15.4187199,15.7809701 15.7344129,15.9087807 L16.0285815,16.0152896 C16.143379,16.0507926 16.143379,16.1786032 15.9927073,16.235408 L15.7128884,16.3419168 C15.3900205,16.4697275 15.1460759,16.73955 15.0384532,17.0732778 L14.8877815,17.5632186 C14.872834,17.6075973 14.8379562,17.6334849 14.7997569,17.6408813 L14.7765715,17.6431003 C14.729935,17.6431003 14.6832985,17.616473 14.6653614,17.5632186 L14.5146897,17.0732778 C14.4214168,16.7466506 14.1559476,16.4697275 13.8402546,16.3419168 L13.5604357,16.235408 C13.4671628,16.199905 13.4671628,16.0507926 13.5604357,16.0152896 L13.8617791,15.9087807 C14.184647,15.7809701 14.4285916,15.5253488 14.5362143,15.1987216 L14.686886,14.7229819 C14.7018335,14.6786032 14.7367112,14.6527156 14.7749106,14.6453192 L14.798096,14.6431003 Z M9.75442105,15.5 C10.1686346,15.5 10.5044211,15.8357864 10.5044211,16.25 C10.5044211,16.6642136 10.1686346,17 9.75442105,17 L0.75,17 C0.335786438,17 -6.02957711e-17,16.6642136 0,16.25 C-1.61748834e-16,15.8357864 0.335786438,15.5 0.75,15.5 L9.75442105,15.5 Z M19.7060274,7 L19.7804889,7.00712627 C19.903169,7.03088051 20.0151813,7.11402034 20.0631866,7.25654577 L20.5470797,8.78441836 C20.8466326,9.83340551 21.6992062,10.654352 22.7130775,11.0648252 L23.6578213,11.4068862 C24.0265017,11.5209066 24.0265017,11.9313798 23.5426086,12.1138124 L22.64395,12.4558734 C21.6070361,12.8663466 20.8235901,13.7329012 20.4779521,14.8046924 L19.994059,16.3781732 C19.9460537,16.5206986 19.8340414,16.6038384 19.7113613,16.6275927 L19.6368998,16.6347189 C19.4871234,16.6347189 19.3373469,16.5492037 19.2797406,16.3781732 L18.7958475,14.8046924 C18.4962946,13.7557053 17.643721,12.8663466 16.6298496,12.4558734 L15.731191,12.1138124 C15.4316381,11.999792 15.4316381,11.5209066 15.731191,11.4068862 L16.6989772,11.0648252 C17.7358911,10.654352 18.5193371,9.83340551 18.864975,8.78441836 L19.3488682,7.25654577 C19.3968734,7.11402034 19.5088857,7.03088051 19.6315659,7.00712627 L19.7060274,7 Z M12.7556842,11 C13.1698978,11 13.5056842,11.3357864 13.5056842,11.75 C13.5056842,12.1642136 13.1698978,12.5 12.7556842,12.5 L3.75126316,12.5 C3.3370496,12.5 3.00126316,12.1642136 3.00126316,11.75 C3.00126316,11.3357864 3.3370496,11 3.75126316,11 L12.7556842,11 Z M15.7569474,6.5 C16.1711609,6.5 16.5069474,6.83578644 16.5069474,7.25 C16.5069474,7.66421356 16.1711609,8 15.7569474,8 L6.75252632,8 C6.33831275,8 6.00252632,7.66421356 6.00252632,7.25 C6.00252632,6.83578644 6.33831275,6.5 6.75252632,6.5 L15.7569474,6.5 Z"
            id="形状结合备份-44"
            fill="#fff"
            fill-rule="nonzero"></path>
    </g>
</svg>