<?xml version="1.0" encoding="UTF-8"?>
<svg width="24px"
     height="24px"
     viewBox="0 0 24 24"
     version="1.1"
     xmlns="http://www.w3.org/2000/svg"
     xmlns:xlink="http://www.w3.org/1999/xlink">
    <title>mode_panorama</title>
    <g
        id="mode_panorama"
        stroke="#000000"
        stroke-opacity="0.3"
        stroke-width="0.3"
        fill="none"
        fill-rule="evenodd">
        <path
            d="M23.0083841,3.70556748 L23.0096842,3.75045441 L23.0096842,20.2495456 L23.0083841,20.2944325 C22.9807895,20.7689488 22.5184381,21.1031819 22.0537638,20.9708377 C19.1988008,20.1577142 15.8489661,19.7492843 12.0050526,19.7492843 C8.25489315,19.7492843 4.97500499,20.1380337 2.16612436,20.9120632 L1.95634147,20.9708377 L1.91279825,20.981888 C1.46319473,21.0821553 1.02845341,20.7541202 1.00172115,20.2944325 L1.00042105,20.2495456 L1.00042105,3.75045441 C1.00042105,3.26748909 1.4486914,2.91461028 1.91279825,3.018112 L1.95634147,3.02916229 C4.81130451,3.84228585 8.16113916,4.25071569 12.0050526,4.25071569 C15.8489661,4.25071569 19.1988008,3.84228585 22.0537638,3.02916229 C22.5184381,2.89681815 22.9807895,3.23105122 23.0083841,3.70556748 Z M21.5090526,4.72495441 L21.3734606,4.75848219 C18.6298488,5.42082264 15.5072268,5.75071569 12.0050526,5.75071569 C8.60588357,5.75071569 5.56426846,5.43994274 2.8797117,4.81606131 L2.63664471,4.75848219 L2.50105263,4.72520441 L2.50105263,19.2747956 L2.63664471,19.2415178 L2.8797117,19.1839387 C5.56426846,18.5600573 8.60588357,18.2492843 12.0050526,18.2492843 C15.4042217,18.2492843 18.4458368,18.5600573 21.1303936,19.1839387 L21.3734606,19.2415178 L21.5090526,19.2750456 L21.5090526,4.72495441 Z M13.951679,10.4971223 C15.2437201,10.4971223 16.2213366,11.1017 17.5032047,12.3861737 L17.6841068,12.5698227 L18.3105376,13.2107992 L18.4219998,13.3234894 L18.614831,13.5160646 L18.7553984,13.6532909 L18.8771396,13.7684455 L18.9491306,13.8340678 L19.0146882,13.8915523 L19.0887665,13.9529831 L19.0887665,13.9529831 L19.1555119,14.0040497 L19.2046437,14.0383185 C19.2204859,14.0488496 19.235836,14.0585259 19.2508229,14.067459 L19.2948228,14.0921399 L19.3162473,14.103017 L19.3584288,14.1222624 L19.4003647,14.1387201 L19.4541882,14.1565639 C19.4762461,14.1632511 19.4988884,14.1694435 19.5225734,14.1755375 C19.545513,14.1814397 19.5664398,14.1851676 19.5857768,14.1869971 L19.6136431,14.188352 C20.0280311,14.188352 20.3639589,14.5241384 20.3639589,14.938352 C20.3639589,15.3525655 20.0280311,15.688352 19.6136431,15.688352 C19.4575761,15.688352 19.3023792,15.6677778 19.1485021,15.6281862 C18.6834236,15.5085247 18.2570026,15.2314804 17.7716072,14.7904161 L17.7126918,14.7363609 L17.5924926,14.6229728 L17.4666171,14.5002534 L17.3320434,14.36545 L17.1180256,14.145544 L16.6083671,13.6156516 L16.4490661,13.453906 L16.2569558,13.2647036 L16.2569558,13.2647036 L16.072059,13.0897016 C15.2492688,12.328189 14.6296247,11.9971223 13.951679,11.9971223 C13.3228821,11.9971223 12.744513,12.1657971 12.0358006,12.5794404 L11.8969543,12.6625798 C11.8500973,12.6913262 11.8026492,12.7211128 11.7545616,12.7519599 L11.6083311,12.8477038 L11.4579716,12.9499343 L11.3031919,13.0587743 L11.0620973,13.2346961 L11.0620973,13.2346961 L10.8949927,13.3605977 L10.7224485,13.4935392 L10.5441733,13.6336433 L10.3598759,13.7810331 L10.1692651,13.9358315 L9.87087403,14.182189 L8.85362118,15.0322138 L8.66817699,15.1824498 C7.12605701,16.4241042 5.98682374,17.0310144 4.7105291,17.06594 C4.29629633,17.0772753 3.95130131,16.7508038 3.93996115,16.3367454 C3.92862098,15.922687 4.25522998,15.5778371 4.66946275,15.5665017 C5.4582162,15.5449177 6.28468467,15.135291 7.43290377,14.2465158 L7.6273015,14.0939345 L7.80120495,13.9542737 L8.01255294,13.7815602 L8.92523174,13.0172854 L9.14648447,12.8341406 L9.36099847,12.6588811 L9.56911949,12.4913947 L9.77119327,12.3315693 L10.0637217,12.1059501 L10.0637217,12.1059501 L10.2521899,11.9647865 C10.2831886,11.941868 10.3139857,11.9192524 10.3445885,11.8969373 L10.5259307,11.7666342 C10.5856392,11.7243895 10.6446278,11.6833281 10.7029544,11.6434314 L10.8760052,11.5272166 C11.988673,10.7942888 12.871475,10.4971223 13.951679,10.4971223 Z M7.00294737,8.25045441 C7.69359398,8.25045441 8.25347368,8.81009847 8.25347368,9.50045441 C8.25347368,10.1908103 7.69359398,10.7504544 7.00294737,10.7504544 C6.31230075,10.7504544 5.75242105,10.1908103 5.75242105,9.50045441 C5.75242105,8.81009847 6.31230075,8.25045441 7.00294737,8.25045441 Z"
            id="形状备份-23"
            fill="#fff"
            fill-rule="nonzero"></path>
    </g>
</svg>