<?xml version="1.0" encoding="UTF-8"?>
<svg width="24px"
     height="24px"
     viewBox="0 0 24 24"
     version="1.1"
     xmlns="http://www.w3.org/2000/svg"
     xmlns:xlink="http://www.w3.org/1999/xlink">
    <title>mode_night</title>
    <g
        id="mode_night"
        stroke="#000000"
        stroke-opacity="0.3"
        stroke-width="0.3"
        fill="none"
        fill-rule="evenodd">
        <path
            d="M9.83911186,2.23424558 C10.469586,2.09532057 10.9693138,2.76492554 10.6567313,3.32980604 C10.0495043,4.42715041 9.72683456,5.66054488 9.72683456,6.94273653 C9.72683456,11.0697865 13.0724696,14.4154215 17.1995195,14.4154215 C18.4103455,14.4154215 19.5782294,14.1277346 20.6289571,13.5839392 C21.2022948,13.287213 21.8577144,13.8053305 21.7013498,14.4316791 C20.5989264,18.8476489 16.6152328,22 12,22 C6.4771525,22 2,17.5228475 2,12 C2,7.28312659 5.29111604,3.23639663 9.83911186,2.23424558 Z M8.66154258,4.179 L8.44261582,4.27676656 C5.49516615,5.63461324 3.5,8.61448867 3.5,12 C3.5,16.6944204 7.30557963,20.5 12,20.5 C15.2987065,20.5 18.2182763,18.6049814 19.620675,15.7711118 L19.620675,15.7711118 L19.7245426,15.553 L19.6732225,15.5699415 C18.9910702,15.7651851 18.2832699,15.8795474 17.5615092,15.9082378 L17.5615092,15.9082378 L17.1995195,15.9154215 C12.2440424,15.9154215 8.22683456,11.8982136 8.22683456,6.94273653 C8.22683456,5.99633081 8.37376309,5.07069909 8.65678126,4.19146851 L8.65678126,4.19146851 L8.66154258,4.179 Z M19.9012246,7.31085915 L19.938298,7.31440723 C19.9993788,7.32623415 20.0551483,7.36762837 20.0790495,7.4385899 L20.3199735,8.19929746 C20.4691169,8.7215743 20.893602,9.13031269 21.3983951,9.33468189 L21.8687706,9.50498955 C22.0523317,9.56175878 22.0523317,9.76612797 21.8114077,9.85695873 L21.3639774,10.0272664 C20.8477117,10.2316356 20.4576443,10.6630817 20.2855557,11.1967123 L20.0446318,11.9801276 C20.0207306,12.0510891 19.9649611,12.0924834 19.9038803,12.1043103 L19.8668069,12.1078584 C19.7922352,12.1078584 19.7176635,12.0652814 19.6889821,11.9801276 L19.4480581,11.1967123 C19.2989146,10.6744355 18.8744295,10.2316356 18.3696364,10.0272664 L17.9222061,9.85695873 C17.7730627,9.8001895 17.7730627,9.56175878 17.9222061,9.50498955 L18.4040541,9.33468189 C18.9203198,9.13031269 19.3103872,8.7215743 19.4824758,8.19929746 L19.7233998,7.4385899 C19.747301,7.36762837 19.8030704,7.32623415 19.8641512,7.31440723 L19.9012246,7.31085915 Z M14.7387235,2 L14.7929816,2.00519272 C14.8823753,2.0225018 14.9639957,2.08308358 14.9989759,2.18693804 L15.3515758,3.30025795 C15.569852,4.06462685 16.1910996,4.66282859 16.9298805,4.96192946 L17.61829,5.21118019 C17.8869376,5.29426376 17.8869376,5.59336463 17.5343377,5.72629835 L16.8795091,5.97554908 C16.1239377,6.27464995 15.5530616,6.90608512 15.3012044,7.68707073 L14.9486044,8.83362407 C14.9136243,8.93747854 14.8320039,8.99806031 14.7426102,9.01536939 L14.6883521,9.02056211 C14.579214,9.02056211 14.4700759,8.95824943 14.4280997,8.83362407 L14.0754997,7.68707073 C13.8572235,6.92270184 13.2359759,6.27464995 12.497195,5.97554908 L11.8423665,5.72629835 C11.6240903,5.64321478 11.6240903,5.29426376 11.8423665,5.21118019 L12.5475664,4.96192946 C13.3031378,4.66282859 13.874014,4.06462685 14.1258711,3.30025795 L14.4784711,2.18693804 C14.5134513,2.08308358 14.5950716,2.0225018 14.6844654,2.00519272 L14.7387235,2 Z"
            id="形状结合备份-8"
            fill="#fff"
            fill-rule="nonzero"></path>
    </g>
</svg>