<?xml version="1.0" encoding="UTF-8"?>
<svg width="24px"
     height="24px"
     viewBox="0 0 24 24"
     version="1.1"
     xmlns="http://www.w3.org/2000/svg"
     xmlns:xlink="http://www.w3.org/1999/xlink">
    <title>ic_camera_video_frame_rate</title>
    <g
        id="ic_camera_video_frame_rate"
        stroke="none"
        stroke-width="1"
        fill="none"
        fill-rule="evenodd">
        <path
            d="M4,21 C2.34314575,21 1,19.6568542 1,18 L1,6 C1,4.34314575 2.34314575,3 4,3 L20,3 C21.6568542,3 23,4.34314575 23,6 L23,18 C23,19.6568542 21.6568542,21 20,21 L4,21 Z M4.9,15.5 L3.1,15.5 C2.7708885,15.5 2.50366604,15.7649786 2.5000374,16.0932308 L2.5,18 C2.5,18.8025915 3.13033829,19.4579597 3.92296654,19.4980561 L5,19.5 C5.27614237,19.5 5.5,19.2761424 5.5,19 L5.5,16.1 C5.5,15.7686292 5.23137085,15.5 4.9,15.5 Z M17,12.75 L7,12.75 L7,19.5 L17,19.5 L17,12.75 Z M20.9,15.5 L19.1,15.5 C18.7686292,15.5 18.5,15.7686292 18.5,16.1 L18.5,19 C18.5,19.2761424 18.7238576,19.5 19,19.5 L20.0609085,19.4986018 L20.0609085,19.4986018 C20.8358118,19.467791 21.4593842,18.8490828 21.4980939,18.076283 L21.5,17 L21.5,16.1 C21.5,15.7686292 21.2313708,15.5 20.9,15.5 Z M20.9,10 L19.1,10 C18.7686292,10 18.5,10.2686292 18.5,10.6 L18.5,13.4 C18.5,13.7313708 18.7686292,14 19.1,14 L20.9,14 C21.2313708,14 21.5,13.7313708 21.5,13.4 L21.5,10.6 C21.5,10.2686292 21.2313708,10 20.9,10 Z M4.9,10 L3.1,10 C2.76862915,10 2.5,10.2686292 2.5,10.6 L2.5,13.4 C2.5,13.7313708 2.76862915,14 3.1,14 L4.9,14 C5.23137085,14 5.5,13.7313708 5.5,13.4 L5.5,10.6 C5.5,10.2686292 5.23137085,10 4.9,10 Z M17,4.5 L7,4.5 L7,11.25 L17,11.25 L17,4.5 Z M5,4.5 L3.93316993,4.50162306 L3.93316993,4.50162306 C3.15414626,4.53584326 2.52978363,5.16373529 2.50103462,5.94376543 L2.5,6 L2.49993501,6.81417591 L2.50531768,6.83562431 L2.50531768,6.83562431 L2.5,6.9925 L2.5,7.90675 L2.50138422,7.94107968 C2.52249469,8.25329024 2.78243627,8.5 3.1,8.5 L4.9,8.5 C5.23137085,8.5 5.5,8.23137085 5.5,7.9 L5.5,5 C5.5,4.72385763 5.27614237,4.5 5,4.5 Z M20,4.5 L18.99375,4.5 L18.9626844,4.50137143 C18.7039694,4.52045872 18.5,4.73640956 18.5,5 L18.5,7.9 C18.5,8.23137085 18.7686292,8.5 19.1,8.5 L20.9,8.5 C21.2313708,8.5 21.5,8.23137085 21.5,7.9 L21.4983372,5.93464649 L21.4983372,5.93464649 C21.4650996,5.15508427 20.8368504,4.52980522 20.0562346,4.50103462 L20,4.5 Z"
            id="形状"
            fill="#FFFFFF"
            fill-rule="nonzero"></path>
    </g>
</svg>