<?xml version="1.0" encoding="UTF-8"?>
<svg width="24px"
     height="24px"
     viewBox="0 0 24 24"
     version="1.1"
     xmlns="http://www.w3.org/2000/svg"
     xmlns:xlink="http://www.w3.org/1999/xlink">
    <title>ic_camera_mirrow_reflection</title>
    <g
        id="ic_camera_mirrow_reflection"
        stroke="none"
        stroke-width="1"
        fill="none"
        fill-rule="evenodd">
        <path
            d="M12.1249977,2 C12.5392113,2 12.8749977,2.33578644 12.8749977,2.75 L12.8749977,21.25 C12.8749977,21.6642136 12.5392113,22 12.1249977,22 C11.7107841,22 11.3749977,21.6642136 11.3749977,21.25 L11.3749977,2.75 C11.3749977,2.33578644 11.7107841,2 12.1249977,2 Z M8.42733958,12.8608268 L4.54018177,17.0589573 C4.16495507,17.4642021 3.53225789,17.4885366 3.12701306,17.1133099 C2.92261403,16.9240515 2.80642109,16.6581128 2.80642109,16.3795492 L2.80642109,7.98328834 C2.80642109,7.43100359 3.25413634,6.98328834 3.80642109,6.98328834 C4.08498471,6.98328834 4.3509234,7.09948128 4.54018177,7.30388031 L8.42733958,11.5020108 C8.78232535,11.8853954 8.78232535,12.4774422 8.42733958,12.8608268 Z M7.01242109,12.1811688 L4.30642109,9.25891878 L4.30642109,15.1036688 L7.01242109,12.1811688 Z M15.5726604,12.8608268 L19.4598182,17.0589573 C19.8350449,17.4642021 20.4677421,17.4885366 20.8729869,17.1133099 C21.077386,16.9240515 21.1935789,16.6581128 21.1935789,16.3795492 L21.1935789,7.98328834 C21.1935789,7.43100359 20.7458637,6.98328834 20.1935789,6.98328834 C19.9150153,6.98328834 19.6490766,7.09948128 19.4598182,7.30388031 L15.5726604,11.5020108 C15.2176747,11.8853954 15.2176747,12.4774422 15.5726604,12.8608268 Z M16.9875789,12.1811688 L19.6935789,9.25891878 L19.6935789,15.1036688 L16.9875789,12.1811688 Z"
            id="形状结合"
            fill="#000000"></path>
    </g>
</svg>