<?xml version="1.0" encoding="UTF-8"?>
<svg width="24px"
     height="24px"
     viewBox="0 0 24 24"
     version="1.1"
     xmlns="http://www.w3.org/2000/svg"
     xmlns:xlink="http://www.w3.org/1999/xlink">
    <title>ic_camera_setting_assistive_grid</title>
    <g
        id="ic_camera_setting_assistive_grid"
        stroke="none"
        stroke-width="1"
        fill="none"
        fill-rule="evenodd">
        <path
            d="M16.2521053,2 C16.6663188,2 17.0021053,2.33578644 17.0021053,2.75 L17.0017895,6.999 L21.2542105,7 C21.6684241,7 22.0042105,7.33578644 22.0042105,7.75 C22.0042105,8.16421356 21.6684241,8.5 21.2542105,8.5 L17.0017895,8.499 L17.0017895,15.499 L21.2542105,15.5 C21.6684241,15.5 22.0042105,15.8357864 22.0042105,16.25 C22.0042105,16.6642136 21.6684241,17 21.2542105,17 L17.0017895,16.999 L17.0021053,21.25 C17.0021053,21.6296958 16.7199514,21.943491 16.3538758,21.9931534 L16.2514737,22 C15.8372601,22 15.5014737,21.6642136 15.5014737,21.25 L15.5007895,16.999 L8.49778947,16.999 L8.49852632,21.25 C8.49852632,21.6296958 8.21637243,21.943491 7.85029687,21.9931534 L7.74789474,22 C7.33368117,22 6.99789474,21.6642136 6.99789474,21.25 L6.99778947,16.999 L2.74578947,17 C2.33157591,17 1.99578947,16.6642136 1.99578947,16.25 C1.99578947,15.8357864 2.33157591,15.5 2.74578947,15.5 L6.99778947,15.499 L6.99778947,8.499 L2.74578947,8.5 C2.33157591,8.5 1.99578947,8.16421356 1.99578947,7.75 C1.99578947,7.33578644 2.33157591,7 2.74578947,7 L6.99778947,6.999 L6.99789474,2.75 C6.99789474,2.37030423 7.28004862,2.05650904 7.64612418,2.00684662 L7.74852632,2 C8.16273988,2 8.49852632,2.33578644 8.49852632,2.75 L8.49778947,6.999 L15.5007895,6.999 L15.5014737,2.75 C15.5014737,2.37030423 15.7836276,2.05650904 16.1497031,2.00684662 L16.2521053,2 Z M15.5007895,8.499 L8.49778947,8.499 L8.49778947,15.499 L15.5007895,15.499 L15.5007895,8.499 Z"
            id="形状"
            fill="#000000"></path>
    </g>
</svg>