<?xml version="1.0" encoding="UTF-8"?>
<svg width="24px" height="24px" viewBox="0 0 24 24" version="1.1" xmlns="http://www.w3.org/2000/svg" xmlns:xlink="http://www.w3.org/1999/xlink">
    <title>arrow_counterclockwise</title>
    <defs>
        <path d="M0.98,12.1 C0.98,12.64 1.05,13.26 1.19,13.96 C1.32333333,14.6533333 1.49333333,15.28 1.7,15.84 C1.73333333,15.9333333 1.79333333,15.9966667 1.88,16.03 C1.97333333,16.0633333 2.06333333,16.0666667 2.15,16.04 C2.23666667,16.02 2.30333333,15.97 2.35,15.89 L4.42,12.53 C4.46666667,12.45 4.48,12.37 4.46,12.29 C4.44666667,12.21 4.40666667,12.14 4.34,12.08 C4.28,12.0266667 4.21,12 4.13,12 L2.52,12 C2.52,10.3333333 2.92,8.79 3.72,7.37 C4.52,5.94333333 5.60666667,4.79333333 6.98,3.92 C8.36,3.05333333 9.88,2.58 11.54,2.5 C12.82,2.43333333 14.05,2.61333333 15.23,3.04 C16.4033333,3.46 17.4533333,4.10333333 18.38,4.97 C19.3266667,5.81666667 20.0633333,6.80666667 20.59,7.94 C21.1166667,9.08 21.4133333,10.28 21.48,11.54 C21.5466667,12.8066667 21.3666667,14.0266667 20.94,15.2 C20.5133333,16.38 19.8766667,17.4333333 19.03,18.36 C18.1833333,19.3066667 17.1933333,20.0466667 16.06,20.58 C14.92,21.1133333 13.72,21.4133333 12.46,21.48 C11.2266667,21.5466667 10.0333333,21.38 8.88,20.98 C7.72666667,20.58 6.68666667,19.97 5.76,19.15 C5.6,19.01 5.41666667,18.9466667 5.21,18.96 C5.00333333,18.9733333 4.83333333,19.06 4.7,19.22 C4.56,19.38 4.49666667,19.5666667 4.51,19.78 C4.53,19.9866667 4.62,20.1533333 4.78,20.28 C5.92666667,21.2866667 7.09666667,21.9866667 8.29,22.38 C9.48333333,22.7733333 10.8866667,22.97 12.5,22.97 C13.9733333,22.9033333 15.3666667,22.5633333 16.68,21.95 C17.9933333,21.33 19.1466667,20.4766667 20.14,19.39 C21.1266667,18.3033333 21.86,17.0766667 22.34,15.71 C22.82,14.3433333 23.03,12.93 22.97,11.47 C22.89,9.99666667 22.54,8.60666667 21.92,7.3 C21.3066667,5.98666667 20.4566667,4.83333333 19.37,3.84 C18.2833333,2.84666667 17.0533333,2.11 15.68,1.63 C14.3133333,1.15 12.9033333,0.943333333 11.45,1.01 C9.53,1.10333333 7.77,1.66333333 6.17,2.69 C4.57,3.71 3.30666667,5.05333333 2.38,6.72 C1.44666667,8.38666667 0.98,10.18 0.98,12.1 Z" id="path-1"></path>
        <filter x="-13.6%" y="-13.7%" width="127.3%" height="127.3%" filterUnits="objectBoundingBox" id="filter-2">
            <feOffset dx="0" dy="0" in="SourceAlpha" result="shadowOffsetOuter1"></feOffset>
            <feGaussianBlur stdDeviation="1" in="shadowOffsetOuter1" result="shadowBlurOuter1"></feGaussianBlur>
            <feColorMatrix values="0 0 0 0 0   0 0 0 0 0   0 0 0 0 0  0 0 0 0.2 0" type="matrix" in="shadowBlurOuter1"></feColorMatrix>
        </filter>
    </defs>
    <g id="arrow_counterclockwise" stroke="none" stroke-width="1" fill="none" fill-rule="evenodd">
        <g id="路径" fill-rule="nonzero">
            <use fill="black" fill-opacity="1" filter="url(#filter-2)" xlink:href="#path-1"></use>
            <use fill="#FFFFFF" xlink:href="#path-1"></use>
        </g>
    </g>
</svg>