<?xml version="1.0" encoding="UTF-8"?>
<svg width="24px" height="24px" viewBox="0 0 24 24" version="1.1" xmlns="http://www.w3.org/2000/svg" xmlns:xlink="http://www.w3.org/1999/xlink">
    <title>照片比例全屏</title>
    <g id="照片比例全屏" stroke="none" stroke-width="1" fill="none" fill-rule="evenodd">
        <path d="M18,1 C19.6568542,1 21,2.34314575 21,4 L21,20 C21,21.6568542 19.6568542,23 18,23 L6,23 C4.34314575,23 3,21.6568542 3,20 L3,4 C3,2.34314575 4.34314575,1 6,1 L18,1 Z M18,2.5 L6,2.5 C5.22030388,2.5 4.57955132,3.09488808 4.50686658,3.85553999 L4.5,4 L4.5,20 C4.5,20.7796961 5.09488808,21.4204487 5.85553999,21.4931334 L6,21.5 L18,21.5 C18.7796961,21.5 19.4204487,20.9051119 19.4931334,20.14446 L19.5,20 L19.5,4 C19.5,3.22030388 18.9051119,2.57955132 18.14446,2.50686658 L18,2.5 Z M12.1497097,7.21722676 C12.1688653,7.2315523 12.1858658,7.2485528 12.2001913,7.26770837 L13.9446062,9.60027537 C14.0272968,9.71084622 14.0046954,9.8675156 13.8941246,9.95020623 C13.8509002,9.9825317 13.7983748,10 13.7443999,10 L12.4995703,9.99941802 L12.4995703,13.501418 L13.7443999,13.5022818 C13.7803832,13.5022818 13.8157222,13.5100455 13.8480906,13.5247992 L13.8941246,13.5520756 C13.9862669,13.6209845 14.0173194,13.7412675 13.9772574,13.8434354 L13.9446062,13.9020065 L12.2001913,16.2345735 C12.1858658,16.253729 12.1688653,16.2707295 12.1497097,16.2850551 C12.0575674,16.3539639 11.9334121,16.3497533 11.8467332,16.2824479 L11.7997789,16.2345735 L10.055364,13.9020065 C10.0230386,13.858782 10.0055703,13.8062567 10.0055703,13.7522818 C10.0055703,13.6339351 10.0878037,13.534795 10.1982475,13.5088845 L10.2555703,13.5022818 L11.4995703,13.501418 L11.4995703,9.99941802 L10.2555703,10 C10.1174991,10 10.0055703,9.88807119 10.0055703,9.75 C10.0055703,9.69602514 10.0230386,9.64349979 10.055364,9.60027537 L11.7997789,7.26770837 C11.8824695,7.15713752 12.0391389,7.13453614 12.1497097,7.21722676 Z" id="形状结合" fill="#FFFFFF" fill-rule="nonzero"></path>
    </g>
</svg>