<?xml version="1.0" encoding="UTF-8"?>
<svg width="24px" height="24px" viewBox="0 0 24 24" version="1.1" xmlns="http://www.w3.org/2000/svg" xmlns:xlink="http://www.w3.org/1999/xlink">
    <title>ic/ic_camera_pro_audionote_on</title>
    <defs>
        <path d="M15.1205992,3.25 C15.7758689,3.25 16.3895761,3.57098956 16.7633392,4.10920838 L17.9027778,5.75 L20,5.75 C21.6568542,5.75 23,7.09314575 23,8.75 L23,17.75 C23,19.4068542 21.6568542,20.75 20,20.75 L4,20.75 C2.34314575,20.75 1,19.4068542 1,17.75 L1,8.75 C1,7.09314575 2.34314575,5.75 4,5.75 L6.09722222,5.75 L7.23666085,4.10920838 C7.61042392,3.57098956 8.22413111,3.25 8.87940078,3.25 L15.1205992,3.25 Z M15.1205992,4.75 L8.87940078,4.75 C8.71558336,4.75 8.56215656,4.83024739 8.4687158,4.9648021 L6.88177281,7.25 L4,7.25 C3.17157288,7.25 2.5,7.92157288 2.5,8.75 L2.5,17.75 C2.5,18.5784271 3.17157288,19.25 4,19.25 L20,19.25 C20.8284271,19.25 21.5,18.5784271 21.5,17.75 L21.5,8.75 C21.5,7.92157288 20.8284271,7.25 20,7.25 L17.1182272,7.25 L15.5312842,4.9648021 C15.4378434,4.83024739 15.2844166,4.75 15.1205992,4.75 Z M12,8 C14.6233526,8 16.75,10.1266474 16.75,12.75 C16.75,15.3733526 14.6233526,17.5 12,17.5 C9.37664744,17.5 7.25,15.3733526 7.25,12.75 C7.25,10.1266474 9.37664744,8 12,8 Z M12,9.5 C10.2050746,9.5 8.75,10.9550746 8.75,12.75 C8.75,14.5449254 10.2050746,16 12,16 C13.7949254,16 15.25,14.5449254 15.25,12.75 C15.25,10.9550746 13.7949254,9.5 12,9.5 Z M18.6529673,8.31844011 L18.6796045,8.32099047 C18.7234908,8.32949165 18.763561,8.3592458 18.7807339,8.41025291 L18.9538371,8.9570491 C19.0609962,9.3324614 19.3659874,9.62626234 19.7286798,9.77316281 L20.0666431,9.89557987 C20.1985312,9.93638555 20.1985312,10.083286 20.025428,10.1485751 L19.7039507,10.2709922 C19.3330154,10.4178926 19.0527532,10.7280159 18.9291081,11.1115893 L18.7560049,11.6747078 C18.738832,11.7257149 18.6987618,11.755469 18.6548754,11.7639702 L18.6282383,11.7665206 C18.5746588,11.7665206 18.5210792,11.7359163 18.5004717,11.6747078 L18.3273685,11.1115893 C18.2202095,10.736177 17.9152182,10.4178926 17.5525259,10.2709922 L17.2310486,10.1485751 C17.1238895,10.1077694 17.1238895,9.93638555 17.2310486,9.89557987 L17.5772549,9.77316281 C17.9481902,9.62626234 18.2284525,9.3324614 18.3520976,8.9570491 L18.5252007,8.41025291 C18.5423737,8.3592458 18.5824438,8.32949165 18.6263302,8.32099047 L18.6529673,8.31844011 Z" id="path-1"></path>
        <filter x="-20.5%" y="-25.7%" width="140.9%" height="151.4%" filterUnits="objectBoundingBox" id="filter-2">
            <feOffset dx="0" dy="0" in="SourceAlpha" result="shadowOffsetOuter1"></feOffset>
            <feGaussianBlur stdDeviation="1.5" in="shadowOffsetOuter1" result="shadowBlurOuter1"></feGaussianBlur>
            <feColorMatrix values="0 0 0 0 0   0 0 0 0 0   0 0 0 0 0  0 0 0 0.2 0" type="matrix" in="shadowBlurOuter1"></feColorMatrix>
        </filter>
    </defs>
    <g id="ic/ic_camera_pro_audionote_on" stroke="none" stroke-width="1" fill="none" fill-rule="evenodd">
        <g id="形状结合" fill-rule="nonzero">
            <use fill="black" fill-opacity="1" filter="url(#filter-2)" xlink:href="#path-1"></use>
            <use fill="#FFFFFF" xlink:href="#path-1"></use>
        </g>
    </g>
</svg>