<?xml version="1.0" encoding="UTF-8"?>
<svg width="24px" height="24px" viewBox="0 0 24 24" version="1.1" xmlns="http://www.w3.org/2000/svg" xmlns:xlink="http://www.w3.org/1999/xlink">
    <title>ic/ic_camera_pro_audionote_off</title>
    <defs>
        <path d="M3.51465921,2.21966991 L21.546001,20.2510117 C21.8388942,20.5439049 21.8388942,21.0187786 21.546001,21.3116718 C21.2531077,21.6045651 20.778234,21.6045651 20.4853408,21.3116718 L19.689,20.515 L4,20.5156709 C2.34314575,20.5156709 1,19.1725251 1,17.5156709 L1,8.51567088 C1,6.85881663 2.34314575,5.51567088 4,5.51567088 L4.688,5.515 L2.45399904,3.28033009 C2.16110582,2.98743687 2.16110582,2.51256313 2.45399904,2.21966991 C2.74689226,1.9267767 3.22176599,1.9267767 3.51465921,2.21966991 Z M15.1205992,3.01567088 C15.7758689,3.01567088 16.3895761,3.33666044 16.7633392,3.87487926 L17.9027778,5.51567088 L20,5.51567088 C21.6568542,5.51567088 23,6.85881663 23,8.51567088 L23,17.5156709 C23,18.2868971 22.7089832,18.9901526 22.2307722,19.5216149 L21.1669603,18.4581969 C21.3752506,18.2006308 21.5,17.8727192 21.5,17.5156709 L21.5,8.51567088 C21.5,7.68724376 20.8284271,7.01567088 20,7.01567088 L17.1182272,7.01567088 L15.5312842,4.73047298 C15.4378434,4.59591827 15.2844166,4.51567088 15.1205992,4.51567088 L8.87940078,4.51567088 C8.71558336,4.51567088 8.56215656,4.59591827 8.4687158,4.73047298 L8.046,5.33767088 L6.969,4.25967088 L7.23666085,3.87487926 C7.61042392,3.33666044 8.22413111,3.01567088 8.87940078,3.01567088 L15.1205992,3.01567088 Z M8.4886906,9.31668531 L6.188,7.015 L4,7.01567088 C3.17157288,7.01567088 2.5,7.68724376 2.5,8.51567088 L2.5,17.5156709 C2.5,18.344098 3.17157288,19.0156709 4,19.0156709 L18.189,19.015 L15.1999093,16.026138 C14.3556742,16.7961266 13.2326711,17.2656709 12,17.2656709 C9.37664744,17.2656709 7.25,15.1390235 7.25,12.5156709 C7.25,11.2834493 7.71920192,10.1608157 8.4886906,9.31668531 Z M8.75,12.5156709 C8.75,14.3105963 10.2050746,15.7656709 12,15.7656709 C12.8183628,15.7656709 13.5660796,15.4631996 14.1374541,14.9639534 L9.55147701,10.3784921 C9.05237419,10.9498314 8.75,11.6974395 8.75,12.5156709 Z M12,7.76567088 C14.6233526,7.76567088 16.75,9.89231832 16.75,12.5156709 C16.75,12.9792617 16.6835872,13.4273409 16.5597567,13.8509135 L15.2499043,12.5408769 C15.2499681,12.5324824 15.25,12.5240804 15.25,12.5156709 C15.25,10.7207455 13.7949254,9.26567088 12,9.26567088 L11.975,9.26667088 L10.6647574,7.95591415 C11.08833,7.83208367 11.5364092,7.76567088 12,7.76567088 Z M18.6529673,8.08411099 L18.6796045,8.08666134 C18.7234908,8.09516253 18.763561,8.12491667 18.7807339,8.17592378 L18.9538371,8.72271997 C19.0609962,9.09813228 19.3659874,9.39193322 19.7286798,9.53883369 L20.0666431,9.66125074 C20.1985312,9.70205643 20.1985312,9.8489569 20.025428,9.91424599 L19.7039507,10.0366631 C19.3330154,10.1835635 19.0527532,10.4936867 18.9291081,10.8772602 L18.7560049,11.4403786 C18.738832,11.4913857 18.6987618,11.5211399 18.6548754,11.5296411 L18.6282383,11.5321914 C18.5746588,11.5321914 18.5210792,11.5015872 18.5004717,11.4403786 L18.3273685,10.8772602 C18.2202095,10.5018479 17.9152182,10.1835635 17.5525259,10.0366631 L17.2310486,9.91424599 C17.1238895,9.87344031 17.1238895,9.70205643 17.2310486,9.66125074 L17.5772549,9.53883369 C17.9481902,9.39193322 18.2284525,9.09813228 18.3520976,8.72271997 L18.5252007,8.17592378 C18.5423737,8.12491667 18.5824438,8.09516253 18.6263302,8.08666134 L18.6529673,8.08411099 Z" id="path-1"></path>
        <filter x="-20.5%" y="-23.0%" width="140.9%" height="146.1%" filterUnits="objectBoundingBox" id="filter-2">
            <feOffset dx="0" dy="0" in="SourceAlpha" result="shadowOffsetOuter1"></feOffset>
            <feGaussianBlur stdDeviation="1.5" in="shadowOffsetOuter1" result="shadowBlurOuter1"></feGaussianBlur>
            <feColorMatrix values="0 0 0 0 0   0 0 0 0 0   0 0 0 0 0  0 0 0 0.2 0" type="matrix" in="shadowBlurOuter1"></feColorMatrix>
        </filter>
    </defs>
    <g id="ic/ic_camera_pro_audionote_off" stroke="none" stroke-width="1" fill="none" fill-rule="evenodd">
        <g id="形状结合" fill-rule="nonzero">
            <use fill="black" fill-opacity="1" filter="url(#filter-2)" xlink:href="#path-1"></use>
            <use fill="#FFFFFF" xlink:href="#path-1"></use>
        </g>
    </g>
</svg>