<?xml version="1.0" encoding="UTF-8"?>
<svg width="24px" height="24px" viewBox="0 0 24 24" version="1.1" xmlns="http://www.w3.org/2000/svg" xmlns:xlink="http://www.w3.org/1999/xlink">
    <title>Audio Zoom_off</title>
    <defs>
        <path d="M3.51465921,2.45399904 L21.546001,20.4853408 C21.8388942,20.778234 21.8388942,21.2531077 21.546001,21.546001 C21.2531077,21.8388942 20.778234,21.8388942 20.4853408,21.546001 L20.2484708,21.3087167 C19.6077269,21.7449874 18.8336688,22 18.00005,22 L15.999825,22 L15.9560074,21.9987268 C15.5623105,21.9759152 15.2500844,21.6494202 15.2500844,21.25 C15.2500844,20.8505798 15.5623105,20.5240848 15.9560074,20.5012732 L16.000075,20.5 L18.00005,20.5 C18.4169436,20.5 18.8100034,20.3979537 19.1556138,20.2174769 L12.739,13.8 L12.74,17.11 C12.74,17.3033333 12.67,17.4633333 12.53,17.59 C12.3833333,17.7166667 12.2066667,17.78 12,17.78 C11.7933333,17.78 11.6166667,17.7166667 11.47,17.59 C11.33,17.4633333 11.26,17.3033333 11.26,17.11 L11.259,12.32 L9.7,10.761 L9.7,15.89 C9.7,16.0633333 9.62666667,16.2133333 9.48,16.34 C9.33333333,16.4733333 9.15666667,16.54 8.95,16.54 C8.74333333,16.54 8.57333333,16.4733333 8.44,16.34 C8.3,16.2133333 8.23,16.0633333 8.23,15.89 L8.23,9.291 L3.78294063,4.8440583 C3.61248152,5.1703623 3.5119386,5.53897747 3.50119168,5.93002379 L3.50023125,6 L3.50023125,8 C3.50023125,8.41421356 3.16444901,8.75 2.75024062,8.75 C2.35082539,8.75 2.02433448,8.43777001 2.00152315,8.0440682 L2.00025,8 L2.00025,6 C2.00025,5.16680433 2.25499424,4.3931081 2.6908442,3.75255077 L2.45399904,3.51465921 C2.16110582,3.22176599 2.16110582,2.74689226 2.45399904,2.45399904 C2.74689226,2.16110582 3.22176599,2.16110582 3.51465921,2.45399904 Z M2.75024062,15.25 C3.14965585,15.25 3.47614677,15.56223 3.49895809,15.9559318 L3.49998125,16 L3.50023125,18 C3.50023125,19.35731 4.58188542,20.4619829 5.93022466,20.4990396 L6.0002,20.5 L8.000175,20.5 C8.41438338,20.5 8.75016562,20.8357864 8.75016562,21.25 C8.75016562,21.6494202 8.43793953,21.9759152 8.04424264,21.9987268 L8.000175,22 L6.0002,22 C3.79108861,22 2.00025,20.209139 2.00025,18 L2,16 L2.00152315,15.9559318 C2.02433448,15.56223 2.35082539,15.25 2.75024062,15.25 Z M21.2500094,15.25 C21.6494246,15.25 21.9759155,15.56223 21.9987268,15.9559318 L21.99975,16 L22,18 C22,18.4575096 21.9231912,18.8970794 21.7817654,19.3065174 L20.5,18.025 L20.5000187,18 L20.4997688,16 L20.5012919,15.9559318 C20.5241032,15.56223 20.8505941,15.25 21.2500094,15.25 Z M5.93,10.49 C6.15,10.49 6.33333333,10.5533333 6.48,10.68 C6.62666667,10.8066667 6.7,10.96 6.7,11.14 L6.7,13.63 C6.7,13.81 6.62666667,13.9633333 6.48,14.09 C6.33333333,14.2166667 6.15,14.28 5.93,14.28 C5.72333333,14.28 5.54666667,14.2166667 5.4,14.09 C5.25333333,13.9633333 5.18,13.81 5.18,13.63 L5.18,11.14 C5.18,10.96 5.25333333,10.8066667 5.4,10.68 C5.54666667,10.5533333 5.72333333,10.49 5.93,10.49 Z M18.02,10.22 C18.2333333,10.22 18.4133333,10.2866667 18.56,10.42 C18.7133333,10.5466667 18.79,10.6966667 18.79,10.87 L18.79,13.63 C18.79,13.81 18.7133333,13.9633333 18.56,14.09 C18.4133333,14.2166667 18.2333333,14.28 18.02,14.28 C17.8333333,14.28 17.6633333,14.2166667 17.51,14.09 C17.3566667,13.9633333 17.28,13.81 17.28,13.63 L17.28,10.87 C17.28,10.6966667 17.3566667,10.5466667 17.51,10.42 C17.6633333,10.2866667 17.8333333,10.22 18.02,10.22 Z M15,8.88 C15.2066667,8.88 15.3866667,8.94333333 15.54,9.07 C15.6933333,9.19666667 15.77,9.35 15.77,9.53 L15.769,13.294 L14.259,11.784 L14.26,9.53 C14.26,9.35 14.33,9.19666667 14.47,9.07 C14.6166667,8.94333333 14.7933333,8.88 15,8.88 Z M12,6.22 C12.2066667,6.22 12.3833333,6.28333333 12.53,6.41 C12.67,6.53666667 12.74,6.68666667 12.74,6.86 L12.739,10.265 L11.259,8.785 L11.26,6.86 C11.26,6.68666667 11.33,6.53666667 11.47,6.41 C11.6166667,6.28333333 11.7933333,6.22 12,6.22 Z M18.00005,2 C20.2091614,2 22,3.790861 22,6 L22,8 C22,8.41421356 21.6642178,8.75 21.2500094,8.75 C20.8505941,8.75 20.5241032,8.43777001 20.5012919,8.0440682 L20.5000187,8 L20.5000187,6 C20.5000187,4.64269002 19.4183646,3.53801707 18.0700253,3.50096045 L15.999825,3.5 L15.9560074,3.49872683 C15.5623105,3.47591522 15.2500844,3.14942022 15.2500844,2.75 C15.2500844,2.35057978 15.5623105,2.02408478 15.9560074,2.00127317 L16.000075,2 L18.00005,2 Z M8.000175,2 C8.41438338,2 8.75016562,2.33578644 8.75016562,2.75 C8.75016562,3.14942022 8.43793953,3.47591522 8.04424264,3.49872683 L7.999925,3.5 L6.0002,3.5 L5.975,3.501 L4.69270606,2.21858045 C5.10242117,2.07693397 5.54232625,2 6.0002,2 L8.000175,2 Z" id="path-1"></path>
        <filter x="-22.5%" y="-22.5%" width="145.0%" height="145.0%" filterUnits="objectBoundingBox" id="filter-2">
            <feOffset dx="0" dy="0" in="SourceAlpha" result="shadowOffsetOuter1"></feOffset>
            <feGaussianBlur stdDeviation="1.5" in="shadowOffsetOuter1" result="shadowBlurOuter1"></feGaussianBlur>
            <feColorMatrix values="0 0 0 0 0   0 0 0 0 0   0 0 0 0 0  0 0 0 0.2 0" type="matrix" in="shadowBlurOuter1"></feColorMatrix>
        </filter>
    </defs>
    <g id="Audio-Zoom_off" stroke="none" stroke-width="1" fill="none" fill-rule="evenodd">
        <g id="形状结合" fill-rule="nonzero">
            <use fill="black" fill-opacity="1" filter="url(#filter-2)" xlink:href="#path-1"></use>
            <use fill="#FFFFFF" xlink:href="#path-1"></use>
        </g>
    </g>
</svg>