<svg viewBox="0 0 16 16" xmlns="http://www.w3.org/2000/svg" xmlns:xlink="http://www.w3.org/1999/xlink" width="16" height="16" fill="none">
	<rect id="黑白" width="16" height="16" x="0" y="0" />
	<rect id="rect" width="16" height="16" x="0" y="0" opacity="0" fill="rgb(112,124,144)" />
	<g id="g">
		<path id="path" d="M4.39997 4.4C3.75108 5.04889 3.30886 5.81777 3.0733 6.70666C2.83774 7.59111 2.83774 8.47555 3.0733 9.36C3.30886 10.2444 3.75108 11.0133 4.39997 11.6667C5.06219 12.3244 5.83552 12.7689 6.71997 13C7.60441 13.2311 8.48441 13.2311 9.35997 13C10.2355 12.7689 11.0044 12.3244 11.6666 11.6667L4.39997 4.4ZM12.48 12.48C11.6711 13.2889 10.7222 13.8356 9.6333 14.12C8.54441 14.4044 7.45552 14.4044 6.36663 14.12C5.27774 13.8356 4.32886 13.2889 3.51997 12.48C2.71108 11.6711 2.16441 10.7222 1.87997 9.63333C1.59552 8.54444 1.59552 7.45555 1.87997 6.36666C2.16441 5.27777 2.71108 4.32889 3.51997 3.52C4.32886 2.71111 5.27774 2.16444 6.36663 1.88C7.45552 1.59555 8.54441 1.59555 9.6333 1.88C10.7222 2.16444 11.6711 2.71111 12.48 3.52C13.2889 4.32889 13.8355 5.27777 14.12 6.36666C14.4044 7.45555 14.4044 8.54444 14.12 9.63333C13.8355 10.7222 13.2889 11.6711 12.48 12.48ZM13.1866 13.1867C14.1244 12.2444 14.7577 11.1444 15.0866 9.88666C15.42 8.62889 15.42 7.37111 15.0866 6.11333C14.7577 4.85555 14.1244 3.75555 13.1866 2.81333C12.2444 1.87555 11.1444 1.24222 9.88663 0.91333C8.62886 0.579997 7.37108 0.579997 6.1133 0.91333C4.85552 1.24222 3.75552 1.87555 2.8133 2.81333C1.87552 3.75555 1.24219 4.85555 0.9133 6.11333C0.579966 7.37111 0.579966 8.62889 0.9133 9.88666C1.24219 11.1444 1.87552 12.2444 2.8133 13.1867C3.75552 14.1244 4.85552 14.7578 6.1133 15.0867C7.37108 15.42 8.62886 15.42 9.88663 15.0867C11.1444 14.7578 12.2444 14.1244 13.1866 13.1867ZM3.48663 2.78666L2.7533 3.45333L12.4133 13.12L13.1333 12.4333L3.48663 2.78666Z" fill="rgb(60,60,60)" fill-rule="nonzero" />
	</g>
</svg>
