<svg width="24.000000" height="24.000000" viewBox="0 0 24 24" fill="none" xmlns="http://www.w3.org/2000/svg" xmlns:xlink="http://www.w3.org/1999/xlink">
	<desc>
			Created with Pixso.
	</desc>
	<defs>
		<clipPath id="clip918_45075">
			<rect id="chevron_up" width="24.000000" height="24.000000" fill="white" fill-opacity="0"/>
		</clipPath>
	</defs>
	<g clip-path="url(#clip918_45075)">
		<path id="path" d="M18.79 15.53C18.93 15.38 19.01 15.2 19.01 15C19.01 14.79 18.93 14.61 18.79 14.47L12.82 8.57C12.59 8.34 12.32 8.22 12.01 8.22C11.69 8.22 11.43 8.34 11.21 8.57L5.2 14.5C5.06 14.63 4.98 14.81 4.98 15.02C4.98 15.23 5.06 15.4 5.2 15.55C5.37 15.69 5.55 15.77 5.76 15.77C5.96 15.77 6.14 15.69 6.28 15.55L12 9.88L17.7 15.53C17.87 15.68 18.04 15.77 18.25 15.77C18.45 15.77 18.62 15.68 18.79 15.53Z" fill="#FFFFFF" fill-opacity="0.898039" fill-rule="nonzero"/>
	</g>
</svg>
