<?xml version="1.0" encoding="UTF-8"?>
<svg width="24px" height="24px" viewBox="0 0 24 24" version="1.1" xmlns="http://www.w3.org/2000/svg" xmlns:xlink="http://www.w3.org/1999/xlink">
    <title>ic/ic_camera_public_flash_m</title>
    <g id="ic/ic_camera_public_flash_m" stroke="none" stroke-width="1" fill="none" fill-rule="evenodd">
        <path d="M7.78580836,1.05514391 C8.15612262,1.20520813 8.34146997,1.61722976 8.21464122,1.99065913 L8.199258,2.0319772 L4.86605068,10.2501984 L12.2559109,10.2501984 C12.7759055,10.2501984 13.1335605,10.7638328 12.9647743,11.2462029 L12.9490092,11.2874596 L9.26426316,20.168 L10.5975025,20.6790438 C10.7908638,20.753237 10.8874686,20.9701328 10.8132754,21.163494 C10.7811926,21.2471078 10.7202451,21.3164789 10.6414574,21.359059 L7.68707092,22.9557313 C7.50487017,23.0542001 7.27734254,22.9863219 7.17887374,22.8041211 C7.16976237,22.787262 7.16195673,22.7697292 7.15552543,22.7516769 L6.02882053,19.5890798 C5.95931587,19.3939842 6.06112749,19.1794832 6.25622317,19.1099785 C6.34054745,19.0799372 6.43283653,19.0810511 6.51641117,19.1131189 L7.86326316,19.63 L11.1321879,11.7501984 L3.75233194,11.7501984 C3.23480487,11.7501984 2.87729067,11.2410383 3.04161361,10.7596048 L3.05698484,10.7184195 L6.80856378,1.46841953 C6.96425146,1.08455156 7.40177876,0.899521763 7.78580836,1.05514391 Z M21.1616924,13.2725731 L22.4816924,13.2725731 L22.4816924,22.0565731 L20.8256924,22.0565731 L20.8256924,16.3925731 L18.5936924,19.7165731 L17.6816924,19.7165731 L15.4376924,16.3685731 L15.4376924,22.0565731 L13.7936924,22.0565731 L13.7936924,13.2725731 L15.1736924,13.2725731 L18.1736924,17.8205731 L21.1616924,13.2725731 Z" id="形状结合" fill="#FFFFFF" fill-rule="nonzero"></path>
    </g>
</svg>