<?xml version="1.0" encoding="UTF-8"?>
<svg width="24px" height="24px" viewBox="0 0 24 24" version="1.1" xmlns="http://www.w3.org/2000/svg" xmlns:xlink="http://www.w3.org/1999/xlink">
    <title>ic/ic_camera_public_flash_auto15</title>
    <g id="ic/ic_camera_public_flash_auto15" stroke="none" stroke-width="1" fill="none" fill-rule="evenodd">
        <path d="M7.78580836,1.05514391 C8.15612262,1.20520813 8.34146997,1.61722976 8.21464122,1.99065913 L8.199258,2.0319772 L4.86605068,10.2501984 L12.2559109,10.2501984 C12.7759055,10.2501984 13.1335605,10.7638328 12.9647743,11.2462029 L12.9490092,11.2874596 L9.26426316,20.168 L10.5975025,20.6790438 C10.7908638,20.753237 10.8874686,20.9701328 10.8132754,21.163494 C10.7811926,21.2471078 10.7202451,21.3164789 10.6414574,21.359059 L7.68707092,22.9557313 C7.50487017,23.0542001 7.27734254,22.9863219 7.17887374,22.8041211 C7.16976237,22.787262 7.16195673,22.7697292 7.15552543,22.7516769 L6.02882053,19.5890798 C5.95931587,19.3939842 6.06112749,19.1794832 6.25622317,19.1099785 C6.34054745,19.0799372 6.43283653,19.0810511 6.51641117,19.1131189 L7.86326316,19.63 L11.1321879,11.7501984 L3.75233194,11.7501984 C3.23480487,11.7501984 2.87729067,11.2410383 3.04161361,10.7596048 L3.05698484,10.7184195 L6.80856378,1.46841953 C6.96425146,1.08455156 7.40177876,0.899521763 7.78580836,1.05514391 Z M22.825153,13.1165731 L22.825153,14.6045731 L19.681153,14.6045731 L19.441153,16.4165731 C19.785153,16.2725731 20.141153,16.2005731 20.509153,16.2005731 C21.013153,16.2005731 21.473153,16.3185731 21.889153,16.5545731 C22.305153,16.7905731 22.633153,17.1265731 22.873153,17.5625731 C23.113153,17.9985731 23.233153,18.5005731 23.233153,19.0685731 C23.233153,19.6845731 23.099153,20.2185731 22.831153,20.6705731 C22.563153,21.1225731 22.197153,21.4665731 21.733153,21.7025731 C21.269153,21.9385731 20.757153,22.0565731 20.197153,22.0565731 C19.533153,22.0565731 18.959153,21.9045731 18.475153,21.6005731 C17.991153,21.2965731 17.649153,20.8365731 17.449153,20.2205731 L18.853153,19.4165731 C18.957153,19.7765731 19.125153,20.0485731 19.357153,20.2325731 C19.589153,20.4165731 19.861153,20.5085731 20.173153,20.5085731 C20.565153,20.5085731 20.867153,20.3785731 21.079153,20.1185731 C21.291153,19.8585731 21.397153,19.5285731 21.397153,19.1285731 C21.397153,18.7285731 21.287153,18.3945731 21.067153,18.1265731 C20.847153,17.8585731 20.533153,17.7245731 20.125153,17.7245731 C19.597153,17.7245731 19.177153,17.9845731 18.865153,18.5045731 L17.617153,17.8925731 L18.217153,13.1165731 L22.825153,13.1165731 Z M16.545153,13.1165731 L16.545153,21.9125731 L14.781153,21.9125731 L14.781153,15.0365731 L12.501153,16.3085731 L12.501153,14.6405731 L15.189153,13.1165731 L16.545153,13.1165731 Z" id="形状结合" fill="#FFFFFF" fill-rule="nonzero"></path>
    </g>
</svg>