<svg width="24.000000" height="24.000000" viewBox="0 0 24 24" fill="none" xmlns="http://www.w3.org/2000/svg" xmlns:xlink="http://www.w3.org/1999/xlink">
	<desc>
			Created with Pixso.
	</desc>
	<defs>
		<filter id="filter_1_173_dd" x="-2.000000" y="-3.000000" width="27.400024" height="30.002563" filterUnits="userSpaceOnUse" color-interpolation-filters="sRGB">
			<feFlood flood-opacity="0" result="BackgroundImageFix"/>
			<feColorMatrix in="SourceAlpha" type="matrix" values="0 0 0 0 0 0 0 0 0 0 0 0 0 0 0 0 0 0 127 0" result="hardAlpha"/>
			<feOffset dx="0" dy="0"/>
			<feGaussianBlur stdDeviation="1.33333"/>
			<feComposite in2="hardAlpha" operator="out" k2="-1" k3="1"/>
			<feColorMatrix type="matrix" values="0 0 0 0 0 0 0 0 0 0 0 0 0 0 0 0 0 0 0.2 0"/>
			<feBlend mode="normal" in2="BackgroundImageFix" result="effect_dropShadow_1"/>
			<feBlend mode="normal" in="SourceGraphic" in2="effect_dropShadow_1" result="shape"/>
		</filter>
		<clipPath id="clip1_172">
			<rect id="FLASH OFF备份 9" width="24.000000" height="24.000000" fill="white" fill-opacity="0"/>
		</clipPath>
	</defs>
	<rect id="FLASH OFF备份 9" width="24.000000" height="24.000000" fill="#FFFFFF" fill-opacity="0"/>
	<g clip-path="url(#clip1_172)">
		<g filter="url(#filter_1_173_dd)">
			<path id="形状结合" d="M10.1035 7.19666L8.9364 6.02881L10.8 1.45996C10.8358 1.37646 10.883 1.30359 10.9415 1.24133L10.9415 1.24133L10.9416 1.24133C11.0138 1.16467 11.1033 1.10413 11.21 1.06006C11.4033 0.97998 11.5933 0.97998 11.78 1.06006C11.8868 1.10413 11.9763 1.16467 12.0485 1.24133L12.0485 1.24133L12.0485 1.24133C12.107 1.30359 12.1542 1.37646 12.19 1.45996C12.23 1.55664 12.25 1.65332 12.25 1.74988L12.25 1.75C12.25 1.84668 12.23 1.94336 12.19 2.04004L10.1035 7.19666ZM2.06201 2.43909C2.09851 2.35876 2.15118 2.28564 2.21997 2.21997C2.29425 2.14575 2.37616 2.09033 2.46576 2.05359C2.55322 2.01782 2.64795 2 2.75 2C2.85205 2 2.94678 2.01782 3.03424 2.05359C3.12384 2.09033 3.20575 2.14575 3.28003 2.21997L21.18 20.12C21.3267 20.28 21.4 20.4634 21.4 20.67C21.4 20.8767 21.3267 21.0533 21.18 21.2C21.0533 21.3267 20.8933 21.3933 20.7 21.4C20.5067 21.4133 20.34 21.3633 20.2 21.25L20.12 21.2L2.21997 3.27002C2.15869 3.21143 2.11017 3.14648 2.07446 3.07507C2.02484 2.97583 2 2.86414 2 2.73999C2 2.63025 2.02069 2.53003 2.06201 2.43909ZM7.25964 10.1396L7.08002 10.58C6.98669 10.84 6.94336 11.0566 6.95001 11.23C6.95667 11.41 7.00665 11.5433 7.09998 11.63C7.11359 11.6417 7.12769 11.6527 7.1424 11.6628L7.14246 11.663L7.14246 11.663C7.2359 11.7277 7.35175 11.76 7.48999 11.76L8.88 11.76L7.25964 10.1396ZM15 12.0958L15.14 11.76L14.6643 11.76L13.1752 10.27L16.51 10.27C16.69 10.27 16.8267 10.3199 16.92 10.42C17.0133 10.5133 17.0566 10.6533 17.05 10.84C17.0433 11.02 16.9933 11.2234 16.9 11.45L16.1509 13.2474L15 12.0958ZM13.2985 16.1785L11.86 19.63L10.51 19.1C10.4167 19.0734 10.32 19.08 10.22 19.12C10.1266 19.16 10.0634 19.2234 10.03 19.3101C10.0178 19.3418 10.0101 19.3739 10.0068 19.4066L10.0068 19.4067C10.0012 19.4631 10.0089 19.5209 10.03 19.58L11.14 22.73C11.1866 22.8567 11.26 22.9399 11.36 22.98C11.4667 23.02 11.5767 23.0067 11.69 22.9399L14.64 21.36C14.72 21.3134 14.7767 21.24 14.81 21.14C14.8433 21.0466 14.84 20.9567 14.8 20.87C14.76 20.7833 14.69 20.7234 14.59 20.6899L13.27 20.16L14.4496 17.3296L13.2985 16.1785Z" clip-rule="evenodd" fill="#FFFFFF" fill-opacity="1.000000" fill-rule="evenodd"/>
		</g>
	</g>
</svg>
