<?xml version="1.0" encoding="UTF-8"?>
<svg width="24px" height="24px" viewBox="0 0 24 24" version="1.1" xmlns="http://www.w3.org/2000/svg" xmlns:xlink="http://www.w3.org/1999/xlink">
    <title>ic/ic_camera_public_flash_auto5</title>
    <g id="ic/ic_camera_public_flash_auto5" stroke="none" stroke-width="1" fill="none" fill-rule="evenodd">
        <path d="M7.78580836,1.05514391 C8.15612262,1.20520813 8.34146997,1.61722976 8.21464122,1.99065913 L8.199258,2.0319772 L4.86605068,10.2501984 L12.2559109,10.2501984 C12.7759055,10.2501984 13.1335605,10.7638328 12.9647743,11.2462029 L12.9490092,11.2874596 L9.26426316,20.168 L10.5975025,20.6790438 C10.7908638,20.753237 10.8874686,20.9701328 10.8132754,21.163494 C10.7811926,21.2471078 10.7202451,21.3164789 10.6414574,21.359059 L7.68707092,22.9557313 C7.50487017,23.0542001 7.27734254,22.9863219 7.17887374,22.8041211 C7.16976237,22.787262 7.16195673,22.7697292 7.15552543,22.7516769 L6.02882053,19.5890798 C5.95931587,19.3939842 6.06112749,19.1794832 6.25622317,19.1099785 C6.34054745,19.0799372 6.43283653,19.0810511 6.51641117,19.1131189 L7.86326316,19.63 L11.1321879,11.7501984 L3.75233194,11.7501984 C3.23480487,11.7501984 2.87729067,11.2410383 3.04161361,10.7596048 L3.05698484,10.7184195 L6.80856378,1.46841953 C6.96425146,1.08455156 7.40177876,0.899521763 7.78580836,1.05514391 Z M17.0688705,16.2785731 C17.5728705,16.2785731 18.0328705,16.3965731 18.4488705,16.6325731 C18.8648705,16.8685731 19.1928705,17.2045731 19.4328705,17.6405731 C19.6728705,18.0765731 19.7928705,18.5785731 19.7928705,19.1465731 C19.7928705,19.7625731 19.6588705,20.2965731 19.3908705,20.7485731 C19.1228705,21.2005731 18.7568705,21.5445731 18.2928705,21.7805731 C17.8288705,22.0165731 17.3168705,22.1345731 16.7568705,22.1345731 C16.0928705,22.1345731 15.5188705,21.9825731 15.0348705,21.6785731 C14.5508705,21.3745731 14.2088705,20.9145731 14.0088705,20.2985731 L15.4128705,19.4945731 C15.5168705,19.8545731 15.6848705,20.1265731 15.9168705,20.3105731 C16.1488705,20.4945731 16.4208705,20.5865731 16.7328705,20.5865731 C17.1248705,20.5865731 17.4268705,20.4565731 17.6388705,20.1965731 C17.8508705,19.9365731 17.9568705,19.6065731 17.9568705,19.2065731 C17.9568705,18.8065731 17.8468705,18.4725731 17.6268705,18.2045731 C17.4068705,17.9365731 17.0928705,17.8025731 16.6848705,17.8025731 C16.1568705,17.8025731 15.7368705,18.0625731 15.4248705,18.5825731 L14.1768705,17.9705731 L14.7768705,13.1945731 L19.3848705,13.1945731 L19.3848705,14.6825731 L16.2408705,14.6825731 L16.0008705,16.4945731 C16.3448705,16.3505731 16.7008705,16.2785731 17.0688705,16.2785731 Z" id="形状结合" fill="#FFFFFF" fill-rule="nonzero"></path>
    </g>
</svg>