<?xml version="1.0" encoding="UTF-8"?>
<svg width="24px" height="24px" viewBox="0 0 24 24" version="1.1" xmlns="http://www.w3.org/2000/svg" xmlns:xlink="http://www.w3.org/1999/xlink">
    <title>ic/ic_camera_public_flash_auto10</title>
    <g id="ic/ic_camera_public_flash_auto10" stroke="none" stroke-width="1" fill="none" fill-rule="evenodd">
        <path d="M7.78580836,1.05514391 C8.15612262,1.20520813 8.34146997,1.61722976 8.21464122,1.99065913 L8.199258,2.0319772 L4.86605068,10.2501984 L12.2559109,10.2501984 C12.7759055,10.2501984 13.1335605,10.7638328 12.9647743,11.2462029 L12.9490092,11.2874596 L9.26426316,20.168 L10.5975025,20.6790438 C10.7908638,20.753237 10.8874686,20.9701328 10.8132754,21.163494 C10.7811926,21.2471078 10.7202451,21.3164789 10.6414574,21.359059 L7.68707092,22.9557313 C7.50487017,23.0542001 7.27734254,22.9863219 7.17887374,22.8041211 C7.16976237,22.787262 7.16195673,22.7697292 7.15552543,22.7516769 L6.02882053,19.5890798 C5.95931587,19.3939842 6.06112749,19.1794832 6.25622317,19.1099785 C6.34054745,19.0799372 6.43283653,19.0810511 6.51641117,19.1131189 L7.86326316,19.63 L11.1321879,11.7501984 L3.75233194,11.7501984 C3.23480487,11.7501984 2.87729067,11.2410383 3.04161361,10.7596048 L3.05698484,10.7184195 L6.80856378,1.46841953 C6.96425146,1.08455156 7.40177876,0.899521763 7.78580836,1.05514391 Z M19.9065809,13.1165731 C20.8985809,13.1165731 21.6625809,13.5045731 22.1985809,14.2805731 C22.7345809,15.0565731 23.0025809,16.1885731 23.0025809,17.6765731 C23.0025809,19.1565731 22.7345809,20.2825731 22.1985809,21.0545731 C21.6625809,21.8265731 20.8985809,22.2125731 19.9065809,22.2125731 C18.9145809,22.2125731 18.1485809,21.8265731 17.6085809,21.0545731 C17.0685809,20.2825731 16.7985809,19.1565731 16.7985809,17.6765731 C16.7985809,16.1885731 17.0685809,15.0565731 17.6085809,14.2805731 C18.1485809,13.5045731 18.9145809,13.1165731 19.9065809,13.1165731 Z M16.1825809,13.2725731 L16.1825809,22.0685731 L14.4185809,22.0685731 L14.4185809,15.1925731 L12.1385809,16.4645731 L12.1385809,14.7965731 L14.8265809,13.2725731 L16.1825809,13.2725731 Z M19.9065809,14.7125731 C19.4745809,14.7125731 19.1565809,14.9545731 18.9525809,15.4385731 C18.7485809,15.9225731 18.6465809,16.6685731 18.6465809,17.6765731 C18.6465809,18.6685731 18.7485809,19.4065731 18.9525809,19.8905731 C19.1565809,20.3745731 19.4745809,20.6165731 19.9065809,20.6165731 C20.3385809,20.6165731 20.6545809,20.3745731 20.8545809,19.8905731 C21.0545809,19.4065731 21.1545809,18.6685731 21.1545809,17.6765731 C21.1545809,16.6765731 21.0545809,15.9325731 20.8545809,15.4445731 C20.6545809,14.9565731 20.3385809,14.7125731 19.9065809,14.7125731 Z" id="形状结合" fill="#FFFFFF" fill-rule="nonzero"></path>
    </g>
</svg>