<?xml version="1.0" encoding="UTF-8"?>
<svg width="24px" height="24px" viewBox="0 0 24 24" version="1.1" xmlns="http://www.w3.org/2000/svg" xmlns:xlink="http://www.w3.org/1999/xlink">
    <title>lock_open</title>
    <defs>
        <path d="M10.75,9.05 L10.75,6.05 C10.75,5.23 10.55,4.47666667 10.15,3.79 C9.75,3.10333333 9.20666667,2.56 8.52,2.16 C7.83333333,1.76 7.08,1.56 6.26,1.56 C5.44666667,1.56 4.69666667,1.76 4.01,2.16 C3.32333333,2.56 2.77333333,3.10333333 2.36,3.79 C1.95333333,4.47666667 1.75,5.23 1.75,6.05 L1.75,8.11 C1.75,8.31666667 1.82666667,8.49333333 1.98,8.64 C2.13333333,8.78666667 2.31333333,8.86 2.52,8.86 C2.71333333,8.86 2.88666667,8.78666667 3.04,8.64 C3.18666667,8.49333333 3.26,8.31666667 3.26,8.11 L3.26,6.05 C3.26,5.50333333 3.39666667,5.00333333 3.67,4.55 C3.94333333,4.09 4.30666667,3.72666667 4.76,3.46 C5.22,3.18666667 5.72,3.05 6.26,3.05 C6.80666667,3.05 7.30666667,3.18666667 7.76,3.46 C8.22,3.72666667 8.58666667,4.09 8.86,4.55 C9.12666667,5.00333333 9.26,5.50333333 9.26,6.05 L9.26,9.05 L8.02,9.05 C7.50666667,9.05 7.03666667,9.17333333 6.61,9.42 C6.19,9.66666667 5.85333333,10.0033333 5.6,10.43 C5.35333333,10.85 5.23,11.31 5.23,11.81 L5.23,19.66 C5.23,20.1533333 5.35333333,20.6166667 5.6,21.05 C5.85333333,21.4833333 6.19333333,21.8233333 6.62,22.07 C7.05333333,22.3166667 7.52,22.44 8.02,22.44 L19.44,22.44 C19.9533333,22.44 20.4266667,22.3166667 20.86,22.07 C21.2866667,21.8233333 21.6266667,21.4866667 21.88,21.06 C22.1266667,20.6333333 22.25,20.1666667 22.25,19.66 L22.25,11.81 C22.25,11.31 22.1266667,10.85 21.88,10.43 C21.6266667,10.0033333 21.2866667,9.66666667 20.86,9.42 C20.4266667,9.17333333 19.9533333,9.05 19.44,9.05 L10.75,9.05 Z M20.74,19.66 C20.74,20.0066667 20.61,20.31 20.35,20.57 C20.0966667,20.8233333 19.7933333,20.95 19.44,20.95 L8.02,20.95 C7.66666667,20.95 7.36,20.8233333 7.1,20.57 C6.84666667,20.31 6.72,20.0066667 6.72,19.66 L6.72,11.81 C6.72,11.4566667 6.84666667,11.1566667 7.1,10.91 C7.36,10.6633333 7.66666667,10.54 8.02,10.54 L19.46,10.54 C19.8133333,10.54 20.12,10.6633333 20.38,10.91 C20.6333333,11.1566667 20.76,11.4566667 20.76,11.81 L20.74,19.66 Z M13.75,13.9 C13.2366667,13.9 12.8,14.08 12.44,14.44 C12.08,14.8 11.9,15.2333333 11.9,15.74 C11.9,16.2533333 12.08,16.69 12.44,17.05 C12.8,17.41 13.2366667,17.59 13.75,17.59 C14.25,17.59 14.68,17.41 15.04,17.05 C15.4,16.69 15.58,16.2533333 15.58,15.74 C15.58,15.2333333 15.4,14.8 15.04,14.44 C14.68,14.08 14.25,13.9 13.75,13.9 Z" id="path-1"></path>
        <filter x="-22.0%" y="-21.6%" width="143.9%" height="143.1%" filterUnits="objectBoundingBox" id="filter-2">
            <feOffset dx="0" dy="0" in="SourceAlpha" result="shadowOffsetOuter1"></feOffset>
            <feGaussianBlur stdDeviation="1.5" in="shadowOffsetOuter1" result="shadowBlurOuter1"></feGaussianBlur>
            <feColorMatrix values="0 0 0 0 0   0 0 0 0 0   0 0 0 0 0  0 0 0 0.2 0" type="matrix" in="shadowBlurOuter1"></feColorMatrix>
        </filter>
    </defs>
    <g id="lock_open" stroke="none" stroke-width="1" fill="none" fill-rule="evenodd">
        <g id="形状" fill-rule="nonzero">
            <use fill="black" fill-opacity="1" filter="url(#filter-2)" xlink:href="#path-1"></use>
            <use fill="#FFFFFF" xlink:href="#path-1"></use>
        </g>
    </g>
</svg>