<?xml version="1.0" encoding="UTF-8"?>
<svg width="24px" height="24px" viewBox="0 0 24 24" version="1.1" xmlns="http://www.w3.org/2000/svg" xmlns:xlink="http://www.w3.org/1999/xlink">
    <title>lock </title>
    <defs>
        <path d="M16.51,9.05 L16.51,6.05 C16.51,5.23 16.3066667,4.47666667 15.9,3.79 C15.4933333,3.10333333 14.9466667,2.56 14.26,2.16 C13.5666667,1.76 12.8133333,1.56 12,1.56 C11.1866667,1.56 10.4333333,1.76 9.74,2.16 C9.05333333,2.56 8.51,3.10333333 8.11,3.79 C7.71,4.47666667 7.51,5.23 7.51,6.05 L7.51,9.05 L6.29,9.05 C5.77666667,9.05 5.30666667,9.17333333 4.88,9.42 C4.46,9.66666667 4.12666667,10.0033333 3.88,10.43 C3.62666667,10.85 3.5,11.31 3.5,11.81 L3.5,19.66 C3.5,20.1666667 3.62666667,20.6333333 3.88,21.06 C4.12666667,21.4866667 4.46,21.8233333 4.88,22.07 C5.30666667,22.3166667 5.77666667,22.44 6.29,22.44 L17.71,22.44 C18.21,22.44 18.6733333,22.3166667 19.1,22.07 C19.5333333,21.8233333 19.8733333,21.4833333 20.12,21.05 C20.3733333,20.6166667 20.5,20.1533333 20.5,19.66 L20.5,11.81 C20.5,11.31 20.3733333,10.85 20.12,10.43 C19.8733333,10.0033333 19.54,9.66666667 19.12,9.42 C18.6933333,9.17333333 18.2233333,9.05 17.71,9.05 L16.51,9.05 Z M9,6.05 C9,5.50333333 9.13666667,5.00333333 9.41,4.55 C9.68333333,4.09 10.0466667,3.72666667 10.5,3.46 C10.9533333,3.18666667 11.4533333,3.05 12,3.05 C12.5466667,3.05 13.0466667,3.18666667 13.5,3.46 C13.9533333,3.72666667 14.3166667,4.09 14.59,4.55 C14.8633333,5.00333333 15,5.50333333 15,6.05 L15,9.05 L9,9.05 L9,6.05 Z M19.01,19.66 C19.01,20.0066667 18.88,20.31 18.62,20.57 C18.3666667,20.8233333 18.0633333,20.95 17.71,20.95 L6.29,20.95 C5.93666667,20.95 5.63333333,20.8233333 5.38,20.57 C5.12,20.31 4.99,20.0066667 4.99,19.66 L4.99,11.81 C4.99,11.4566667 5.12,11.1566667 5.38,10.91 C5.63333333,10.6633333 5.93666667,10.54 6.29,10.54 L7.51,10.54 L16.51,10.54 L17.71,10.54 C18.0633333,10.54 18.3666667,10.6633333 18.62,10.91 C18.88,11.1566667 19.01,11.4566667 19.01,11.81 L19.01,19.66 Z M12,13.9 C11.5066667,13.9 11.0733333,14.08 10.7,14.44 C10.3333333,14.8 10.15,15.2333333 10.15,15.74 C10.15,16.24 10.3333333,16.6733333 10.7,17.04 C11.0733333,17.4066667 11.5066667,17.59 12,17.59 C12.5133333,17.59 12.95,17.4066667 13.31,17.04 C13.67,16.6733333 13.85,16.24 13.85,15.74 C13.85,15.2333333 13.67,14.8 13.31,14.44 C12.95,14.08 12.5133333,13.9 12,13.9 Z" id="path-1"></path>
        <filter x="-26.5%" y="-21.6%" width="152.9%" height="143.1%" filterUnits="objectBoundingBox" id="filter-2">
            <feOffset dx="0" dy="0" in="SourceAlpha" result="shadowOffsetOuter1"></feOffset>
            <feGaussianBlur stdDeviation="1.5" in="shadowOffsetOuter1" result="shadowBlurOuter1"></feGaussianBlur>
            <feColorMatrix values="0 0 0 0 0   0 0 0 0 0   0 0 0 0 0  0 0 0 0.2 0" type="matrix" in="shadowBlurOuter1"></feColorMatrix>
        </filter>
    </defs>
    <g id="lock-" stroke="none" stroke-width="1" fill="none" fill-rule="evenodd">
        <g id="形状" fill-rule="nonzero">
            <use fill="black" fill-opacity="1" filter="url(#filter-2)" xlink:href="#path-1"></use>
            <use fill="#FFFFFF" xlink:href="#path-1"></use>
        </g>
    </g>
</svg>