<?xml version="1.0" encoding="UTF-8"?>
<svg width="24px"
     height="24px"
     viewBox="0 0 24 24"
     version="1.1"
     xmlns="http://www.w3.org/2000/svg"
     xmlns:xlink="http://www.w3.org/1999/xlink">
    <title>ic/ic_camera_setting_smile_capture</title>
    <g
            id="ic/ic_camera_setting_smile_capture"
            stroke="none"
            stroke-width="1"
            fill="none"
            fill-rule="evenodd">
        <path
                d="M12,1C18.078,1 23.005,5.925 23.005,12C23.005,18.075 18.078,23 12,23C5.922,23 0.995,18.075 0.995,12C0.995,5.925 5.922,1 12,1ZM12,2.5C6.751,2.5 2.495,6.753 2.495,12C2.495,17.247 6.751,21.5 12,21.5C17.249,21.5 21.505,17.247 21.505,12C21.505,6.753 17.249,2.5 12,2.5ZM7.79,14.682C8.553,16.298 10.181,17.35 12,17.35C13.818,17.35 15.445,16.299 16.209,14.685C16.386,14.31 16.833,14.15 17.207,14.327C17.582,14.504 17.742,14.952 17.565,15.326C16.555,17.46 14.403,18.85 12,18.85C9.595,18.85 7.442,17.458 6.434,15.323C6.257,14.948 6.417,14.501 6.792,14.324C7.166,14.147 7.613,14.308 7.79,14.682ZM8.398,7.15C9.862,7.15 11.049,8.336 11.049,9.8C11.049,10.214 10.713,10.55 10.299,10.55C9.92,10.55 9.606,10.268 9.556,9.902L9.549,9.8C9.549,9.165 9.034,8.65 8.398,8.65C7.805,8.65 7.317,9.099 7.254,9.675L7.248,9.8C7.248,10.214 6.912,10.55 6.498,10.55C6.083,10.55 5.748,10.214 5.748,9.8C5.748,8.336 6.935,7.15 8.398,7.15ZM15.602,7.15C17.065,7.15 18.252,8.336 18.252,9.8C18.252,10.214 17.917,10.55 17.502,10.55C17.123,10.55 16.809,10.268 16.759,9.902L16.752,9.8C16.752,9.165 16.237,8.65 15.602,8.65C15.008,8.65 14.52,9.099 14.457,9.675L14.451,9.8C14.451,10.214 14.115,10.55 13.701,10.55C13.287,10.55 12.951,10.214 12.951,9.8C12.951,8.336 14.138,7.15 15.602,7.15Z"
                id="形状结合"
                fill="#FFFFFF"
                fill-rule="nonzero"></path>
    </g>
</svg>