<?xml version="1.0" encoding="UTF-8"?>
<svg width="28px" height="27px" viewBox="0 0 28 27" version="1.1" xmlns="http://www.w3.org/2000/svg" xmlns:xlink="http://www.w3.org/1999/xlink">
    <title>形状结合 3</title>
    <defs>
        <path d="M14,21.5 C14.42,21.5 14.76,21.83 14.76,22.25 L14.76,23.25 C14.76,23.66 14.42,24 14,24 C13.57,24 13.23,23.66 13.23,23.25 L13.23,22.25 C13.23,21.83 13.57,21.5 14,21.5 Z M20.87,19.15 L21.77,20.04 C22.07,20.33 22.07,20.8 21.77,21.1 C21.47,21.39 20.99,21.39 20.69,21.1 L19.78,20.21 C19.48,19.92 19.48,19.44 19.78,19.15 C20.08,18.86 20.57,18.86 20.87,19.15 Z M8.21,19.15 C8.51,19.44 8.51,19.92 8.21,20.21 L7.3,21.1 C7,21.39 6.52,21.39 6.22,21.1 C5.92,20.8 5.92,20.33 6.22,20.04 L7.12,19.15 C7.42,18.86 7.91,18.86 8.21,19.15 Z M14,6.5 C17.95,6.5 21.16,9.63 21.16,13.5 C21.16,17.36 17.95,20.5 14,20.5 C10.04,20.5 6.83,17.36 6.83,13.5 C6.83,9.63 10.04,6.5 14,6.5 Z M14,8 C10.89,8 8.37,10.46 8.37,13.5 C8.37,16.53 10.89,19 14,19 C17.1,19 19.62,16.53 19.62,13.5 C19.62,10.46 17.1,8 14,8 Z M5.04,12.75 C5.47,12.75 5.81,13.08 5.81,13.5 C5.81,13.91 5.47,14.25 5.04,14.25 L3.76,14.25 C3.34,14.25 3,13.91 3,13.5 C3,13.08 3.34,12.75 3.76,12.75 L5.04,12.75 Z M24.23,12.75 C24.65,12.75 25,13.08 25,13.5 C25,13.91 24.65,14.25 24.23,14.25 L22.95,14.25 C22.52,14.25 22.18,13.91 22.18,13.5 C22.18,13.08 22.52,12.75 22.95,12.75 L24.23,12.75 Z M7.3,5.89 L8.21,6.78 C8.51,7.07 8.51,7.55 8.21,7.84 C7.91,8.13 7.42,8.13 7.12,7.84 L6.22,6.95 C5.92,6.66 5.92,6.19 6.22,5.89 C6.52,5.6 7,5.6 7.3,5.89 Z M21.77,5.89 C22.07,6.19 22.07,6.66 21.77,6.95 L20.87,7.84 C20.57,8.13 20.08,8.13 19.78,7.84 C19.48,7.55 19.48,7.07 19.78,6.78 L20.69,5.89 C20.99,5.6 21.47,5.6 21.77,5.89 Z M14,3 C14.42,3 14.76,3.33 14.76,3.75 L14.76,4.75 C14.76,5.16 14.42,5.5 14,5.5 C13.57,5.5 13.23,5.16 13.23,4.75 L13.23,3.75 C13.23,3.33 13.57,3 14,3 Z" id="path-1"></path>
        <filter x="-20.5%" y="-21.4%" width="140.9%" height="142.9%" filterUnits="objectBoundingBox" id="filter-2">
            <feOffset dx="0" dy="0" in="SourceAlpha" result="shadowOffsetOuter1"></feOffset>
            <feGaussianBlur stdDeviation="1.5" in="shadowOffsetOuter1" result="shadowBlurOuter1"></feGaussianBlur>
            <feColorMatrix values="0 0 0 0 0   0 0 0 0 0   0 0 0 0 0  0 0 0 0.2 0" type="matrix" in="shadowBlurOuter1"></feColorMatrix>
        </filter>
    </defs>
    <g id="页面-1" stroke="none" stroke-width="1" fill="none" fill-rule="evenodd">
        <g id="形状结合" fill-rule="nonzero">
            <use fill="black" fill-opacity="1" filter="url(#filter-2)" xlink:href="#path-1"></use>
            <use fill="#FFFFFF" xlink:href="#path-1"></use>
        </g>
    </g>
</svg>