<svg width="24.000000" height="24.000000" viewBox="0 0 24 24" fill="none" xmlns="http://www.w3.org/2000/svg"
     xmlns:xlink="http://www.w3.org/1999/xlink">
    <desc>
        Created with Pixso.
    </desc>
    <defs>
        <clipPath id="clip51_6444">
            <rect id="JPG" width="24.000000" height="24.000000" fill="white" fill-opacity="0"/>
        </clipPath>
    </defs>
    <g clip-path="url(#clip51_6444)">
        <path id="合并"
              d="M16.8765 1C19.0854 1 20.8765 2.79089 20.8765 5L20.8765 8.07214L19.3765 8.07214L19.3765 5C19.3765 3.61926 18.2573 2.5 16.8765 2.5L6.87646 2.5C5.49561 2.5 4.37646 3.61926 4.37646 5L4.37646 8.07214L3.12402 8.07214C3.04053 8.07214 2.95801 8.07556 2.87646 8.08215L2.87646 5C2.87646 2.79089 4.66748 1 6.87646 1L16.8765 1ZM23.1235 11.0721C23.1235 9.96753 22.228 9.07214 21.1235 9.07214L3.12354 9.07214C2.01904 9.07214 1.12354 9.96753 1.12354 11.0721L1.12354 17.0721C1.12354 18.1768 2.01904 19.0721 3.12354 19.0721L21.1235 19.0721C22.228 19.0721 23.1235 18.1768 23.1235 17.0721L23.1235 11.0721ZM21.6235 11.0721C21.6235 10.796 21.3999 10.5721 21.1235 10.5721L3.12354 10.5721C2.84717 10.5721 2.62354 10.796 2.62354 11.0721L2.62354 17.0721C2.62354 17.3483 2.84717 17.5721 3.12354 17.5721L21.1235 17.5721C21.3999 17.5721 21.6235 17.3483 21.6235 17.0721L21.6235 11.0721ZM16.5859 13.7721L16.5859 14.6471L17.5503 14.6471L17.5503 15.4811Q17.5122 15.5182 17.4707 15.5507Q17.1748 15.7819 16.6982 15.7819Q16.2637 15.7819 15.9277 15.5995L15.9277 15.5994L15.9272 15.5991Q15.9028 15.5858 15.8789 15.5717C15.6436 15.4315 15.4619 15.231 15.3335 14.9701Q15.1431 14.577 15.1431 14.0455Q15.1431 13.5277 15.3301 13.1364C15.4565 12.8743 15.6284 12.6732 15.8467 12.5331Q15.9585 12.4617 16.0796 12.4144L16.0796 12.4144Q16.3149 12.3229 16.5859 12.3229C16.8472 12.3229 17.0732 12.385 17.2642 12.5092Q17.3667 12.576 17.4526 12.6604Q17.6055 12.8108 17.7036 13.0167L18.54 12.5331Q18.5063 12.4402 18.4609 12.3536L18.4609 12.3535Q18.2622 11.9764 17.8384 11.7179C17.4917 11.506 17.084 11.4 16.6147 11.4Q16.1118 11.4 15.6729 11.5677L15.6719 11.5682Q15.4961 11.6355 15.3301 11.7299C14.9438 11.9486 14.6401 12.2585 14.4189 12.6595Q14.0884 13.2611 14.0884 14.0455Q14.0884 14.8231 14.4087 15.4247C14.623 15.8257 14.9238 16.1384 15.3101 16.3629C15.6958 16.5862 16.1377 16.6979 16.6353 16.6979Q17.2642 16.6979 17.7837 16.4706C18.1299 16.3191 18.3823 16.1151 18.54 15.8588L18.54 13.7721L16.5859 13.7721ZM7.20801 16.6979Q6.69775 16.6979 6.31787 16.4753L6.31787 16.4753Q6.27637 16.4512 6.23682 16.4244Q6.15723 16.3708 6.08838 16.3062Q5.80664 16.0422 5.7002 15.5922L6.53857 15.1444Q6.62207 15.4589 6.78516 15.6144Q6.81885 15.6456 6.85596 15.6705Q7.00293 15.7682 7.21484 15.7682Q7.44824 15.7682 7.59082 15.6544L7.59131 15.6544Q7.66211 15.598 7.71045 15.5135Q7.85693 15.2572 7.85693 14.7172L7.85693 11.4906L8.86914 11.4906L8.86914 14.8163Q8.86914 15.816 8.40039 16.257Q8.26953 16.3809 8.11768 16.4698L8.11768 16.4701L8.11768 16.4701Q7.72949 16.6979 7.20801 16.6979ZM11.6465 11.4906Q12.2529 11.4906 12.7061 11.7008Q13.0698 11.8694 13.3008 12.1478Q13.3574 12.2167 13.4062 12.2921Q13.4453 12.3519 13.4785 12.4149L13.4785 12.415L13.4785 12.415L13.4785 12.4152L13.4785 12.4152Q13.6553 12.7535 13.6553 13.1842Q13.6553 13.5868 13.4966 13.912L13.4966 13.9121L13.4966 13.9121Q13.4565 13.9941 13.4062 14.0712C13.2417 14.3252 13.0083 14.5212 12.7061 14.6591Q12.2529 14.8641 11.6465 14.8641L10.8984 14.8641L10.8984 16.6141L9.88672 16.6141L9.88672 11.4906L11.6465 11.4906ZM11.5342 14.0028Q12.0093 14.0028 12.2939 13.7977Q12.3892 13.7289 12.4526 13.6379L12.4526 13.6379Q12.5801 13.4556 12.5801 13.1842Q12.5801 12.9193 12.458 12.7363L12.4575 12.7363Q12.3931 12.6394 12.2939 12.5656Q12.0093 12.3519 11.5342 12.3519L10.8984 12.3519L10.8984 14.0028L11.5342 14.0028ZM3.02148 20.0704C3.48926 21.7598 5.03809 23 6.87646 23L16.8765 23C18.7144 23 20.2627 21.7606 20.731 20.0721L19.1357 20.0721C18.7344 20.9164 17.8735 21.5 16.8765 21.5L6.87646 21.5C5.87939 21.5 5.01855 20.9164 4.61719 20.0721L3.12402 20.0721C3.08984 20.0721 3.05518 20.0715 3.02148 20.0704Z"
              clip-rule="evenodd" fill="#FFFFFF" fill-opacity="1.000000" fill-rule="evenodd"/>
    </g>
</svg>
