<svg width="32.000000" height="32.000000" viewBox="0 0 32 32" fill="none" xmlns="http://www.w3.org/2000/svg" xmlns:xlink="http://www.w3.org/1999/xlink">
    <desc>
        Created with Pixso.
    </desc>
    <defs>
        <clipPath id="clip3_106">
            <rect id="ic_collapser" width="32.000000" height="32.000000" fill="white" fill-opacity="0"/>
        </clipPath>
    </defs>
    <g clip-path="url(#clip3_106)">
        <circle id="椭圆形" cx="16.000000" cy="16.000000" r="16.000000" fill="#ED6F21" fill-opacity="1.000000"/>
        <circle id="椭圆形" cx="16.000000" cy="16.000000" r="16.000000" stroke="#000000" stroke-opacity="0" stroke-width="1.000000"/>
        <path id="path-1" d="M18.76 8.5C19.31 8.5 19.82 8.76 20.13 9.21L21.08 10.58L22.83 10.58C24.21 10.58 25.33 11.7 25.33 13.08L25.33 20.58C25.33 21.96 24.21 23.08 22.83 23.08L9.5 23.08C8.11 23.08 7 21.96 7 20.58L7 13.08C7 11.7 8.11 10.58 9.5 10.58L11.24 10.58L12.19 9.21C12.5 8.76 13.02 8.5 13.56 8.5L18.76 8.5ZM16.16 12.45C13.98 12.45 12.2 14.23 12.2 16.41C12.2 18.6 13.98 20.37 16.16 20.37C18.35 20.37 20.12 18.6 20.12 16.41C20.12 14.23 18.35 12.45 16.16 12.45ZM16.16 13.7C17.66 13.7 18.87 14.92 18.87 16.41C18.87 17.91 17.66 19.12 16.16 19.12C14.67 19.12 13.45 17.91 13.45 16.41C13.45 14.92 14.67 13.7 16.16 13.7Z" fill="#FFFFFF" fill-opacity="1.000000" fill-rule="nonzero"/>
    </g>
</svg>
