<svg width="24.000000" height="24.000000" viewBox="0 0 24 24" fill="none" xmlns="http://www.w3.org/2000/svg"
     xmlns:xlink="http://www.w3.org/1999/xlink">
    <desc>
        Created with Pixso.
    </desc>
    <defs>
        <clipPath id="clip51_5670">
            <rect id="heif2" width="24.000000" height="24.000000" fill="white" fill-opacity="0"/>
        </clipPath>
    </defs>
    <g clip-path="url(#clip51_5670)">
        <path id="合并"
              d="M16.8765 1C19.0854 1 20.8765 2.79089 20.8765 5L20.8765 8.07214L19.3765 8.07214L19.3765 5C19.3765 3.61926 18.2573 2.5 16.8765 2.5L6.87646 2.5C5.49561 2.5 4.37646 3.61926 4.37646 5L4.37646 8.07214L3.12402 8.07214C3.04053 8.07214 2.95801 8.07556 2.87646 8.08215L2.87646 5C2.87646 2.79089 4.66748 1 6.87646 1L16.8765 1ZM23.1235 11.0721C23.1235 9.96753 22.228 9.07214 21.1235 9.07214L3.12354 9.07214C2.01904 9.07214 1.12354 9.96753 1.12354 11.0721L1.12354 17.0721C1.12354 18.1768 2.01904 19.0721 3.12354 19.0721L21.1235 19.0721C22.228 19.0721 23.1235 18.1768 23.1235 17.0721L23.1235 11.0721ZM21.6235 11.0721C21.6235 10.796 21.3999 10.5721 21.1235 10.5721L3.12354 10.5721C2.84717 10.5721 2.62354 10.796 2.62354 11.0721L2.62354 17.0721C2.62354 17.3483 2.84717 17.5721 3.12354 17.5721L21.1235 17.5721C21.3999 17.5721 21.6235 17.3483 21.6235 17.0721L21.6235 11.0721ZM8.02588 13.5166L5.71533 13.5166L5.71533 11.5L4.7002 11.5L4.7002 16.6235L5.71533 16.6235L5.71533 14.4189L8.02588 14.4189L8.02588 16.6235L9.04785 16.6235L9.04785 11.5L8.02588 11.5L8.02588 13.5166ZM11.1401 14.4617L13.2202 14.4617L13.2202 13.5867L11.1401 13.5867L11.1401 12.3818L13.4644 12.3818L13.4644 11.5L10.125 11.5L10.125 16.6235L13.5415 16.6235L13.5415 15.7349L11.1401 15.7349L11.1401 14.4617ZM15.3965 16.6235L14.3813 16.6235L14.3813 11.5L15.3965 11.5L15.3965 16.6235ZM19.8066 11.5L16.4673 11.5L16.4673 16.6235L17.4824 16.6235L17.4824 14.5796L19.562 14.5796L19.562 13.6978L17.4824 13.6978L17.4824 12.3887L19.8066 12.3887L19.8066 11.5ZM3.02148 20.0704C3.48926 21.7598 5.03809 23 6.87646 23L16.8765 23C18.7144 23 20.2627 21.7606 20.731 20.0721L19.1357 20.0721C18.7344 20.9164 17.8735 21.5 16.8765 21.5L6.87646 21.5C5.87939 21.5 5.01855 20.9164 4.61719 20.0721L3.12402 20.0721C3.08984 20.0721 3.05518 20.0715 3.02148 20.0704Z"
              clip-rule="evenodd" fill="#FFFFFF" fill-opacity="1.000000" fill-rule="evenodd"/>
    </g>
</svg>
