<?xml version="1.0" encoding="UTF-8"?>
<svg width="24px" height="24px" viewBox="0 0 24 24" version="1.1" xmlns="http://www.w3.org/2000/svg" xmlns:xlink="http://www.w3.org/1999/xlink">
    <title>ic/ic_camera_setting_floating_shutter</title>
    <g id="ic/ic_camera_setting_floating_shutter" stroke="none" stroke-width="1" fill="none" fill-rule="evenodd">
        <path d="M9.93261973,7.42185033 C11.0725393,7.42185033 12.0005509,8.32913612 12.0339199,9.46098788 L12.034849,9.52409523 L12.0349007,12.9367001 C12.2256678,12.8797649 12.4278019,12.849185 12.6370783,12.849185 C13.4071116,12.849185 14.0804467,13.2631986 14.4466296,13.8807798 C14.7178657,13.7529681 15.0213414,13.6813825 15.3415369,13.6813825 C16.1205233,13.6813825 16.80055,14.1050796 17.1637361,14.7345995 C17.4320104,14.6103992 17.7309076,14.5410792 18.0459955,14.5410792 C19.1859151,14.5410792 20.1139267,15.448365 20.1472957,16.5802155 L20.1482248,16.6433228 L20.1482248,19.6958435 C20.1482248,20.110057 19.8123659,20.4458292 19.3981523,20.4458292 C18.9987321,20.4458292 18.672243,20.1335853 18.6494389,19.7398831 L18.6481666,19.6958149 L18.6482248,16.6433085 C18.6482248,16.3107064 18.3785975,16.0410792 18.0459955,16.0410792 C17.7266975,16.0410792 17.4654371,16.2895676 17.4450472,16.6037373 L17.4437662,16.6433374 L17.4436666,19.2276542 C17.4436546,19.6418677 17.1078585,19.9776325 16.6936449,19.9776325 C16.2942247,19.9776325 15.9677387,19.6653815 15.9449385,19.271679 L15.9436666,19.2276108 L15.9437662,15.7836118 C15.9437662,15.4510097 15.674139,15.1813825 15.3415369,15.1813825 C15.0222389,15.1813825 14.7609785,15.4298709 14.7405886,15.7440465 L14.7393076,15.7836473 L14.7391666,18.7594628 C14.7391523,19.1440897 14.4496105,19.4610692 14.0766048,19.5043896 L14.0331993,19.5081114 L13.9891388,19.509435 C13.5897186,19.509435 13.2632352,19.1971781 13.2404381,18.8034755 L13.2391666,18.7594072 L13.2393076,14.9514143 C13.2393076,14.6188123 12.9696804,14.349185 12.6370783,14.349185 C12.3177803,14.349185 12.05652,14.5976735 12.03613,14.9118538 L12.034849,14.9514553 L12.0346666,18.2916159 C12.0346595,18.6318628 11.8080833,18.9191808 11.4975837,19.0109447 L11.4565948,19.0216364 C11.4151778,19.0313505 11.3724387,19.037632 11.3286939,19.0401642 L11.284651,19.0416003 C11.2550643,19.0416003 11.2258778,19.039887 11.1971852,19.0365543 L11.1545036,19.0301804 C11.1404162,19.0277153 11.1264639,19.0248572 11.1126586,19.0216176 L11.0717196,19.010942 C10.9232215,18.9670513 10.7939215,18.8784276 10.6994234,18.7606773 L10.674511,18.7276651 L10.6606316,18.707607 L10.6606316,18.707607 C10.5886676,18.6000326 10.5438815,18.472784 10.5359388,18.3356529 L10.5346666,18.2915847 L10.534849,9.52407962 C10.534849,9.19147757 10.2652218,8.92185033 9.93261973,8.92185033 C9.61332175,8.92185033 9.35206137,9.17033879 9.33167142,9.48450078 L9.33039043,9.52409985 L9.33016659,17.8233706 C9.33015834,18.1293282 9.14694631,18.3924911 8.88425052,18.5091448 C8.57304163,18.7158827 8.15444274,18.6613342 7.90686735,18.3796846 L7.87873299,18.3457422 L7.06652096,17.3061582 C6.86175068,17.0440642 6.48328242,16.9975942 6.22118842,17.2023644 C5.96957818,17.3989439 5.91668697,17.7556034 6.09402588,18.0157057 L6.11739463,18.047697 L8.99148509,21.726365 C9.24650042,22.0527697 9.18862787,22.5241038 8.86222313,22.7791192 C8.5474757,23.0250268 8.09796615,22.9799966 7.83760332,22.6837996 L7.80946896,22.6498572 L4.9353785,18.9711892 C4.22057757,18.0562857 4.38279273,16.7351492 5.29769621,16.0203483 C6.05496273,15.4287068 7.09053499,15.4378994 7.83023721,15.9774261 L7.83039043,9.52407962 C7.83039043,8.36305044 8.77159055,7.42185033 9.93261973,7.42185033 Z M14.2322351,2.8428609 C16.6069088,5.21753469 16.6069088,9.06764161 14.2322351,11.4423154 C13.9393418,11.7352086 13.4644681,11.7352086 13.1715749,11.4423154 C12.8786817,11.1494222 12.8786817,10.6745484 13.1715749,10.3816552 C14.9604622,8.59276788 14.9604622,5.69240842 13.1715749,3.90352107 C11.3826875,2.11463372 8.48232808,2.11463372 6.69344073,3.90352107 C4.90455338,5.69240842 4.90455338,8.59276788 6.69344073,10.3816552 C6.98633395,10.6745484 6.98633395,11.1494222 6.69344073,11.4423154 C6.40054751,11.7352086 5.92567377,11.7352086 5.63278055,11.4423154 C3.25810677,9.06764161 3.25810677,5.21753469 5.63278055,2.8428609 C8.00745434,0.468187111 11.8575613,0.468187111 14.2322351,2.8428609 Z" id="形状" fill="#FFFFFF" fill-rule="nonzero"></path>
    </g>
</svg>