<?xml version="1.0" encoding="UTF-8"?>
<svg width="24px"
     height="24px"
     viewBox="0 0 24 24"
     version="1.1"
     xmlns="http://www.w3.org/2000/svg"
     xmlns:xlink="http://www.w3.org/1999/xlink">
    <title>ic/ic_camera_telephoto_macro5</title>
    <g
        id="ic/ic_camera_telephoto_macro5"
        stroke="#000000"
        stroke-opacity="0.3"
        stroke-width="0.3"
        fill-rule="evenodd">
        <path
            d="M19.1152272,7.63244061 C19.505784,7.61163463 19.8682206,7.83547294 20.0245023,8.1940026 C20.500892,9.28689921 20.75,10.4705746 20.75,11.6875001 C20.75,16.091407 17.4965511,19.7354302 13.2620688,20.3471541 L13.116,20.3654999 L13.1098523,20.3669564 L13.086,20.3694999 L13.0998933,20.3682312 C12.8595223,20.3988561 12.6171063,20.4193396 12.3728462,20.429655 L12,20.4375001 C7.16750844,20.4375001 3.25,16.5199917 3.25,11.6875001 C3.25,10.5291183 3.475699,9.40058044 3.91471821,8.33719685 L3.91471821,8.33719685 L3.97525689,8.19705381 C4.12869733,7.84184939 4.48459586,7.61740177 4.87124969,7.63199544 C7.75883878,7.74098316 10.3158169,9.11061594 12.0169435,11.2013646 L12.0019626,11.1829983 L12.0019626,11.1829983 C13.5770715,9.25480451 15.8864489,7.942138 18.5201737,7.67449549 L18.8510489,7.64651408 L19.1152272,7.63244061 Z M5.4625,9.55875011 L5.3908454,9.78679273 C5.21536367,10.3982236 5.125,11.0361571 5.125,11.6875001 C5.125,15.4844578 8.20304235,18.5625001 12,18.5625001 L12,18.5625001 L12.21125,18.5575001 L12.2285502,18.4627231 C12.2657008,18.2106807 12.2906283,17.9559623 12.3031188,17.6991696 L12.3031188,17.6991696 L12.3125,17.3125001 C12.3125,13.3961549 9.42487551,10.1370851 5.6440366,9.58303275 L5.6440366,9.58303275 L5.4625,9.55875011 Z M18.5375,9.55875011 L18.4003837,9.57662814 C16.201773,9.88572974 14.3051657,11.1075276 13.0941925,12.8398064 C13.7931437,14.1788046 14.1875,15.7007438 14.1875,17.3125001 C14.1875,17.6499225 14.1702127,17.9852146 14.1359365,18.317419 L14.1453649,18.2213712 L14.1453649,18.2213712 C16.7267907,17.3747984 18.6351327,15.0388987 18.8540026,12.2288128 L18.869541,11.964009 L18.875,11.6875001 C18.875,11.0888235 18.7986496,10.501529 18.6501157,9.93585991 L18.5523667,9.59913547 L18.5375,9.55875011 Z M12.5708529,3.7555475 C13.772383,4.67522681 14.73044,5.84970829 15.3845521,7.18048075 C14.7998526,7.41831219 14.2416623,7.70429147 13.7140902,8.03364046 C13.3767674,7.33971007 12.9360811,6.69732766 12.4057005,6.12840962 L12.1729429,5.88914932 L12,5.72500011 L11.8040966,5.91189295 C11.1802998,6.53150947 10.6683253,7.24799203 10.2867546,8.03096839 C9.76165594,7.70078102 9.20332909,7.41447421 8.61965929,7.17707013 C9.21504494,5.96833693 10.0634979,4.88622802 11.1218436,4.00246672 L11.4156548,3.76641251 L11.4510504,3.74077211 C11.7865765,3.49771871 12.2418566,3.50372597 12.5708529,3.7555475 Z"
            id="形状结合"
            fill="#FFFFFF"
            fill-rule="nonzero"></path>
    </g>
</svg>