<svg width="24.000000" height="24.000000" viewBox="0 0 24 24" fill="none" xmlns="http://www.w3.org/2000/svg" xmlns:xlink="http://www.w3.org/1999/xlink">
	<desc>
			Created with Pixso.
	</desc>
	<defs>
		<clipPath id="clip967_46731">
			<rect id="WNR" width="24.000000" height="24.000000" fill="white" fill-opacity="0"/>
		</clipPath>
	</defs>
	<rect id="WNR" width="24.000000" height="24.000000" fill="#000000" fill-opacity="0"/>
	<g clip-path="url(#clip967_46731)">
		<path id="合并" d="M18.9072 2C19.1338 2 19.3271 2.08008 19.4873 2.24023Q19.6064 2.35938 19.666 2.50293Q19.7275 2.64941 19.7275 2.82031L19.7275 16.7402L22.1768 16.7402C22.417 16.7402 22.6104 16.8203 22.7568 16.9805C22.9102 17.1396 22.9902 17.3271 22.9971 17.54C23.0107 17.7598 22.9268 17.957 22.7471 18.1299L19.4873 21.4004C19.3076 21.5596 19.1104 21.6338 18.8975 21.6201C18.6836 21.6133 18.4971 21.54 18.3369 21.4004C18.1768 21.2529 18.0967 21.0596 18.0967 20.8203L18.0967 2.82031Q18.0967 2.64941 18.1582 2.50293Q18.2178 2.35938 18.3369 2.24023C18.4971 2.08008 18.6875 2 18.9072 2ZM9.93945 8.5L1.75391 8.5C1.33691 8.5 0.999023 8.83789 0.999023 9.25488C0.999023 9.67188 1.33691 10.0098 1.75391 10.0098L9.93945 10.0098C10.5664 10.0098 11.1396 9.85938 11.6592 9.55957C12.1787 9.2666 12.5957 8.86719 12.9092 8.36035C13.083 8.08203 13.21 7.79102 13.2871 7.48828C13.3486 7.24707 13.3789 6.99805 13.3789 6.74023C13.3789 6.47852 13.3467 6.22461 13.2832 5.97949C13.207 5.68848 13.0859 5.4082 12.9189 5.13965C12.6123 4.63965 12.1953 4.24414 11.6689 3.9502C11.4727 3.83887 11.2695 3.74707 11.0586 3.67676C10.7051 3.55957 10.332 3.5 9.93945 3.5C9.63672 3.5 9.3418 3.53418 9.05566 3.60352C8.86328 3.65039 8.67383 3.71289 8.48926 3.79004C8.30078 3.87109 8.12109 3.9668 7.95215 4.07715C7.71484 4.23242 7.49805 4.41602 7.2998 4.62988C7.17285 4.81055 7.1123 5 7.11914 5.2002C7.13281 5.40039 7.21875 5.57031 7.37891 5.70996C7.53906 5.83691 7.71875 5.89648 7.91895 5.88965C8.11914 5.88281 8.29004 5.7998 8.42969 5.63965C8.60938 5.43359 8.83008 5.27344 9.08984 5.16016C9.35645 5.04688 9.63965 4.99023 9.93945 4.99023C10.4727 4.99023 10.9268 5.16309 11.2998 5.50977C11.5156 5.70605 11.6689 5.92578 11.7598 6.16895C11.8262 6.34668 11.8594 6.53711 11.8594 6.74023C11.8594 6.93555 11.8281 7.12012 11.7666 7.29297C11.6768 7.5459 11.5215 7.77539 11.2998 7.98047C10.9268 8.32715 10.4727 8.5 9.93945 8.5ZM17.0791 12.7998C17.0859 12.8037 17.0918 12.8076 17.0986 12.8115L17.0986 14.7207C17.0352 14.6367 16.9648 14.5576 16.8896 14.4805C16.7344 14.3252 16.5645 14.1943 16.3809 14.0889C15.9883 13.8633 15.5322 13.75 15.0098 13.75L1.74414 13.75C1.33301 13.75 0.999023 13.417 0.999023 13.0049C0.999023 12.5938 1.33301 12.2598 1.74414 12.2598L14.9795 12.2598C15.5596 12.2598 16.0986 12.3623 16.5967 12.5645C16.7617 12.6318 16.9229 12.71 17.0791 12.7998ZM0.999023 16.7549C0.999023 17.167 1.33301 17.5 1.74414 17.5L6.86914 17.5C7.07617 17.5 7.25293 17.4268 7.39941 17.2803C7.5459 17.1338 7.61914 16.957 7.61914 16.75C7.61914 16.5439 7.5459 16.3662 7.39941 16.2197C7.25293 16.0801 7.07617 16.0098 6.86914 16.0098L1.74414 16.0098C1.33301 16.0098 0.999023 16.3438 0.999023 16.7549ZM16.9883 18.0029C17.0264 17.96 17.0635 17.916 17.0986 17.8711L17.0986 19.8477C17.0332 19.8867 16.9668 19.9238 16.8994 19.96C16.7148 20.0596 16.5264 20.1455 16.332 20.2168C15.8232 20.4053 15.2783 20.5 14.6992 20.5C13.959 20.5 13.2656 20.3398 12.6191 20.0195C11.9727 19.7002 11.3994 19.1807 10.9795 18.6201C10.8799 18.46 10.8496 18.2861 10.8896 18.0996C10.9297 17.9062 11.0293 17.7529 11.1895 17.6396C11.3496 17.5137 11.5322 17.4668 11.7393 17.5C11.9521 17.5273 12.1133 17.6201 12.2197 17.7803C12.4932 18.167 12.8486 18.4668 13.2891 18.6797C13.7295 18.9004 14.1992 19.0098 14.6992 19.0098C15.2256 19.0098 15.7129 18.8906 16.1592 18.6504C16.4824 18.4766 16.7588 18.2607 16.9883 18.0029Z" clip-rule="evenodd" fill="#FFFFFF" fill-opacity="1.000000" fill-rule="evenodd"/>
	</g>
</svg>
