<svg width="24.000000" height="24.000000" viewBox="0 0 24 24" fill="none" xmlns="http://www.w3.org/2000/svg" xmlns:xlink="http://www.w3.org/1999/xlink">
	<desc>
			Created with Pixso.
	</desc>
	<defs>
		<clipPath id="clip280_21836">
			<rect id="10秒" width="24.000000" height="24.000000" fill="white" fill-opacity="0"/>
		</clipPath>
	</defs>
	<g clip-path="url(#clip280_21836)">
		<path id="形状结合" d="M5.98 4.92C6.28 5.22 6.28 5.69 5.98 5.98C4.4 7.57 3.5 9.71 3.5 12C3.5 16.69 7.3 20.5 12 20.5C12.3 20.5 12.6 20.48 12.89 20.45C13.27 20.45 13.66 20.73 13.71 21.09L13.72 21.2C13.72 21.61 13.38 21.95 12.97 21.95L12.68 21.97C12.46 21.99 12.23 22 12 22C6.47 22 2 17.52 2 12C2 9.31 3.06 6.79 4.92 4.92C5.22 4.63 5.69 4.63 5.98 4.92ZM20.16 14.41C20.99 14.41 21.62 14.74 22.07 15.38C22.52 16.03 22.74 16.98 22.74 18.21C22.74 19.45 22.52 20.39 22.07 21.03C21.62 21.67 20.99 22 20.16 22C19.33 22 18.69 21.67 18.24 21.04C17.79 20.39 17.57 19.45 17.57 18.21C17.57 16.98 17.79 16.03 18.24 15.38C18.69 14.74 19.33 14.41 20.16 14.41ZM16.39 14.55L16.39 21.87L14.92 21.87L14.92 16.14L13.02 17.2L13.02 15.82L15.26 14.55L16.39 14.55ZM20.16 15.75C19.8 15.75 19.53 15.95 19.36 16.35C19.19 16.75 19.11 17.37 19.11 18.21C19.11 19.04 19.19 19.66 19.36 20.06C19.53 20.46 19.8 20.66 20.16 20.66C20.51 20.66 20.77 20.46 20.94 20.06C21.11 19.66 21.2 19.04 21.2 18.21C21.2 17.38 21.11 16.76 20.94 16.36C20.77 15.95 20.51 15.75 20.16 15.75ZM8.09 7.61C8.18 7.61 8.26 7.64 8.34 7.68L12.65 11.25C12.86 11.43 13 11.7 13 12C13 12.55 12.55 13 12 13C11.69 13 11.42 12.86 11.23 12.64L7.7 8.42C7.63 8.34 7.59 8.23 7.59 8.11C7.59 7.84 7.82 7.61 8.09 7.61ZM12 2C17.42 2 21.84 6.32 21.99 11.72L22 12C22 12.41 21.66 12.75 21.25 12.75C20.87 12.75 20.55 12.46 20.5 12.1L20.5 12C20.5 7.55 17.09 3.91 12.75 3.53L12.75 5.25C12.75 5.66 12.41 6 12 6C11.58 6 11.25 5.66 11.25 5.25L11.25 2.75C11.25 2.33 11.58 2 12 2Z" fill="#FFFFFF" fill-opacity="1.000000" fill-rule="nonzero"/>
		<path id="形状结合" d="M5.98 5.98C4.4 7.57 3.5 9.71 3.5 12C3.5 16.69 7.3 20.5 12 20.5C12.3 20.5 12.6 20.48 12.89 20.45C13.27 20.45 13.66 20.73 13.71 21.09L13.72 21.2C13.72 21.61 13.38 21.95 12.97 21.95L12.68 21.97C12.46 21.99 12.23 22 12 22C6.47 22 2 17.52 2 12C2 9.31 3.06 6.79 4.92 4.92C5.22 4.63 5.69 4.63 5.98 4.92C6.28 5.22 6.28 5.69 5.98 5.98ZM22.07 15.38C22.52 16.03 22.74 16.98 22.74 18.21C22.74 19.45 22.52 20.39 22.07 21.03C21.62 21.67 20.99 22 20.16 22C19.33 22 18.69 21.67 18.24 21.04C17.79 20.39 17.57 19.45 17.57 18.21C17.57 16.98 17.79 16.03 18.24 15.38C18.69 14.74 19.33 14.41 20.16 14.41C20.99 14.41 21.62 14.74 22.07 15.38ZM16.39 21.87L14.92 21.87L14.92 16.14L13.02 17.2L13.02 15.82L15.26 14.55L16.39 14.55L16.39 21.87ZM19.36 16.35C19.19 16.75 19.11 17.37 19.11 18.21C19.11 19.04 19.19 19.66 19.36 20.06C19.53 20.46 19.8 20.66 20.16 20.66C20.51 20.66 20.77 20.46 20.94 20.06C21.11 19.66 21.2 19.04 21.2 18.21C21.2 17.38 21.11 16.76 20.94 16.36C20.77 15.95 20.51 15.75 20.16 15.75C19.8 15.75 19.53 15.95 19.36 16.35ZM8.34 7.68L12.65 11.25C12.86 11.43 13 11.7 13 12C13 12.55 12.55 13 12 13C11.69 13 11.42 12.86 11.23 12.64L7.7 8.42C7.63 8.34 7.59 8.23 7.59 8.11C7.59 7.84 7.82 7.61 8.09 7.61C8.18 7.61 8.26 7.64 8.34 7.68ZM21.99 11.72L22 12C22 12.41 21.66 12.75 21.25 12.75C20.87 12.75 20.55 12.46 20.5 12.1L20.5 12C20.5 7.55 17.09 3.91 12.75 3.53L12.75 5.25C12.75 5.66 12.41 6 12 6C11.58 6 11.25 5.66 11.25 5.25L11.25 2.75C11.25 2.33 11.58 2 12 2C17.42 2 21.84 6.32 21.99 11.72Z" stroke="#000000" stroke-opacity="0" stroke-width="1.000000"/>
		<g opacity="0.000000">
			<rect id="矩形" width="24.000000" height="24.000000" fill="#D8D8D8" fill-opacity="1.000000"/>
			<rect id="矩形" width="24.000000" height="24.000000" stroke="#000000" stroke-opacity="0" stroke-width="1.000000"/>
		</g>
	</g>
</svg>
