<?xml version="1.0" encoding="UTF-8"?>
<svg width="24px"
     height="24px"
     viewBox="0 0 24 24"
     version="1.1"
     xmlns="http://www.w3.org/2000/svg"
     xmlns:xlink="http://www.w3.org/1999/xlink">
    <title>camera</title>
    <defs>
        <path
            d="M8.39258427,6.69767764 C8.39230173,6.69772554 8.39201946,6.6977734 8.39173748,6.6978212 C8.38706261,6.69928615 8.38918112,6.69866901 8.39258427,6.69767764 Z M9.5,4 L14.5,4 C15.2312349,4 15.6815675,4.29459412 16,4.75 L17,6 L19.5,6 C20.3643725,6.04447647 21,6.68712941 21,7.5 L21,18.5 C21,19.3573471 20.3643725,20 19.5,20 L4.5,20 C3.635805,20 3,19.3573471 3,18.5 L3,7.5 C3,6.68712941 3.6356275,6.04447647 4.5,6 L7,6 C7.32313281,5.60138207 7.62772434,5.26161217 8.03974939,4.75787254 C8.43850052,4.27036153 8.74714774,4 9.5,4 Z M12,15 C13.3807119,15 14.5,13.8807119 14.5,12.5 C14.5,11.1192881 13.3807119,10 12,10 C10.6192881,10 9.5,11.1192881 9.5,12.5 C9.5,13.8807119 10.6192881,15 12,15 Z M12,16.5 C9.790861,16.5 8,14.709139 8,12.5 C8,10.290861 9.790861,8.5 12,8.5 C14.209139,8.5 16,10.290861 16,12.5 C16,14.709139 14.209139,16.5 12,16.5 Z"
            id="path-1"></path>
    </defs>
    <g
        id="camera"
        stroke="none"
        stroke-width="1"
        fill="none"
        fill-rule="evenodd">
        <mask
            id="mask-2"
            fill="white">
            <use xlink:href="#path-1"></use>
        </mask>
        <use
            id="合并形状"
            fill="#FFFFFF"
            fill-rule="evenodd"
            xlink:href="#path-1"></use>
    </g>
</svg>