<?xml version="1.0" encoding="UTF-8"?>
<svg width="24px"
     height="24px"
     viewBox="0 0 24 24"
     version="1.1"
     xmlns="http://www.w3.org/2000/svg"
     xmlns:xlink="http://www.w3.org/1999/xlink">
    <title>ic_camera_setting_horizontal_level</title>
    <g
        id="ic_camera_setting_horizontal_level"
        stroke="none"
        stroke-width="1"
        fill="none"
        fill-rule="evenodd">
        <path
            d="M21.8249631,7.0438126 L21.9191498,7.23490895 L21.9843696,7.3730025 L22.0477041,7.51209883 L22.1055444,7.64383717 L22.1925435,7.85143533 L22.2756402,8.06180456 L22.309152,8.15043286 L22.3624923,8.29654155 L22.426008,8.47955925 L22.472278,8.61993776 L22.5346001,8.81997418 C22.6282969,9.13118446 22.7085853,9.44825095 22.7747867,9.77048102 C22.7747867,9.77048102 22.7747867,9.77048102 22.7747867,9.77048102 C22.8226777,10.0035865 22.6725317,10.2313792 22.4394262,10.2792703 C22.3188881,10.3040345 22.1935131,10.2760809 22.0949103,10.2024588 L19.6026363,8.34152643 C19.3813703,8.17631146 19.335932,7.86300676 19.501147,7.64174081 C19.5594183,7.56370034 19.6392134,7.50437749 19.7307321,7.47105807 L20.2499114,7.2820393 L20.2499114,7.2820393 C18.6125331,4.42252396 15.5312688,2.49582556 12,2.49582556 C8.46873118,2.49582556 5.38746689,4.42252396 3.75008861,7.2820393 L4.26930565,7.47107181 C4.52878609,7.56554144 4.66255379,7.85247466 4.56808416,8.11195511 C4.53476686,8.20346801 4.47544937,8.28325889 4.39741597,8.34152932 L1.78039012,10.2957594 C1.61618484,10.4183708 1.3836731,10.3846584 1.26105736,10.2204564 C1.19879295,10.1370744 1.17440392,10.0313783 1.19383813,9.92914464 C1.19383813,9.92914464 1.19383813,9.92914464 1.19383813,9.92914464 C1.25266628,9.61967902 1.32445875,9.31480611 1.40862909,9.01511232 L1.47764508,8.77958287 L1.56192636,8.51555501 L1.58619993,8.44355567 C1.63167632,8.31019828 1.67965145,8.17797111 1.73006463,8.04694497 L1.83370438,7.78752681 L1.89445569,7.64383703 L1.95731542,7.50088438 L2.01821078,7.3674425 L2.10436076,7.18632173 L2.21622907,6.96307781 L2.25832157,6.88224078 C4.09915905,3.3824614 7.77086519,0.995825556 12,0.995825556 C16.1372123,0.995825556 19.7409646,3.27983932 21.6191162,6.65572611 L21.693327,6.79135564 C21.7382592,6.87486652 21.7821438,6.95902471 21.8249631,7.0438126 Z M21.3189316,17.7828604 C21.1011412,18.1351958 20.638963,18.2442661 20.2866276,18.0264757 C19.9342922,17.8086854 19.8252219,17.3465071 20.0430122,16.9941717 C20.3692712,16.4663587 20.6416388,15.9091821 20.857509,15.3301102 C21.0021957,14.9419883 21.4341224,14.744645 21.8222443,14.8893317 C22.2103663,15.0340184 22.4077096,15.4659451 22.2630229,15.854067 C22.0128482,16.5251604 21.6971242,17.1710305 21.3189316,17.7828604 Z M16.8217311,21.872663 C16.4502591,22.0559154 16.0005662,21.9033333 15.8173138,21.5318613 C15.6340614,21.1603893 15.7866435,20.7106964 16.1581154,20.527444 C16.710828,20.254783 17.2373003,19.9276296 17.7311173,19.5485849 C18.0596946,19.296375 18.5305157,19.3582831 18.7827255,19.6868604 C19.0349354,20.0154377 18.9730274,20.4862588 18.64445,20.7384686 C18.0724986,21.1774879 17.4623633,21.55663 16.8217311,21.872663 Z M10.8191075,22.9454677 C10.4070926,22.9028466 10.1076397,22.5342912 10.1502609,22.1222762 C10.1928821,21.7102613 10.5614375,21.4108085 10.9734524,21.4534296 C11.5896176,21.5171693 12.2108994,21.5208769 12.8277445,21.4644697 C13.240237,21.4267494 13.6052066,21.7305623 13.6429268,22.1430548 C13.6806471,22.5555473 13.3768342,22.9205169 12.9643417,22.9582371 C12.2506771,23.023498 11.5319564,23.0192089 10.8191075,22.9454677 Z M5.16044885,20.6554631 C4.83501438,20.3992107 4.77893122,19.9276604 5.03518361,19.6022259 C5.29143599,19.2767915 5.76298635,19.2207083 6.08842082,19.4769607 C6.57724291,19.8618671 7.09976405,20.1954841 7.64946701,20.4750039 C8.01868816,20.66275 8.16580273,21.1142612 7.97805658,21.4834824 C7.79031044,21.8527035 7.33879923,21.9998181 6.96957808,21.812072 C6.33239866,21.4880711 5.72675909,21.101385 5.16044885,20.6554631 Z M1.59516577,15.7061125 C1.4560137,15.3159721 1.65947999,14.8868957 2.04962045,14.7477436 C2.43976091,14.6085916 2.86883728,14.8120578 3.00798935,15.2021983 C3.21553054,15.7840813 3.47993626,16.3450147 3.79880499,16.8776107 C4.011578,17.2329986 3.89596584,17.693584 3.54057799,17.906357 C3.18519015,18.11913 2.72460477,18.0035178 2.51183175,17.64813 C2.14221575,17.0307724 1.83570742,16.3805188 1.59516577,15.7061125 Z M1.75,11.2458256 L22.25,11.2458256 C22.6642136,11.2458256 23,11.581612 23,11.9958256 C23,12.4100391 22.6642136,12.7458256 22.25,12.7458256 L1.75,12.7458256 C1.33578644,12.7458256 1,12.4100391 1,11.9958256 C1,11.581612 1.33578644,11.2458256 1.75,11.2458256 Z"
            id="形状结合"
            fill="#000000"
            fill-rule="nonzero"></path>
    </g>
</svg>