<?xml version="1.0" encoding="UTF-8"?>
<svg width="24px"
     height="24px"
     viewBox="0 0 24 24"
     version="1.1"
     xmlns="http://www.w3.org/2000/svg"
     xmlns:xlink="http://www.w3.org/1999/xlink">
    <title>ic/ic_camera_setting_hdr</title>
    <g
        id="ic/ic_camera_setting_hdr"
        stroke="none"
        stroke-width="1"
        fill="none"
        fill-rule="evenodd">
        <path
            d="M20.0972717,4 C21.2018412,4 22.0972717,4.8954305 22.0972717,6 C22.0972717,6.35638579 22.0020429,6.70629843 21.8214386,7.01353272 L15.0573113,18.5202991 C14.5184119,19.4370455 13.534469,20 12.471061,20 L9.87411791,20 C8.82678299,20 7.8552657,19.4538024 7.31100429,18.5589896 L2.1939865,10.1461702 C1.8221244,9.53479677 1.80523229,8.77133402 2.14968966,8.14411156 L3.85590283,5.03726776 C4.20722035,4.39755365 4.87910776,4 5.60894209,4 L20.0972717,4 Z M8.5925611,17.7794948 C8.83747873,18.1821606 9.255435,18.4436372 9.71833065,18.4919058 L9.87411791,18.5 L12.2317283,18.5 L7.34672833,9.952 L3.83072833,9.952 L8.5925611,17.7794948 Z M17.2169353,9.66770217 C16.8108044,9.84305726 16.3414126,9.93631641 15.8163255,9.95132476 L8.49872833,9.952 L13.2574395,18.2773455 C13.422887,18.1754986 13.5688001,18.0414019 13.6853201,17.880696 L13.7641861,17.7601495 L19.3149574,8.31798145 C18.276458,9.06308245 17.581912,9.51011622 17.2169353,9.66770217 Z M5.06272833,5.954 L3.4644691,8.86616074 C3.4492624,8.89385062 3.4368727,8.9226026 3.42729121,8.95201975 L6.77572833,8.952 L5.06272833,5.954 Z M20.0972717,5.5 L5.95472833,5.5 L7.92772833,8.952 L15.5591864,8.95242606 C16.0686299,8.96262775 16.4884121,8.89302506 16.8205366,8.74962369 L16.9541268,8.6846282 C17.4859215,8.40382367 18.6900689,7.56420028 20.501997,6.19865243 L20.5758514,6.14478074 C20.5899928,6.09803541 20.5972717,6.04926509 20.5972717,6 C20.5972717,5.75454011 20.4203965,5.55039163 20.1871473,5.50805567 L20.0972717,5.5 Z"
            id="形状结合"
            fill="#FFFFFF"
            fill-rule="nonzero"></path>
    </g>
</svg>