<svg width="24.000000" height="24.000000" viewBox="0 0 24 24" fill="none" xmlns="http://www.w3.org/2000/svg" xmlns:xlink="http://www.w3.org/1999/xlink">
	<desc>
			Created with Pixso.
	</desc>
	<defs>
		<clipPath id="clip280_21837">
			<rect id="倒计时关闭" width="24.000000" height="24.000000" fill="white" fill-opacity="0"/>
		</clipPath>
	</defs>
	<g clip-path="url(#clip280_21837)">
		<path id="形状" d="M3.35 3.35L20.64 20.64C20.91 20.91 20.91 21.35 20.64 21.62C20.37 21.89 19.93 21.89 19.66 21.62L18.02 19.98C16.34 21.24 14.26 22 12 22C6.47 22 2 17.52 2 12C2 9.78 2.72 7.68 4.01 5.97L2.37 4.33C2.1 4.06 2.1 3.62 2.37 3.35C2.64 3.08 3.08 3.08 3.35 3.35ZM3.5 12C3.5 16.69 7.3 20.5 12 20.5C13.84 20.5 15.55 19.91 16.95 18.9L5.08 7.04C4.06 8.47 3.5 10.19 3.5 12ZM12 2C17.52 2 22 6.47 22 12C22 14.26 21.24 16.34 19.98 18.02L18.91 16.95C19.91 15.55 20.5 13.84 20.5 12C20.5 7.55 17.09 3.91 12.75 3.53L12.75 5.25C12.75 5.66 12.41 6 12 6C11.58 6 11.25 5.66 11.25 5.25L11.25 2.75C11.25 2.33 11.58 2 12 2Z" fill="#FFFFFF" fill-opacity="1.000000" fill-rule="nonzero"/>
		<path id="形状" d="M20.64 20.64C20.91 20.91 20.91 21.35 20.64 21.62C20.37 21.89 19.93 21.89 19.66 21.62L18.02 19.98C16.34 21.24 14.26 22 12 22C6.47 22 2 17.52 2 12C2 9.78 2.72 7.68 4.01 5.97L2.37 4.33C2.1 4.06 2.1 3.62 2.37 3.35C2.64 3.08 3.08 3.08 3.35 3.35L20.64 20.64ZM12 20.5C13.84 20.5 15.55 19.91 16.95 18.9L5.08 7.04C4.06 8.47 3.5 10.19 3.5 12C3.5 16.69 7.3 20.5 12 20.5ZM22 12C22 14.26 21.24 16.34 19.98 18.02L18.91 16.95C19.91 15.55 20.5 13.84 20.5 12C20.5 7.55 17.09 3.91 12.75 3.53L12.75 5.25C12.75 5.66 12.41 6 12 6C11.58 6 11.25 5.66 11.25 5.25L11.25 2.75C11.25 2.33 11.58 2 12 2C17.52 2 22 6.47 22 12Z" stroke="#000000" stroke-opacity="0" stroke-width="1.000000"/>
		<g opacity="0.000000">
			<rect id="矩形" width="24.000000" height="24.000000" fill="#D8D8D8" fill-opacity="1.000000"/>
			<rect id="矩形" width="24.000000" height="24.000000" stroke="#000000" stroke-opacity="0" stroke-width="1.000000"/>
		</g>
	</g>
</svg>
