<?xml version="1.0" encoding="UTF-8"?>
<svg width="24px" height="24px" viewBox="0 0 24 24" version="1.1" xmlns="http://www.w3.org/2000/svg" xmlns:xlink="http://www.w3.org/1999/xlink">
    <title>熄屏快拍</title>
    <g id="熄屏快拍" stroke="none" stroke-width="1" fill="none" fill-rule="evenodd">
        <g id="编组" transform="translate(2.520000, 0.500000)" fill="#FFFFFF" fill-rule="nonzero">
            <path d="M13.01,3 C13.01,2.46 12.8733333,1.96 12.6,1.5 C12.3266667,1.04666667 11.9633333,0.683333333 11.51,0.41 C11.05,0.136666667 10.55,0 10.01,0 L3,0 C2.45333333,0 1.95333333,0.136666667 1.5,0.41 C1.04666667,0.683333333 0.683333333,1.04666667 0.41,1.5 C0.136666667,1.96 4.4408921e-16,2.46 4.4408921e-16,3 L4.4408921e-16,20 C4.4408921e-16,20.54 0.136666667,21.04 0.41,21.5 C0.683333333,21.9533333 1.04666667,22.3166667 1.5,22.59 C1.95333333,22.8633333 2.45333333,23 3,23 L10.01,23 C10.5366667,23 11.0333333,22.8633333 11.5,22.59 C11.96,22.3166667 12.3266667,21.9533333 12.6,21.5 C12.8733333,21.04 13.01,20.54 13.01,20 L13.01,10.25 L13.1,10.25 C13.2133333,10.2166667 13.31,10.1566667 13.39,10.07 C13.47,9.98333333 13.51,9.87666667 13.51,9.75 L13.51,7.76 C13.51,7.64666667 13.4733333,7.54666667 13.4,7.46 C13.3333333,7.36666667 13.25,7.30666667 13.15,7.28 C13.1166667,7.26 13.07,7.25 13.01,7.25 L13.01,3 Z M11.5,20 C11.5,20.4 11.3533333,20.7466667 11.06,21.04 C10.7733333,21.3333333 10.4233333,21.48 10.01,21.48 L3,21.48 C2.58666667,21.48 2.23,21.3366667 1.93,21.05 C1.63666667,20.7633333 1.49,20.4133333 1.49,20 L1.49,3 C1.49,2.58666667 1.63666667,2.23333333 1.93,1.94 C2.23,1.64 2.58666667,1.49 3,1.49 L10.01,1.49 C10.4233333,1.49 10.7733333,1.64 11.06,1.94 C11.3533333,2.23333333 11.5,2.58666667 11.5,3 L11.5,20 Z" id="形状"></path>
            <path d="M16.08,8.02 L16.08,7.11 C16.08,7.04333333 16.0566667,6.98666667 16.01,6.94 C15.9633333,6.89333333 15.9066667,6.87 15.84,6.87 C15.7733333,6.87 15.7166667,6.89333333 15.67,6.94 L13.9,8.57 C13.8466667,8.61666667 13.82,8.67666667 13.82,8.75 C13.82,8.82333333 13.8466667,8.88333333 13.9,8.93 L15.67,10.56 C15.7166667,10.6133333 15.7733333,10.64 15.84,10.64 C15.9066667,10.64 15.9633333,10.6133333 16.01,10.56 C16.0566667,10.5133333 16.08,10.46 16.08,10.4 L16.08,9.51 L18.22,9.51 C18.4266667,9.51 18.6,9.43666667 18.74,9.29 C18.8866667,9.15 18.96,8.97333333 18.96,8.76 C18.96,8.55333333 18.8866667,8.38 18.74,8.24 C18.6,8.09333333 18.4266667,8.02 18.22,8.02 L16.08,8.02 Z" id="路径"></path>
        </g>
    </g>
</svg>