<svg width="24.000000" height="24.000000" viewBox="0 0 24 24" fill="none" xmlns="http://www.w3.org/2000/svg" xmlns:xlink="http://www.w3.org/1999/xlink">
	<desc>
			Created with Pixso.
	</desc>
	<defs>
		<clipPath id="clip280_21834">
			<rect id="2秒" width="24.000000" height="24.000000" fill="white" fill-opacity="0"/>
		</clipPath>
	</defs>
	<g clip-path="url(#clip280_21834)">
		<path id="形状结合" d="M5.98 4.92C6.28 5.22 6.28 5.69 5.98 5.98C4.4 7.57 3.5 9.71 3.5 12C3.5 16.69 7.3 20.5 12 20.5C12.3 20.5 12.6 20.48 12.89 20.45C13.27 20.45 13.66 20.73 13.71 21.09L13.72 21.2C13.72 21.61 13.38 21.95 12.97 21.95L12.68 21.97C12.46 21.99 12.23 22 12 22C6.47 22 2 17.52 2 12C2 9.31 3.06 6.79 4.92 4.92C5.22 4.63 5.69 4.63 5.98 4.92ZM17.83 14.25C18.3 14.25 18.72 14.34 19.08 14.54C19.44 14.74 19.72 15.01 19.91 15.36C20.1 15.7 20.19 16.1 20.19 16.54C20.19 16.98 20.09 17.39 19.88 17.77C19.67 18.15 19.29 18.64 18.75 19.23L17.45 20.68L20.5 20.68L20.5 22L15.25 22L15.25 21.02L17.54 18.44L17.71 18.26C18.02 17.91 18.24 17.62 18.37 17.4C18.53 17.15 18.6 16.88 18.6 16.61C18.6 16.32 18.52 16.08 18.35 15.9C18.19 15.72 17.96 15.63 17.68 15.63C17.4 15.63 17.14 15.73 16.92 15.94C16.69 16.15 16.52 16.45 16.4 16.84L15.22 16.16L15.29 15.96C15.48 15.44 15.78 15.03 16.2 14.74C16.67 14.41 17.21 14.25 17.83 14.25ZM8.09 7.61C8.18 7.61 8.26 7.64 8.34 7.68L12.65 11.25C12.86 11.43 13 11.7 13 12C13 12.55 12.55 13 12 13C11.69 13 11.42 12.86 11.23 12.64L7.7 8.42C7.63 8.34 7.59 8.23 7.59 8.11C7.59 7.84 7.82 7.61 8.09 7.61ZM12 2C17.42 2 21.84 6.32 21.99 11.72L22 12C22 12.41 21.66 12.75 21.25 12.75C20.87 12.75 20.55 12.46 20.5 12.1L20.5 12C20.5 7.55 17.09 3.91 12.75 3.53L12.75 5.25C12.75 5.66 12.41 6 12 6C11.58 6 11.25 5.66 11.25 5.25L11.25 2.75C11.25 2.33 11.58 2 12 2Z" fill="#FFFFFF" fill-opacity="1.000000" fill-rule="nonzero"/>
		<path id="形状结合" d="M5.98 5.98C4.4 7.57 3.5 9.71 3.5 12C3.5 16.69 7.3 20.5 12 20.5C12.3 20.5 12.6 20.48 12.89 20.45C13.27 20.45 13.66 20.73 13.71 21.09L13.72 21.2C13.72 21.61 13.38 21.95 12.97 21.95L12.68 21.97C12.46 21.99 12.23 22 12 22C6.47 22 2 17.52 2 12C2 9.31 3.06 6.79 4.92 4.92C5.22 4.63 5.69 4.63 5.98 4.92C6.28 5.22 6.28 5.69 5.98 5.98ZM19.08 14.54C19.44 14.74 19.72 15.01 19.91 15.36C20.1 15.7 20.19 16.1 20.19 16.54C20.19 16.98 20.09 17.39 19.88 17.77C19.67 18.15 19.29 18.64 18.75 19.23L17.45 20.68L20.5 20.68L20.5 22L15.25 22L15.25 21.02L17.54 18.44L17.71 18.26C18.02 17.91 18.24 17.62 18.37 17.4C18.53 17.15 18.6 16.88 18.6 16.61C18.6 16.32 18.52 16.08 18.35 15.9C18.19 15.72 17.96 15.63 17.68 15.63C17.4 15.63 17.14 15.73 16.92 15.94C16.69 16.15 16.52 16.45 16.4 16.84L15.22 16.16L15.29 15.96C15.48 15.44 15.78 15.03 16.2 14.74C16.67 14.41 17.21 14.25 17.83 14.25C18.3 14.25 18.72 14.34 19.08 14.54ZM8.34 7.68L12.65 11.25C12.86 11.43 13 11.7 13 12C13 12.55 12.55 13 12 13C11.69 13 11.42 12.86 11.23 12.64L7.7 8.42C7.63 8.34 7.59 8.23 7.59 8.11C7.59 7.84 7.82 7.61 8.09 7.61C8.18 7.61 8.26 7.64 8.34 7.68ZM21.99 11.72L22 12C22 12.41 21.66 12.75 21.25 12.75C20.87 12.75 20.55 12.46 20.5 12.1L20.5 12C20.5 7.55 17.09 3.91 12.75 3.53L12.75 5.25C12.75 5.66 12.41 6 12 6C11.58 6 11.25 5.66 11.25 5.25L11.25 2.75C11.25 2.33 11.58 2 12 2C17.42 2 21.84 6.32 21.99 11.72Z" stroke="#000000" stroke-opacity="0" stroke-width="1.000000"/>
		<g opacity="0.000000">
			<rect id="矩形" width="24.000000" height="24.000000" fill="#D8D8D8" fill-opacity="1.000000"/>
			<rect id="矩形" width="24.000000" height="24.000000" stroke="#000000" stroke-opacity="0" stroke-width="1.000000"/>
		</g>
	</g>
</svg>
