<svg width="65.000000" height="65.000000" viewBox="0 0 65 65" fill="none" xmlns="http://www.w3.org/2000/svg" xmlns:xlink="http://www.w3.org/1999/xlink">
	<desc>
			Created with Pixso.
	</desc>
	<defs/>
	<circle id="椭圆 299" cx="32.825195" cy="32.261719" r="32.000000" fill="#4D4D4D" fill-opacity="0.400000"/>
	<path id="path-1" d="M32.5 0.5C50.16 0.5 64.5 14.82 64.5 32.5C64.5 50.16 50.16 64.5 32.5 64.5C14.81 64.5 0.5 50.16 0.5 32.5C0.5 14.82 14.81 0.5 32.5 0.5ZM62.54 33.13C53.56 33.13 45.12 36 38.02 41.46C31.46 46.48 26.52 53.5 24.02 61.33C26.71 62.13 29.54 62.55 32.5 62.55C48.71 62.55 61.93 49.71 62.52 33.63L62.54 33.13ZM32.5 2.41C15.89 2.41 2.43 15.88 2.43 32.5C2.43 45.43 10.62 56.48 22.1 60.71L22 61.05C24.6 52.71 29.81 45.21 36.79 39.87C44.24 34.16 53.14 31.15 62.52 31.13C61.81 15.16 48.64 2.41 32.5 2.41ZM20.62 15.38C23.52 15.38 25.85 17.73 25.85 20.62C25.85 23.51 23.52 25.85 20.62 25.85C17.72 25.85 15.39 23.51 15.39 20.62C15.39 17.73 17.72 15.38 20.62 15.38Z" fill="#FFFFFF" fill-opacity="1.000000" fill-rule="nonzero"/>
	<path id="path-1" d="M64.5 32.5C64.5 50.16 50.16 64.5 32.5 64.5C14.81 64.5 0.5 50.16 0.5 32.5C0.5 14.82 14.81 0.5 32.5 0.5C50.16 0.5 64.5 14.82 64.5 32.5ZM38.02 41.46C31.46 46.48 26.52 53.5 24.02 61.33C26.71 62.13 29.54 62.55 32.5 62.55C48.71 62.55 61.93 49.71 62.52 33.63L62.54 33.13C53.56 33.13 45.12 36 38.02 41.46ZM2.43 32.5C2.43 45.43 10.62 56.48 22.1 60.71L22 61.05C24.6 52.71 29.81 45.21 36.79 39.87C44.24 34.16 53.14 31.15 62.52 31.13C61.81 15.16 48.64 2.41 32.5 2.41C15.89 2.41 2.43 15.88 2.43 32.5ZM25.85 20.62C25.85 23.51 23.52 25.85 20.62 25.85C17.72 25.85 15.39 23.51 15.39 20.62C15.39 17.73 17.72 15.38 20.62 15.38C23.52 15.38 25.85 17.73 25.85 20.62Z" fill="#000000" fill-opacity="0" fill-rule="nonzero"/>
	<path id="path-1" d="M32.5 64.5C14.81 64.5 0.5 50.16 0.5 32.5C0.5 14.82 14.81 0.5 32.5 0.5C50.16 0.5 64.5 14.82 64.5 32.5C64.5 50.16 50.16 64.5 32.5 64.5ZM24.02 61.33C26.71 62.13 29.54 62.55 32.5 62.55C48.71 62.55 61.93 49.71 62.52 33.63L62.54 33.13C53.56 33.13 45.12 36 38.02 41.46C31.46 46.48 26.52 53.5 24.02 61.33ZM22.1 60.71L22 61.05C24.6 52.71 29.81 45.21 36.79 39.87C44.24 34.16 53.14 31.15 62.52 31.13C61.81 15.16 48.64 2.41 32.5 2.41C15.89 2.41 2.43 15.88 2.43 32.5C2.43 45.43 10.62 56.48 22.1 60.71ZM20.62 25.85C17.72 25.85 15.39 23.51 15.39 20.62C15.39 17.73 17.72 15.38 20.62 15.38C23.52 15.38 25.85 17.73 25.85 20.62C25.85 23.51 23.52 25.85 20.62 25.85Z" fill="#000000" fill-opacity="0" fill-rule="nonzero"/>
	<path id="path-1" d="M0.5 32.5C0.5 14.82 14.81 0.5 32.5 0.5C50.16 0.5 64.5 14.82 64.5 32.5C64.5 50.16 50.16 64.5 32.5 64.5C14.81 64.5 0.5 50.16 0.5 32.5ZM32.5 62.55C48.71 62.55 61.93 49.71 62.52 33.63L62.54 33.13C53.56 33.13 45.12 36 38.02 41.46C31.46 46.48 26.52 53.5 24.02 61.33C26.71 62.13 29.54 62.55 32.5 62.55ZM22 61.05C24.6 52.71 29.81 45.21 36.79 39.87C44.24 34.16 53.14 31.15 62.52 31.13C61.81 15.16 48.64 2.41 32.5 2.41C15.89 2.41 2.43 15.88 2.43 32.5C2.43 45.43 10.62 56.48 22.1 60.71L22 61.05ZM15.39 20.62C15.39 17.73 17.72 15.38 20.62 15.38C23.52 15.38 25.85 17.73 25.85 20.62C25.85 23.51 23.52 25.85 20.62 25.85C17.72 25.85 15.39 23.51 15.39 20.62Z" stroke="#FFFFFF" stroke-opacity="1.000000" stroke-width="1.000000"/>
</svg>
