<svg width="24.000000" height="24.000000" viewBox="0 0 24 24" fill="none" xmlns="http://www.w3.org/2000/svg" xmlns:xlink="http://www.w3.org/1999/xlink">
	<desc>
			Created with Pixso.
	</desc>
	<defs>
		<clipPath id="clip280_21835">
			<rect id="5秒" width="24.000000" height="24.000000" fill="white" fill-opacity="0"/>
		</clipPath>
	</defs>
	<g clip-path="url(#clip280_21835)">
		<path id="形状结合" d="M5.98 4.92C6.28 5.22 6.28 5.69 5.98 5.98C4.4 7.57 3.5 9.71 3.5 12C3.5 16.69 7.3 20.5 12 20.5C12.3 20.5 12.6 20.48 12.89 20.45C13.27 20.45 13.66 20.73 13.71 21.09L13.72 21.2C13.72 21.61 13.38 21.95 12.97 21.95L12.68 21.97C12.46 21.99 12.23 22 12 22C6.47 22 2 17.52 2 12C2 9.31 3.06 6.79 4.92 4.92C5.22 4.63 5.69 4.63 5.98 4.92ZM20.01 14.25L20.01 15.54L17.28 15.54L17.08 17.11L17.22 17.05C17.31 17.01 17.41 16.99 17.51 16.97C17.67 16.93 17.83 16.92 18 16.92C18.44 16.92 18.84 17.02 19.2 17.23C19.56 17.44 19.84 17.73 20.05 18.1C20.26 18.48 20.36 18.91 20.36 19.4C20.36 19.93 20.25 20.39 20.02 20.78C19.78 21.17 19.47 21.48 19.06 21.68C18.66 21.89 18.22 22 17.73 22C17.16 22 16.66 21.86 16.24 21.6C15.83 21.34 15.53 20.94 15.35 20.4L16.57 19.71L16.62 19.86C16.71 20.1 16.83 20.29 17 20.42C17.2 20.58 17.43 20.65 17.71 20.65C17.93 20.65 18.13 20.6 18.29 20.49C18.45 20.38 18.57 20.24 18.65 20.06C18.73 19.88 18.77 19.68 18.77 19.46C18.77 19.23 18.73 19.03 18.65 18.85C18.56 18.66 18.44 18.52 18.27 18.41C18.11 18.29 17.91 18.24 17.67 18.24C17.2 18.24 16.83 18.46 16.58 18.92L15.5 18.39L16.02 14.25L20.01 14.25ZM8.09 7.61C8.18 7.61 8.26 7.64 8.34 7.68L12.65 11.25C12.86 11.43 13 11.7 13 12C13 12.55 12.55 13 12 13C11.69 13 11.42 12.86 11.23 12.64L7.7 8.42C7.63 8.34 7.59 8.23 7.59 8.11C7.59 7.84 7.82 7.61 8.09 7.61ZM12 2C17.42 2 21.84 6.32 21.99 11.72L22 12C22 12.41 21.66 12.75 21.25 12.75C20.87 12.75 20.55 12.46 20.5 12.1L20.5 12C20.5 7.55 17.09 3.91 12.75 3.53L12.75 5.25C12.75 5.66 12.41 6 12 6C11.58 6 11.25 5.66 11.25 5.25L11.25 2.75C11.25 2.33 11.58 2 12 2Z" fill="#FFFFFF" fill-opacity="1.000000" fill-rule="nonzero"/>
		<path id="形状结合" d="M5.98 5.98C4.4 7.57 3.5 9.71 3.5 12C3.5 16.69 7.3 20.5 12 20.5C12.3 20.5 12.6 20.48 12.89 20.45C13.27 20.45 13.66 20.73 13.71 21.09L13.72 21.2C13.72 21.61 13.38 21.95 12.97 21.95L12.68 21.97C12.46 21.99 12.23 22 12 22C6.47 22 2 17.52 2 12C2 9.31 3.06 6.79 4.92 4.92C5.22 4.63 5.69 4.63 5.98 4.92C6.28 5.22 6.28 5.69 5.98 5.98ZM20.01 15.54L17.28 15.54L17.08 17.11L17.22 17.05C17.31 17.01 17.41 16.99 17.51 16.97C17.67 16.93 17.83 16.92 18 16.92C18.44 16.92 18.84 17.02 19.2 17.23C19.56 17.44 19.84 17.73 20.05 18.1C20.26 18.48 20.36 18.91 20.36 19.4C20.36 19.93 20.25 20.39 20.02 20.78C19.78 21.17 19.47 21.48 19.06 21.68C18.66 21.89 18.22 22 17.73 22C17.16 22 16.66 21.86 16.24 21.6C15.83 21.34 15.53 20.94 15.35 20.4L16.57 19.71L16.62 19.86C16.71 20.1 16.83 20.29 17 20.42C17.2 20.58 17.43 20.65 17.71 20.65C17.93 20.65 18.13 20.6 18.29 20.49C18.45 20.38 18.57 20.24 18.65 20.06C18.73 19.88 18.77 19.68 18.77 19.46C18.77 19.23 18.73 19.03 18.65 18.85C18.56 18.66 18.44 18.52 18.27 18.41C18.11 18.29 17.91 18.24 17.67 18.24C17.2 18.24 16.83 18.46 16.58 18.92L15.5 18.39L16.02 14.25L20.01 14.25L20.01 15.54ZM8.34 7.68L12.65 11.25C12.86 11.43 13 11.7 13 12C13 12.55 12.55 13 12 13C11.69 13 11.42 12.86 11.23 12.64L7.7 8.42C7.63 8.34 7.59 8.23 7.59 8.11C7.59 7.84 7.82 7.61 8.09 7.61C8.18 7.61 8.26 7.64 8.34 7.68ZM21.99 11.72L22 12C22 12.41 21.66 12.75 21.25 12.75C20.87 12.75 20.55 12.46 20.5 12.1L20.5 12C20.5 7.55 17.09 3.91 12.75 3.53L12.75 5.25C12.75 5.66 12.41 6 12 6C11.58 6 11.25 5.66 11.25 5.25L11.25 2.75C11.25 2.33 11.58 2 12 2C17.42 2 21.84 6.32 21.99 11.72Z" stroke="#000000" stroke-opacity="0" stroke-width="1.000000"/>
		<g opacity="0.000000">
			<rect id="矩形" width="24.000000" height="24.000000" fill="#D8D8D8" fill-opacity="1.000000"/>
			<rect id="矩形" width="24.000000" height="24.000000" stroke="#000000" stroke-opacity="0" stroke-width="1.000000"/>
		</g>
	</g>
</svg>
