<?xml version="1.0" encoding="UTF-8"?>
<svg width="24px" height="24px" viewBox="0 0 24 24" version="1.1" xmlns="http://www.w3.org/2000/svg" xmlns:xlink="http://www.w3.org/1999/xlink">
    <title>画板</title>
    <defs>
        <filter color-interpolation-filters="auto" id="filter-1">
            <feColorMatrix in="SourceGraphic" type="matrix" values="0 0 0 0 1.000000 0 0 0 0 1.000000 0 0 0 0 1.000000 0 0 0 1.000000 0"></feColorMatrix>
        </filter>
    </defs>
    <g id="画板" stroke="none" stroke-width="1" fill="none" fill-rule="evenodd">
        <g filter="url(#filter-1)" id="编组-16备份">
            <g>
                <g id="编组-3备份"></g>
                <path d="M20.125,1.77083333 C21.7743964,1.77083333 23.1292139,3.03574116 23.2238828,4.63872799 L23.2291667,4.81818182 L23.2291667,14.0909091 C23.2291667,15.7176674 21.9332562,17.0406738 20.307005,17.1330993 L20.125,17.1382576 L19.0618333,17.1378333 L19.0625,17.5833333 C19.0625,19.5319186 17.5338156,21.1234606 15.6102931,21.224113 L15.4166667,21.2291667 L5.41666667,21.2291667 C3.40312852,21.2291667 1.77083333,19.5968715 1.77083333,17.5833333 L1.77083333,17.5833333 L1.77083333,9.50757576 C1.77083333,7.49403761 3.40312852,5.86174242 5.41666667,5.86174242 L5.41666667,5.86174242 L5.93683333,5.86083333 L5.9375,4.81818182 C5.9375,3.19142347 7.23341046,1.86841713 8.85966171,1.77599163 L9.04166667,1.77083333 L20.125,1.77083333 Z M15.4166667,7.32007576 L5.41666667,7.32007576 C4.20854378,7.32007576 3.22916667,8.29945287 3.22916667,9.50757576 L3.22916667,9.50757576 L3.22916667,17.5833333 C3.22916667,18.7914562 4.20854378,19.7708333 5.41666667,19.7708333 L5.41666667,19.7708333 L15.4166667,19.7708333 C16.6247896,19.7708333 17.6041667,18.7914562 17.6041667,17.5833333 L17.6041667,17.5833333 L17.6041667,9.50757576 C17.6041667,8.29945287 16.6247896,7.32007576 15.4166667,7.32007576 L15.4166667,7.32007576 Z M20.125,3.22916667 L9.04166667,3.22916667 C8.17951414,3.22916667 7.47782925,3.86731335 7.40252522,4.67414438 L7.39583333,4.81818182 L7.39583333,5.86083333 L15.4166667,5.86174242 C17.365252,5.86174242 18.9567939,7.39042678 19.0574464,9.31394937 L19.0625,9.50757576 L19.0618333,15.6798333 L20.125,15.6799242 C20.9871525,15.6799242 21.6888374,15.0417776 21.7641414,14.2349465 L21.7708333,14.0909091 L21.7708333,4.81818182 C21.7708333,3.99313001 21.1170458,3.30914711 20.275384,3.23569547 L20.125,3.22916667 Z" id="形状结合" fill="#FF0000" fill-rule="nonzero"></path>
                <path d="M10.5047727,16.815 L12.0129545,14.4286364 C12.3502273,13.8940909 12.5856818,13.4629545 12.7193182,13.1352273 C12.8529545,12.8075 12.9197727,12.4654545 12.9197727,12.1090909 C12.9197727,11.6318182 12.8115909,11.2118182 12.5952273,10.8490909 C12.3788636,10.4863636 12.0829545,10.2047727 11.7075,10.0043182 C11.3320455,9.80386364 10.9152273,9.70363636 10.4570455,9.70363636 C10.0115909,9.70363636 9.59954545,9.80227273 9.22090909,9.99954545 C8.84227273,10.1968182 8.54159091,10.4736364 8.31886364,10.83 C8.09613636,11.1863636 7.98477273,11.5904545 7.98477273,12.0422727 C7.98477273,12.475 8.07863636,12.86 8.26636364,13.1972727 C8.45409091,13.5345455 8.71659091,13.7970455 9.05386364,13.9847727 C9.39113636,14.1725 9.77613636,14.2663636 10.2088636,14.2663636 C10.3997727,14.2663636 10.5715909,14.2440909 10.7243182,14.1995455 C10.5970455,14.3713636 10.4793182,14.5431818 10.3711364,14.715 L10.3711364,14.715 L9.00613636,16.815 L10.5047727,16.815 Z M10.4665909,13.1018182 C10.1675,13.1018182 9.92568182,13.0015909 9.74113636,12.8011364 C9.55659091,12.6006818 9.46431818,12.3413636 9.46431818,12.0231818 C9.46431818,11.705 9.55659091,11.4456818 9.74113636,11.2452273 C9.92568182,11.0447727 10.1675,10.9445455 10.4665909,10.9445455 C10.7656818,10.9445455 11.0090909,11.0431818 11.1968182,11.2404545 C11.3845455,11.4377273 11.4784091,11.6986364 11.4784091,12.0231818 C11.4784091,12.3413636 11.3861364,12.6006818 11.2015909,12.8011364 C11.0170455,13.0015909 10.7720455,13.1018182 10.4665909,13.1018182 Z" id="9" fill="#FF0000" fill-rule="nonzero"></path>
            </g>
        </g>
    </g>
</svg>