<?xml version="1.0" encoding="UTF-8"?>
<svg width="16px"
     height="16px"
     viewBox="0 0 16 16"
     version="1.1"
     xmlns="http://www.w3.org/2000/svg"
     xmlns:xlink="http://www.w3.org/1999/xlink">
    <title>ic/ic_camera_cancel</title>
    <defs>
        <path
            d="M3.51860005,2.81149327 L8.00004666,7.29304666 L12.4813999,2.81149327 C12.6549663,2.63792692 12.9243907,2.61864177 13.1192588,2.75363782 L13.1885067,2.81149327 C13.3837689,3.00675542 13.3837689,3.32333791 13.1885067,3.51860005 L13.1885067,3.51860005 L8.70704666,8.00004666 L13.1885067,12.4813999 C13.3837689,12.6766621 13.3837689,12.9932446 13.1885067,13.1885067 C12.9932446,13.3837689 12.6766621,13.3837689 12.4813999,13.1885067 L8.00004666,8.70704666 L3.51860005,13.1885067 C3.3450337,13.3620731 3.0756093,13.3813582 2.88074116,13.2463622 L2.81149327,13.1885067 C2.61623112,12.9932446 2.61623112,12.6766621 2.81149327,12.4813999 L2.81149327,12.4813999 L7.29304666,8.00004666 L2.81149327,3.51860005 C2.61623112,3.32333791 2.61623112,3.00675542 2.81149327,2.81149327 C3.00675542,2.61623112 3.32333791,2.61623112 3.51860005,2.81149327 Z"
            id="path-1"></path>
    </defs>
    <g
        id="ic/ic_camera_cancel"
        stroke="#000000"
        stroke-opacity="0.3"
        stroke-width="0.3"
        fill="none"
        fill-rule="evenodd">
        <mask
            id="mask-2"
            fill="white">
            <use xlink:href="#path-1"></use>
        </mask>
        <use
            id="Combined-Shape"
            fill="#FFFFFF"
            fill-rule="nonzero"
            xlink:href="#path-1"></use>
    </g>
</svg>