<?xml version="1.0" encoding="UTF-8"?>
<svg width="44px" height="44px" viewBox="0 0 44 44" version="1.1" xmlns="http://www.w3.org/2000/svg" xmlns:xlink="http://www.w3.org/1999/xlink">
    <title>照片</title>
    <g id="照片" stroke="none" stroke-width="1" fill="none" fill-rule="evenodd">
        <g id="编组" fill="#393939">
            <circle id="Oval-3" fill-opacity="0.2" cx="22" cy="22" r="22"></circle>
            <path d="M22,0 C34.1502645,0 44,9.8497355 44,22 C44,34.1502645 34.1502645,44 22,44 C19.6884953,44 17.4602524,43.6435138 15.3672503,42.9825206 C15.2882442,42.986583 15.2067477,42.9764712 15.1261577,42.952146 C15.0319786,42.9237191 14.9475077,42.878438 14.8750493,42.8205997 C6.22168761,39.860194 0,31.6566735 0,22 C0,9.8497355 9.8497355,0 22,0 Z M42.3496493,22.5159151 L42.1767646,22.5152453 C36.1775219,22.5152453 30.4994206,24.4357599 25.748506,28.0715924 C21.3449622,31.4415598 18.0342878,36.1633039 16.3702631,41.4285684 L16.2892359,41.6940371 C18.1019851,42.2187688 20.01815,42.5 22,42.5 C33.1487114,42.5 42.2188061,33.600384 42.4935869,22.5178491 L42.3496493,22.5159151 Z M22,1.5 C10.6781626,1.5 1.5,10.6781626 1.5,22 C1.5,30.8124585 7.06052878,38.3261859 14.8643761,41.2239719 L14.781151,41.4968043 C16.4795274,35.7304461 20.0432224,30.5489163 24.8368932,26.8803904 C29.8496972,23.0441363 35.848219,21.0152453 42.1767646,21.0152453 L42.4768648,21.01739 C41.9641077,10.1518545 32.9924283,1.5 22,1.5 Z M14.0418367,10.5313776 C15.9806132,10.5313776 17.5522959,12.1030603 17.5522959,14.0418367 C17.5522959,15.9806132 15.9806132,17.5522959 14.0418367,17.5522959 C12.1030603,17.5522959 10.5313776,15.9806132 10.5313776,14.0418367 C10.5313776,12.1030603 12.1030603,10.5313776 14.0418367,10.5313776 Z" id="形状结合" fill-rule="nonzero"></path>
        </g>
    </g>
</svg>