<?xml version="1.0" encoding="UTF-8"?>
<svg width="24px"
     height="24px"
     viewBox="0 0 24 24"
     version="1.1"
     xmlns="http://www.w3.org/2000/svg"
     xmlns:xlink="http://www.w3.org/1999/xlink">
    <title>高效视频格式备份</title>
    <g
        id="高效视频格式备份"
        stroke="none"
        stroke-width="1"
        fill="none"
        fill-rule="evenodd">
        <path
            d="M20,3 C21.6568542,3 23,4.34314575 23,6 L23,18 C23,19.6568542 21.6568542,21 20,21 L4,21 C2.34314575,21 1,19.6568542 1,18 L1,6 C1,4.34314575 2.34314575,3 4,3 L20,3 Z M21.5,8 L2.5,8 L2.5,18 C2.5,18.8095992 3.14139372,19.4693929 3.94376543,19.4989654 L4,19.5 L20,19.5 C20.8095992,19.5 21.4693929,18.8586063 21.4989654,18.0562346 L21.5,18 L21.5,8 Z M12.9813117,10.3727829 C13.2022256,10.3727829 13.3813117,10.551869 13.3813117,10.7727829 C13.3813117,10.834881 13.3668537,10.8961262 13.3390826,10.9516684 L12.5259932,12.5735323 L13.7242611,12.5733714 C13.945175,12.5733714 14.1242611,12.7524575 14.1242611,12.9733714 C14.1242611,13.0503274 14.102062,13.1256498 14.0603261,13.1903053 L11.5257826,17.116714 C11.4059733,17.3023176 11.1583873,17.3556543 10.9727837,17.235845 C10.8206344,17.1376308 10.753451,16.9494475 10.8090008,16.7770826 L11.5827389,14.3737829 L11.3857767,14.3739436 L11.3163342,14.3726339 L10.2757389,14.3727829 C10.054825,14.3727829 9.8757389,14.1936968 9.8757389,13.9727829 C9.8757389,13.9106849 9.89019693,13.8494397 9.91796802,13.7938975 L11.4758096,10.6782143 C11.5352707,10.559292 11.5641015,10.5202316 11.6030686,10.4821736 C11.6420357,10.4441155 11.6862851,10.4167679 11.7377518,10.3989347 C11.7892186,10.3811016 11.8370488,10.3727829 11.9700079,10.3727829 L12.9813117,10.3727829 Z M5.75,4.5 L4,4.5 C3.19040076,4.5 2.53060706,5.14139372 2.50103462,5.94376543 L2.5,6 C2.5,6.27614237 2.72385763,6.5 3,6.5 L5.75,6.5 C6.02614237,6.5 6.25,6.27614237 6.25,6 L6.25,5 C6.25,4.72385763 6.02614237,4.5 5.75,4.5 Z M10.75,4.5 L8.25,4.5 C7.97385763,4.5 7.75,4.72385763 7.75,5 L7.75,6 C7.75002169,6.2761339 7.9738661,6.49998802 8.25,6.50002169 L10.7516631,6.50013023 C10.997123,6.50052955 11.2012791,6.32370643 11.2436252,6.09046386 L11.2512474,6.0001521 L11.2512474,6.0001521 L11.2504157,4.99999983 C11.2497704,4.72402024 11.02598,4.50041592 10.75,4.5 Z M15.75,4.5 L13.25,4.5 C12.97402,4.50041592 12.7502296,4.72402024 12.7495843,4.99999983 L12.7487526,6.0001521 C12.7480858,6.27629401 12.9717572,6.5003377 13.2478995,6.50056731 L15.75,6.50002169 C16.0261339,6.49998802 16.2499783,6.2761339 16.25,6 L16.25,5 C16.25,4.72385763 16.0261424,4.5 15.75,4.5 Z M20,4.5 L18.25,4.5 C17.9738576,4.5 17.75,4.72385763 17.75,5 L17.75,6 C17.75,6.27614237 17.9738576,6.5 18.25,6.5 L21,6.5 C21.2454599,6.5 21.4496084,6.32312484 21.4919443,6.08987563 L21.5,6 C21.5,5.19040076 20.8586063,4.53060706 20.0562346,4.50103462 L20,4.5 Z"
            id="形状结合"
            fill="#000000"></path>
    </g>
</svg>