<?xml version="1.0" encoding="UTF-8"?>
<svg width="30px" height="30px" viewBox="0 0 30 30" version="1.1" xmlns="http://www.w3.org/2000/svg" xmlns:xlink="http://www.w3.org/1999/xlink">
    <title>ic-调焦</title>
    <defs>
        <path d="M11.3750587,2.5 C11.8928256,2.5 12.3125587,2.91973305 12.3125587,3.4375 C12.3125587,3.95526695 11.8928256,4.375 11.3750587,4.375 L6.25,4.375 C5.21446609,4.375 4.375,5.21446609 4.375,6.25 L4.375,11.3890793 C4.375,11.9068463 3.95526695,12.3265793 3.4375,12.3265793 C2.91973305,12.3265793 2.5,11.9068463 2.5,11.3890793 L2.5,6.25 C2.5,4.17893219 4.17893219,2.5 6.25,2.5 L11.3750587,2.5 Z M2.5,18.7050756 C2.5,18.1873086 2.91973305,17.7675756 3.4375,17.7675756 C3.95526695,17.7675756 4.375,18.1873086 4.375,18.7050756 L4.375,23.75 C4.375,24.7855339 5.21446609,25.625 6.25,25.625 L11.3822214,25.625 C11.8999884,25.625 12.3197214,26.044733 12.3197214,26.5625 C12.3197214,27.080267 11.8999884,27.5 11.3822214,27.5 L6.25,27.5 C4.17893219,27.5 2.5,25.8210678 2.5,23.75 L2.5,18.7050756 Z M18.6498692,27.5 C18.1321023,27.5 17.7123692,27.080267 17.7123692,26.5625 C17.7123692,26.044733 18.1321023,25.625 18.6498692,25.625 L23.75,25.625 C24.7855339,25.625 25.625,24.7855339 25.625,23.75 L25.625,18.6642059 C25.625,18.1464389 26.044733,17.7267059 26.5625,17.7267059 C27.080267,17.7267059 27.5,18.1464389 27.5,18.6642059 L27.5,23.75 C27.5,25.8210678 25.8210678,27.5 23.75,27.5 L18.6498692,27.5 Z M27.5,11.3789672 C27.5,11.8967342 27.080267,12.3164672 26.5625,12.3164672 C26.044733,12.3164672 25.625,11.8967342 25.625,11.3789672 L25.625,6.25 C25.625,5.21446609 24.7855339,4.375 23.75,4.375 L18.6664067,4.375 C18.1486398,4.375 17.7289067,3.95526695 17.7289067,3.4375 C17.7289067,2.91973305 18.1486398,2.5 18.6664067,2.5 L23.75,2.5 C25.8210678,2.5 27.5,4.17893219 27.5,6.25 L27.5,11.3789672 Z" id="path-1"></path>
    </defs>
    <g id="ic-调焦" stroke="none" stroke-width="1" fill="none" fill-rule="evenodd">
        <mask id="mask-2" fill="white">
            <use xlink:href="#path-1"></use>
        </mask>
        <use id="合并形状" fill="#FFFFFF" fill-rule="nonzero" opacity="0.900000036" xlink:href="#path-1"></use>
    </g>
</svg>