<?xml version="1.0" standalone="no"?>
<svg xmlns="http://www.w3.org/2000/svg" width="25" height="24">
    <rect width="25" height="24" opacity="0"></rect>
    <g>
        <path d="M23.62 6.82Q23.24 6.58 22.76 6.56Q22.28 6.55 21.87 6.79L18.94 8.35L18.94 7.06Q18.94 6.29 18.56 5.64Q18.18 4.99 17.53 4.62Q16.88 4.25 16.11 4.25L3.32 4.25Q2.55 4.25 1.9 4.62Q1.26 4.99 0.87 5.64Q0.49 6.29 0.49 7.06L0.49 16.94Q0.49 17.71 0.87 18.36Q1.26 19.01 1.9 19.38Q2.55 19.75 3.32 19.75L16.11 19.75Q16.88 19.75 17.53 19.38Q18.18 19.01 18.56 18.36Q18.94 17.71 18.94 16.94L18.94 15.36L21.82 17.04Q22.23 17.28 22.71 17.28Q23.19 17.28 23.62 17.06Q24.03 16.82 24.27 16.43Q24.51 16.03 24.51 15.55L24.51 8.3Q24.51 7.85 24.27 7.45Q24.03 7.06 23.62 6.82ZM17.43 16.94Q17.43 17.47 17.05 17.86Q16.66 18.24 16.11 18.24L3.32 18.24Q2.77 18.24 2.38 17.86Q2 17.47 2 16.94L2 7.06Q2 6.53 2.38 6.14Q2.77 5.76 3.32 5.76L16.11 5.76Q16.66 5.76 17.05 6.14Q17.43 6.53 17.43 7.06L17.43 16.94ZM22.98 15.53Q22.98 15.7 22.87 15.76Q22.76 15.82 22.59 15.77L18.94 13.63L18.94 10.08L22.62 8.11Q22.71 8.02 22.84 8.1Q22.98 8.18 22.98 8.33L22.98 15.53Z"
              fill="#ffffff"></path>
    </g>
</svg>