<?xml version="1.0" encoding="UTF-8"?>
<svg width="14.000000" height="14.000000" viewBox="0 0 14 14" fill="none" xmlns="http://www.w3.org/2000/svg" xmlns:xlink="http://www.w3.org/1999/xlink">
    <desc>
        Created with Pixso.
    </desc>
    <defs/>
    <path id="路径" d="M8.92 2.31L8.91 2.33L4.61 6.25C4.2 6.65 4.19 7.29 4.58 7.71L4.61 7.73L8.91 11.66C8.99 11.74 9.09 11.78 9.19 11.79L9.22 11.79L9.25 11.79C9.36 11.79 9.47 11.75 9.56 11.66C9.73 11.49 9.74 11.22 9.58 11.04L9.56 11.02L5.48 7.31C5.31 7.14 5.3 6.87 5.46 6.69L5.48 6.67L9.56 2.96C9.74 2.79 9.74 2.5 9.56 2.33C9.47 2.24 9.36 2.2 9.25 2.2L9.22 2.2C9.11 2.2 9.01 2.24 8.92 2.31Z" fill="#FFFFFF" fill-opacity="1.000000" fill-rule="evenodd"/>
</svg>