<?xml version="1.0" encoding="UTF-8"?>
<svg width="24px" height="24px" viewBox="0 0 24 24" version="1.1" xmlns="http://www.w3.org/2000/svg" xmlns:xlink="http://www.w3.org/1999/xlink">
    <title>编组 149</title>
    <defs>
        <path d="M14.1205992,0 C14.7758689,0 15.3895761,0.320989556 15.7633392,0.859208381 L16.9027778,2.5 L19,2.5 C20.6568542,2.5 22,3.84314575 22,5.5 L22,14.5 C22,16.1568542 20.6568542,17.5 19,17.5 L3,17.5 C1.34314575,17.5 0,16.1568542 0,14.5 L0,5.5 C0,3.84314575 1.34314575,2.5 3,2.5 L5.09722222,2.5 L6.23666085,0.859208381 C6.61042392,0.320989556 7.22413111,0 7.87940078,0 L14.1205992,0 Z M14.1205992,1.5 L7.87940078,1.5 C7.71558336,1.5 7.56215656,1.58024739 7.4687158,1.7148021 L5.88177281,4 L3,4 C2.17157288,4 1.5,4.67157288 1.5,5.5 L1.5,14.5 C1.5,15.3284271 2.17157288,16 3,16 L19,16 C19.8284271,16 20.5,15.3284271 20.5,14.5 L20.5,5.5 C20.5,4.67157288 19.8284271,4 19,4 L16.1182272,4 L14.5312842,1.7148021 C14.4378434,1.58024739 14.2844166,1.5 14.1205992,1.5 Z M11,4.75 C13.6233526,4.75 15.75,6.87664744 15.75,9.5 C15.75,12.1233526 13.6233526,14.25 11,14.25 C8.37664744,14.25 6.25,12.1233526 6.25,9.5 C6.25,6.87664744 8.37664744,4.75 11,4.75 Z M11,6.25 C9.20507456,6.25 7.75,7.70507456 7.75,9.5 C7.75,11.2949254 9.20507456,12.75 11,12.75 C12.7949254,12.75 14.25,11.2949254 14.25,9.5 C14.25,7.70507456 12.7949254,6.25 11,6.25 Z" id="path-1"></path>
    </defs>
    <g id="控件" stroke="none" stroke-width="1" fill="none" fill-rule="evenodd">
        <g id="专业-录像拍照" transform="translate(-10.000000, -10.000000)">
            <g id="编组-149" transform="translate(22.000000, 22.000000) rotate(-360.000000) translate(-22.000000, -22.000000) translate(10.000000, 10.000000)">
                <g id="Public/ic_public_camera" transform="translate(1.000000, 3.000000)">
                    <mask id="mask-2" fill="white">
                        <use xlink:href="#path-1"></use>
                    </mask>
                    <g id="合并形状" fill-rule="nonzero"></g>
                    <g id="Symbol/color-light/colorPrimary" mask="url(#mask-2)" fill="#FFFFFF">
                        <g transform="translate(-1.000000, -3.000000)" id="color/#000000">
                            <rect x="0" y="0" width="24" height="24"></rect>
                        </g>
                    </g>
                </g>
            </g>
        </g>
    </g>
</svg>