<?xml version="1.0" encoding="UTF-8"?>
<svg width="28.8538929px" height="29.9683353px" viewBox="0 0 28.8538929 29.9683353" version="1.1" xmlns="http://www.w3.org/2000/svg" xmlns:xlink="http://www.w3.org/1999/xlink">
    <title>Path 2</title>
    <defs>
        <path d="M14.7427788,8.90916759 L14.7427788,1.00722119 C14.7427788,0.758693048 14.9442507,0.557221186 15.1927788,0.557221186 C15.3132991,0.557221186 15.4287827,0.605565489 15.5133603,0.691424527 L29.2816955,14.6683709 C29.4542536,14.8435435 29.4542536,15.1247917 29.2816955,15.2999643 L15.5133603,29.2769107 C15.3389506,29.4539629 15.0540344,29.4561051 14.8769822,29.2816955 C14.7911231,29.1971179 14.7427788,29.0816343 14.7427788,28.961114 L14.7427788,21.0591676 L-0.107221186,21.0591676 C-0.355749323,21.0591676 -0.557221186,20.8576957 -0.557221186,20.6091676 L-0.557221186,9.35916759 C-0.557221186,9.11063946 -0.355749323,8.90916759 -0.107221186,8.90916759 L14.7427788,8.90916759 Z" id="path-1"></path>
    </defs>
    <g id="页面-1" stroke="none" stroke-width="1" fill="none" fill-rule="evenodd">
        <mask id="mask-2" fill="white">
            <use xlink:href="#path-1" transform="translate(14.4269, 14.9842) rotate(-90) translate(-14.4269, -14.9842)"></use>
        </mask>
        <use id="Path" fill="#FFFFFF" transform="translate(14.4269, 14.9842) rotate(-90) translate(-14.4269, -14.9842)" xlink:href="#path-1"></use>
    </g>
</svg>