<?xml version="1.0" encoding="UTF-8"?>
<svg width="29.9683353px" height="28.8538929px" viewBox="0 0 29.9683353 28.8538929" version="1.1" xmlns="http://www.w3.org/2000/svg" xmlns:xlink="http://www.w3.org/1999/xlink">
    <title>Path</title>
    <defs>
        <path d="M15.3,8.35194641 L15.3,0.45 C15.3,0.201471863 15.5014719,0 15.75,0 C15.8705203,0 15.9860039,0.0483443028 16.0705815,0.134203341 L29.8389167,14.1111497 C30.0114748,14.2863223 30.0114748,14.5675705 29.8389167,14.7427431 L16.0705815,28.7196895 C15.8961718,28.8967417 15.6112556,28.898884 15.4342033,28.7244743 C15.3483443,28.6398967 15.3,28.5244131 15.3,28.4038928 L15.3,20.5019464 L0.45,20.5019464 C0.201471863,20.5019464 0,20.3004745 0,20.0519464 L0,8.80194641 C0,8.55341827 0.201471863,8.35194641 0.45,8.35194641 L15.3,8.35194641 Z" id="path-1"></path>
    </defs>
    <g id="页面-1" stroke="none" stroke-width="1" fill="none" fill-rule="evenodd">
        <mask id="mask-2" fill="white">
            <use xlink:href="#path-1"></use>
        </mask>
        <use id="Path" fill="#FFFFFF" xlink:href="#path-1"></use>
    </g>
</svg>