<svg width="24.000000" height="24.000000" viewBox="0 0 24 24" fill="none" xmlns="http://www.w3.org/2000/svg" xmlns:xlink="http://www.w3.org/1999/xlink">
    <desc>
        Created with Pixso.
    </desc>
    <defs>
        <filter id="filter_70_117_dd" x="-3.250000" y="-3.750000" width="21.500000" height="31.500000" filterUnits="userSpaceOnUse" color-interpolation-filters="sRGB">
            <feFlood flood-opacity="0" result="BackgroundImageFix"/>
            <feColorMatrix in="SourceAlpha" type="matrix" values="0 0 0 0 0 0 0 0 0 0 0 0 0 0 0 0 0 0 127 0" result="hardAlpha"/>
            <feOffset dx="0" dy="0"/>
            <feGaussianBlur stdDeviation="2.75"/>
            <feComposite in2="hardAlpha" operator="out" k2="-1" k3="1"/>
            <feColorMatrix type="matrix" values="0 0 0 0 0 0 0 0 0 0 0 0 0 0 0 0 0 0 0.2 0"/>
            <feBlend mode="normal" in2="BackgroundImageFix" result="effect_dropShadow_1"/>
            <feBlend mode="normal" in="SourceGraphic" in2="effect_dropShadow_1" result="shape"/>
        </filter>
        <filter id="filter_70_118_dd" x="5.750000" y="-3.750000" width="21.500000" height="31.500000" filterUnits="userSpaceOnUse" color-interpolation-filters="sRGB">
            <feFlood flood-opacity="0" result="BackgroundImageFix"/>
            <feColorMatrix in="SourceAlpha" type="matrix" values="0 0 0 0 0 0 0 0 0 0 0 0 0 0 0 0 0 0 127 0" result="hardAlpha"/>
            <feOffset dx="0" dy="0"/>
            <feGaussianBlur stdDeviation="2.75"/>
            <feComposite in2="hardAlpha" operator="out" k2="-1" k3="1"/>
            <feColorMatrix type="matrix" values="0 0 0 0 0 0 0 0 0 0 0 0 0 0 0 0 0 0 0.2 0"/>
            <feBlend mode="normal" in2="BackgroundImageFix" result="effect_dropShadow_1"/>
            <feBlend mode="normal" in="SourceGraphic" in2="effect_dropShadow_1" result="shape"/>
        </filter>
    </defs>
    <mask id="mask_70_119" fill="white">
        <path id="small_pause" d="M5.45833 4.5L9.54167 4.5C9.7948 4.5 10 4.70508 10 4.9585L10 19.0415C10 19.2949 9.7948 19.5 9.54167 19.5L5.45833 19.5C5.2052 19.5 5 19.2949 5 19.0415L5 4.9585C5 4.70508 5.2052 4.5 5.45833 4.5ZM18.5417 4.5L14.4583 4.5C14.2052 4.5 14 4.70508 14 4.9585L14 19.0415C14 19.2949 14.2052 19.5 14.4583 19.5L18.5417 19.5C18.7948 19.5 19 19.2949 19 19.0415L19 4.9585C19 4.70508 18.7948 4.5 18.5417 4.5Z" clip-rule="evenodd" fill="" fill-opacity="1.000000" fill-rule="evenodd"/>
    </mask>
    <path id="small_pause" d="M5.45833 4.5L9.54167 4.5C9.7948 4.5 10 4.70508 10 4.9585L10 19.0415C10 19.2949 9.7948 19.5 9.54167 19.5L5.45833 19.5C5.2052 19.5 5 19.2949 5 19.0415L5 4.9585C5 4.70508 5.2052 4.5 5.45833 4.5ZM18.5417 4.5L14.4583 4.5C14.2052 4.5 14 4.70508 14 4.9585L14 19.0415C14 19.2949 14.2052 19.5 14.4583 19.5L18.5417 19.5C18.7948 19.5 19 19.2949 19 19.0415L19 4.9585C19 4.70508 18.7948 4.5 18.5417 4.5Z" clip-rule="evenodd" fill="#FFFFFF" fill-opacity="1.000000" fill-rule="evenodd" mask="url(#mask_70_119)"/>
    <path id="small_pause" d="" clip-rule="evenodd" fill="#979797" fill-opacity="0.000000" fill-rule="evenodd"/>
</svg>