<svg width="32.000000" height="24.000000" viewBox="0 0 32 24" fill="none" xmlns="http://www.w3.org/2000/svg" xmlns:xlink="http://www.w3.org/1999/xlink">
    <desc>
        Created with Pixso.
    </desc>
    <defs>
        <filter id="filter_190_8319_dd" x="-0.869751" y="-0.701050" width="33.734741" height="25.401199" filterUnits="userSpaceOnUse" color-interpolation-filters="sRGB">
            <feFlood flood-opacity="0" result="BackgroundImageFix"/>
            <feColorMatrix in="SourceAlpha" type="matrix" values="0 0 0 0 0 0 0 0 0 0 0 0 0 0 0 0 0 0 127 0" result="hardAlpha"/>
            <feOffset dx="0" dy="0"/>
            <feGaussianBlur stdDeviation="1"/>
            <feComposite in2="hardAlpha" operator="out" k2="-1" k3="1"/>
            <feColorMatrix type="matrix" values="0 0 0 0 0 0 0 0 0 0 0 0 0 0 0 0 0 0 0.2 0"/>
            <feBlend mode="normal" in2="BackgroundImageFix" result="effect_dropShadow_1"/>
            <feBlend mode="normal" in="SourceGraphic" in2="effect_dropShadow_1" result="shape"/>
        </filter>
        <clipPath id="clip190_8306">
            <rect id="关" width="32.000000" height="24.000000" fill="white" fill-opacity="0"/>
        </clipPath>
    </defs>
    <rect id="关" width="32.000000" height="24.000000" fill="#030303" fill-opacity="0"/>
    <g clip-path="url(#clip190_8306)">
        <g opacity="0.000000">
            <rect id="rect" width="33.599976" height="24.000000" fill="#FFFFFF" fill-opacity="1.000000"/>
        </g>
        <g filter="url(#filter_190_8319_dd)">
            <path id="合并" d="M6.36194 2.73802Q6.41675 2.61748 6.5199 2.51895C6.66663 2.37228 6.84326 2.29895 7.04993 2.29895Q7.203 2.29895 7.33411 2.3526Q7.46863 2.40759 7.57996 2.51895L25.48 20.4189Q25.6104 20.5612 25.6635 20.7281Q25.7 20.8427 25.7 20.9689Q25.7 21.122 25.6464 21.2531Q25.5913 21.3876 25.48 21.4989C25.3533 21.6256 25.1932 21.6923 25 21.6989C24.8066 21.7123 24.5599 21.6123 24.4199 21.4989L6.5199 3.56895C6.37329 3.42896 6.29993 3.25229 6.29993 3.03896Q6.29993 2.87439 6.36194 2.73802ZM19.4609 12.7969L13.7118 7.04449Q14.0623 7 14.4309 7C15.3707 7 16.2214 7.21797 16.9832 7.65392Q17.3112 7.84102 17.6 8.0762L17.6 8.07622L17.6 8.07625Q18.3204 8.66295 18.7972 9.54883Q19.4688 10.7863 19.4688 12.4422Q19.4688 12.622 19.4609 12.7969ZM24.3538 17.6925L20.9257 14.2624C20.761 13.7008 20.6787 13.094 20.6787 12.4422C20.6787 11.3664 20.906 10.416 21.3607 9.59102Q21.7729 8.84685 22.3696 8.30608L22.3699 8.30582Q22.7653 7.94751 23.2416 7.67851C24.0385 7.22618 24.9221 7 25.8923 7Q27.2924 7 28.3394 7.60794L28.3452 7.61134Q28.3495 7.61385 28.3538 7.61635Q28.3606 7.62033 28.3673 7.62433Q28.3751 7.62894 28.3828 7.63356Q28.3998 7.64366 28.4166 7.65392C29.1338 8.08984 29.6166 8.64883 29.865 9.33086L28.1388 10.3258C27.9279 9.88516 27.6256 9.53711 27.2318 9.28165Q27.1768 9.24594 27.1199 9.21358L27.1198 9.21352Q26.5658 8.89844 25.8326 8.89844C25.2677 8.89844 24.7592 9.04259 24.3069 9.33086C23.8568 9.61914 23.5017 10.0328 23.2416 10.5719Q22.8549 11.377 22.8549 12.4422C22.8549 13.1711 22.9861 13.8051 23.2487 14.3441C23.5134 14.8809 23.8884 15.2934 24.3737 15.5816Q24.4204 15.6094 24.4681 15.6354Q25.1632 16.0141 26.0646 16.0141Q27.0516 16.0141 27.6628 15.5348L27.6631 15.5346L27.6632 15.5345L27.6635 15.5344Q27.7465 15.4693 27.8224 15.3953L27.8224 13.6797L25.8326 13.6797L25.8326 11.8797L29.865 11.8797L29.865 16.1723C29.5392 16.6996 29.0189 17.1191 28.3041 17.4309Q27.2318 17.8984 25.9346 17.8984Q25.0927 17.8984 24.3538 17.6925ZM2.13025 7.18633L4.21851 7.18633L4.21851 15.8559L9.01379 15.8559L9.01379 17.7262L2.13025 17.7262L2.13025 7.18633ZM10.1963 9.31615Q10.1282 9.42979 10.0645 9.54883Q9.40356 10.7863 9.40356 12.4422Q9.40356 14.1121 10.0645 15.3531Q10.5366 16.2326 11.2504 16.8173Q11.5409 17.0553 11.8715 17.2445Q12.15 17.4035 12.4445 17.5238L12.4445 17.5238L12.4446 17.5238L12.4447 17.5239L12.4447 17.5239L12.4448 17.5239Q13.3613 17.8984 14.4309 17.8984C15.3707 17.8984 16.2214 17.6805 16.9832 17.2445Q17.3181 17.0534 17.6123 16.8125L17.6123 16.8125L17.6123 16.8124L17.6125 16.8123Q17.6344 16.7943 17.6561 16.776L16.1953 15.3151C16.1038 15.3992 16.0066 15.4763 15.9039 15.5465C15.4773 15.8395 14.9863 15.9859 14.4309 15.9859Q13.8436 15.9859 13.3516 15.7695L13.3516 15.7694Q13.1426 15.6775 12.9508 15.5465C12.5242 15.2535 12.1937 14.8387 11.9594 14.302Q11.6078 13.4934 11.6078 12.4422Q11.6078 11.6154 11.8253 10.9451L10.1963 9.31615Z" clip-rule="evenodd" fill="#FFFFFF" fill-opacity="1.000000" fill-rule="evenodd"/>
        </g>
    </g>
</svg>
