<svg width="32.000000" height="24.000000" viewBox="0 0 32 24" fill="none" xmlns="http://www.w3.org/2000/svg" xmlns:xlink="http://www.w3.org/1999/xlink">
    <desc>
        Created with Pixso.
    </desc>
    <defs>
        <filter id="filter_190_8290_dd" x="-0.869995" y="4.000000" width="33.734741" height="16.898438" filterUnits="userSpaceOnUse" color-interpolation-filters="sRGB">
            <feFlood flood-opacity="0" result="BackgroundImageFix"/>
            <feColorMatrix in="SourceAlpha" type="matrix" values="0 0 0 0 0 0 0 0 0 0 0 0 0 0 0 0 0 0 127 0" result="hardAlpha"/>
            <feOffset dx="0" dy="0"/>
            <feGaussianBlur stdDeviation="1"/>
            <feComposite in2="hardAlpha" operator="out" k2="-1" k3="1"/>
            <feColorMatrix type="matrix" values="0 0 0 0 0 0 0 0 0 0 0 0 0 0 0 0 0 0 0.2 0"/>
            <feBlend mode="normal" in2="BackgroundImageFix" result="effect_dropShadow_1"/>
            <feBlend mode="normal" in="SourceGraphic" in2="effect_dropShadow_1" result="shape"/>
        </filter>
        <clipPath id="clip190_8291">
            <rect id="开" width="32.000000" height="24.000000" fill="white" fill-opacity="0"/>
        </clipPath>
    </defs>
    <rect id="开" width="32.000000" height="24.000000" fill="#030303" fill-opacity="0"/>
    <g clip-path="url(#clip190_8291)">
        <g filter="url(#filter_190_8290_dd)">
            <path id="LOG" d="M9.4 12.44Q9.4 10.78 10.06 9.54Q10.54 8.65 11.26 8.07L11.26 8.07Q11.54 7.83 11.87 7.65Q12.15 7.49 12.44 7.37Q13.36 7 14.43 7C15.37 7 16.22 7.21 16.98 7.65Q17.31 7.84 17.59 8.07Q18.32 8.66 18.79 9.54Q19.46 10.78 19.46 12.44Q19.46 14.11 18.79 15.35Q18.32 16.22 17.61 16.81L17.61 16.81Q17.31 17.05 16.98 17.24C16.22 17.68 15.37 17.89 14.43 17.89Q13.36 17.89 12.44 17.52L12.44 17.52Q12.14 17.4 11.87 17.24Q11.54 17.05 11.25 16.81Q10.53 16.23 10.06 15.35Q9.4 14.11 9.4 12.44ZM25.83 11.87L25.83 13.67L27.82 13.67L27.82 15.39C27.39 15.8 26.81 16.01 26.06 16.01C25.42 16.01 24.85 15.86 24.37 15.58C23.88 15.29 23.51 14.88 23.24 14.34C22.98 13.8 22.85 13.17 22.85 12.44C22.85 11.73 22.98 11.1 23.24 10.57C23.5 10.03 23.85 9.61 24.3 9.33C24.75 9.04 25.26 8.89 25.83 8.89Q26.56 8.89 27.11 9.21Q27.17 9.24 27.23 9.28C27.62 9.53 27.92 9.88 28.13 10.32L29.86 9.33C29.61 8.64 29.13 8.08 28.41 7.65Q28.37 7.63 28.33 7.6Q27.29 7 25.89 7C24.92 7 24.03 7.22 23.24 7.67Q22.76 7.94 22.36 8.3Q21.77 8.84 21.36 9.59C20.9 10.41 20.67 11.36 20.67 12.44C20.67 13.5 20.89 14.45 21.33 15.27C21.78 16.1 22.4 16.74 23.19 17.2Q23.32 17.28 23.45 17.34Q24.55 17.89 25.93 17.89Q27.23 17.89 28.3 17.43C29.01 17.11 29.53 16.69 29.86 16.17L29.86 11.87L25.83 11.87ZM2.13 7.18L4.21 7.18L4.21 15.85L9.01 15.85L9.01 17.72L2.13 17.72L2.13 7.18ZM11.6 12.44Q11.6 13.49 11.95 14.3C12.19 14.83 12.52 15.25 12.95 15.54Q13.14 15.67 13.35 15.76Q13.84 15.98 14.43 15.98C14.98 15.98 15.47 15.83 15.9 15.54C16.33 15.25 16.66 14.83 16.89 14.3Q17.25 13.49 17.25 12.44Q17.25 11.39 16.89 10.59Q16.59 9.89 16.06 9.47Q15.98 9.41 15.9 9.35C15.47 9.06 14.98 8.91 14.43 8.91Q13.84 8.91 13.35 9.13L13.35 9.13Q13.14 9.22 12.95 9.35C12.52 9.64 12.19 10.05 11.95 10.59Q11.6 11.39 11.6 12.44Z" fill="#FFFFFF" fill-opacity="1.000000" fill-rule="evenodd"/>
        </g>
    </g>
</svg>
