<svg width="48.000000" height="48.000000" viewBox="0 0 48 48" fill="none" xmlns="http://www.w3.org/2000/svg" xmlns:xlink="http://www.w3.org/1999/xlink">
	<desc>
			Created with Pixso.
	</desc>
	<defs/>
	<g opacity="0.400000">
		<rect id="矩形备份" rx="8.000000" width="48.000000" height="48.000000" fill="#4D4D4D" fill-opacity="1.000000"/>
	</g>
	<path id="path" d="M24 16.67C23 16.67 22.06 16.86 21.17 17.23C20.28 17.6 19.49 18.12 18.81 18.8C18.14 19.48 17.61 20.27 17.24 21.16C16.86 22.06 16.67 23 16.67 24C16.67 25.32 17 26.54 17.65 27.66C18.31 28.78 19.2 29.67 20.32 30.33C21.45 30.99 22.67 31.32 24 31.32C25.32 31.32 26.54 31 27.67 30.34C28.79 29.68 29.68 28.79 30.34 27.67C31 26.54 31.32 25.32 31.32 24C31.32 22.67 30.99 21.45 30.33 20.32C29.67 19.2 28.78 18.31 27.66 17.65C26.54 17 25.32 16.67 24 16.67ZM17.66 24C17.66 23.23 17.79 22.49 18.06 21.79C18.33 21.08 18.7 20.45 19.18 19.88L28.11 28.8C27.54 29.28 26.91 29.66 26.2 29.93C25.5 30.2 24.76 30.33 24 30.33C22.85 30.33 21.8 30.04 20.83 29.48C19.86 28.91 19.08 28.14 18.52 27.16C17.95 26.19 17.66 25.14 17.66 24ZM19.88 19.18C20.46 18.7 21.1 18.33 21.8 18.06C22.49 17.8 23.23 17.66 24 17.66C25.14 17.66 26.19 17.95 27.16 18.52C28.14 19.08 28.91 19.86 29.48 20.83C30.04 21.8 30.33 22.85 30.33 24C30.33 24.76 30.2 25.5 29.93 26.2C29.66 26.89 29.28 27.53 28.8 28.11L19.88 19.18Z" fill="#FFFFFF" fill-opacity="0.901961" fill-rule="nonzero"/>
</svg>
