<svg width="24.000000" height="24.000000" viewBox="0 0 24 24" fill="none" xmlns="http://www.w3.org/2000/svg" xmlns:xlink="http://www.w3.org/1999/xlink">
	<desc>
		Created with Pixso.
	</desc>
	<defs>
		<clipPath id="clip113_4389">
			<rect id="录制完成" width="24.000000" height="24.000000" fill="white" fill-opacity="0"/>
		</clipPath>
	</defs>
	<g clip-path="url(#clip113_4389)">
		<rect id="录制完成" width="24.000000" height="24.000000" fill="#8C8C8C" fill-opacity="0"/>
		<path id="合并" d="M12 1C5.91998 1 1 5.92004 1 12C1 18.0699 5.91998 23 12 23C18.07 23 23 18.0699 23 12C23 5.92004 18.07 1 12 1ZM12 2.5C6.75 2.5 2.5 6.75 2.5 12C2.5 17.24 6.75 21.5 12 21.5C17.24 21.5 21.5 17.24 21.5 12C21.5 6.75 17.24 2.5 12 2.5ZM17.2559 8.90466C17.3995 8.91064 17.5345 8.9386 17.6611 8.98816C17.7186 9.01196 17.798 9.05005 17.8516 9.08313C17.933 9.13196 18.0474 9.22778 18.1148 9.29138C18.1793 9.35791 18.2364 9.43164 18.2861 9.51245C18.3535 9.62488 18.4027 9.7511 18.4296 9.87207C18.4463 9.95007 18.4546 10.0299 18.4546 10.1113L18.4546 13.8119C18.4546 13.9292 18.431 14.0675 18.3994 14.1754C18.3718 14.2627 18.3337 14.3464 18.2854 14.4271C18.2379 14.5044 18.1838 14.5747 18.1232 14.6385C18.0449 14.7209 17.9424 14.7998 17.8292 14.8678C17.7175 14.9236 17.5804 14.9678 17.4622 14.9916C17.3818 15.0062 17.3002 15.0135 17.2171 15.0135C17.0869 15.0135 16.9383 14.9862 16.8206 14.948C16.7464 14.922 16.675 14.8883 16.6063 14.847L15.6167 14.2699L15.6167 14.5212C15.6167 14.698 15.5842 14.8922 15.5349 15.0538C15.4953 15.1765 15.4415 15.2947 15.3735 15.4081C15.2988 15.5359 15.1729 15.6885 15.0722 15.7906C14.9705 15.8878 14.8567 15.972 14.7308 16.0437C14.6245 16.1042 14.4921 16.1599 14.3782 16.1965C14.2095 16.2484 14.0329 16.2744 13.8483 16.2744L7.32013 16.2744C7.12067 16.2744 6.90698 16.2357 6.72784 16.1754C6.62939 16.1406 6.53412 16.0967 6.44214 16.0433C6.33655 15.9834 6.2019 15.8805 6.11243 15.802C5.99017 15.6882 5.8844 15.557 5.79498 15.4081C5.72675 15.2911 5.66901 15.1566 5.63019 15.0311C5.5813 14.8685 5.55688 14.6986 5.55688 14.5212L5.55688 9.47839C5.55688 9.30737 5.58704 9.11853 5.63275 8.96094C5.67194 8.83276 5.72626 8.70935 5.79572 8.5907C5.88605 8.43994 6.00134 8.29993 6.125 8.18579C6.2207 8.09863 6.32617 8.02234 6.44147 7.95679C6.52692 7.90735 6.67084 7.84631 6.76208 7.81262C6.93854 7.75439 7.12451 7.72534 7.32013 7.72534L13.8483 7.72534C14.0329 7.72534 14.2333 7.75879 14.402 7.81067C14.5154 7.84729 14.625 7.89575 14.7308 7.95593C14.8622 8.03076 14.9979 8.13647 15.1027 8.23865C15.2062 8.34241 15.2963 8.45984 15.3727 8.5907C15.4376 8.69873 15.5084 8.87048 15.5474 8.9873C15.5936 9.14429 15.6167 9.30786 15.6167 9.47839L15.6167 9.6051L16.6331 9.06213C16.7177 9.01318 16.8176 8.97217 16.9088 8.94604C17.0179 8.91589 17.1349 8.90222 17.2559 8.90466ZM14.1013 14.7671C14.1404 14.7264 14.1682 14.6827 14.1846 14.6357C14.1971 14.6001 14.2034 14.562 14.2034 14.5212L14.2034 9.47839C14.2034 9.43506 14.1964 9.3949 14.1826 9.35754C14.166 9.31299 14.0524 9.20837 14.0152 9.17029C13.9667 9.14575 13.9111 9.13354 13.8483 9.13354L7.32013 9.13354C7.27435 9.13354 7.16736 9.18677 7.10504 9.21741C7.06213 9.2605 6.99811 9.32361 6.98151 9.37341C6.97058 9.40625 6.96509 9.44128 6.96509 9.47839L6.96509 14.5212C6.96509 14.5583 6.97058 14.5935 6.98151 14.6262C6.99811 14.6761 7.12561 14.792 7.16858 14.8348C7.2135 14.8557 7.26404 14.8662 7.32013 14.8662L13.8483 14.8662C13.9061 14.8662 14.044 14.796 14.1013 14.7671ZM17.0361 13.484L17.0361 10.4486L15.6167 11.2104L15.6167 12.6494L17.0361 13.484Z" clip-rule="evenodd" fill="#FFFFFF" fill-opacity="1.000000" fill-rule="evenodd"/>
	</g>
</svg>
