<svg width="24.000000" height="24.000000" viewBox="0 0 24 24" fill="none" xmlns="http://www.w3.org/2000/svg" xmlns:xlink="http://www.w3.org/1999/xlink">
	<desc>
			Created with Pixso.
	</desc>
	<defs>
		<clipPath id="clip8_2359">
			<rect id="关闭状态" width="24.000000" height="24.000000" fill="white" fill-opacity="0"/>
		</clipPath>
	</defs>
	<rect id="关闭状态" width="24.000000" height="24.000000" fill="#8C8C8C" fill-opacity="0"/>
	<g clip-path="url(#clip8_2359)">
		<rect id="矩形 139" x="2.924316" y="1.863525" rx="0.750000" width="27.150330" height="1.500000" transform="rotate(45 2.924316 1.863525)" fill="#FFFFFF" fill-opacity="1.000000"/>
		<path id="减去顶层" d="M3.38721 5.15674C1.89288 7.03503 1 9.41321 1 12C1 18.0752 5.92487 23 12 23C14.5867 23 16.965 22.1072 18.8432 20.6128L17.7745 19.5441C16.1743 20.7709 14.1722 21.5 12 21.5C6.7533 21.5 2.5 17.2467 2.5 12C2.5 9.82776 3.22906 7.82581 4.45587 6.22546L3.38721 5.15674ZM5.15668 3.38733L6.22534 4.45593C7.82568 3.22913 9.8277 2.5 12 2.5C17.2467 2.5 21.5 6.7533 21.5 12C21.5 14.1722 20.7709 16.1743 19.5441 17.7747L20.6127 18.8433C22.1071 16.965 23 14.5868 23 12C23 5.92493 18.0751 1 12 1C9.41321 1 7.03497 1.89294 5.15668 3.38733ZM16.6309 14.8615C16.692 14.8962 16.7552 14.925 16.8206 14.9479C16.9383 14.9862 17.0869 15.0137 17.2171 15.0137C17.3002 15.0137 17.3818 15.0062 17.4622 14.9915C17.5804 14.9677 17.7175 14.9236 17.8292 14.8677C17.9424 14.7998 18.0449 14.7209 18.1232 14.6385C18.1838 14.5747 18.2379 14.5043 18.2854 14.4271C18.3337 14.3466 18.3718 14.2627 18.3994 14.1755C18.431 14.0674 18.4546 13.9292 18.4546 13.8119L18.4546 10.1113C18.4546 10.0298 18.4463 9.95007 18.4296 9.87219C18.4027 9.75098 18.3535 9.62488 18.2861 9.51257C18.2363 9.43176 18.1793 9.35803 18.1148 9.2915C18.0474 9.22778 17.933 9.13196 17.8516 9.08313C17.798 9.05017 17.7186 9.01196 17.6611 8.98804L17.6609 8.98804L17.6606 8.98792C17.5342 8.93848 17.3993 8.91077 17.2559 8.90479C17.1349 8.90222 17.0179 8.91589 16.9088 8.94604C16.8176 8.97229 16.7177 9.01331 16.6331 9.06213L15.6167 9.60522L15.6167 9.47839C15.6167 9.30798 15.5936 9.14429 15.5474 8.9873C15.5084 8.87061 15.4376 8.69873 15.3727 8.59058C15.2963 8.45972 15.2062 8.34241 15.1027 8.23865C14.9979 8.13647 14.8622 8.03076 14.7308 7.95593C14.625 7.89575 14.5154 7.84729 14.402 7.81067C14.2333 7.75879 14.0329 7.72534 13.8483 7.72534L9.49481 7.72534L10.903 9.13367L13.8483 9.13367C13.9111 9.13367 13.9667 9.14587 14.0152 9.17029C14.0524 9.2085 14.166 9.31299 14.1826 9.35754C14.1964 9.3949 14.2034 9.43518 14.2034 9.47839L14.2034 12.434L16.6309 14.8615ZM7.36407 9.13367L7.32013 9.13367C7.27435 9.13367 7.16736 9.18665 7.10504 9.21753C7.09094 9.22449 7.0791 9.23035 7.0708 9.23425C7.02789 9.2771 6.99811 9.32361 6.98151 9.37354C6.97058 9.40637 6.96509 9.44128 6.96509 9.47839L6.96509 14.5214C6.96509 14.5585 6.97058 14.5934 6.98151 14.6262C6.99811 14.6761 7.12561 14.792 7.16858 14.8348C7.2135 14.8557 7.26404 14.8661 7.32013 14.8661L13.0966 14.8661L14.4148 16.1843C14.4024 16.1886 14.3902 16.1927 14.3782 16.1967C14.2095 16.2484 14.0329 16.2744 13.8483 16.2744L7.32013 16.2744C7.12067 16.2744 6.90698 16.2357 6.72784 16.1754C6.62939 16.1406 6.53412 16.0966 6.44214 16.0435C6.33655 15.9833 6.2019 15.8805 6.11243 15.802L6.11224 15.8018C5.99005 15.6881 5.88434 15.5569 5.79498 15.408C5.72675 15.2913 5.66901 15.1565 5.63019 15.0312C5.5813 14.8687 5.55688 14.6986 5.55688 14.5214L5.55688 9.47839C5.55688 9.30737 5.58704 9.11865 5.63275 8.96082L5.63275 8.96082L5.63275 8.96069L5.63275 8.96069C5.67194 8.83276 5.72626 8.70935 5.79572 8.59058C5.88605 8.43994 6.00134 8.30005 6.125 8.18591L6.125 8.18591L6.12518 8.18579L6.12518 8.18567C6.17609 8.1394 6.2298 8.09607 6.28625 8.05579L7.36407 9.13367ZM17.0361 13.484L17.0361 10.4486L15.6167 11.2106L15.6167 12.6495L17.0361 13.484Z" clip-rule="evenodd" fill="#FFFFFF" fill-opacity="1.000000" fill-rule="evenodd"/>
	</g>
</svg>
