<svg width="24.000000" height="24.000000" viewBox="0 0 24 24" fill="none" xmlns="http://www.w3.org/2000/svg" xmlns:xlink="http://www.w3.org/1999/xlink">
	<desc>
			Created with Pixso.
	</desc>
	<defs>
		<clipPath id="clip38_2257">
			<rect id="AI ultra-HD enhancement" width="24.000000" height="24.000000" fill="white" fill-opacity="0"/>
		</clipPath>
	</defs>
	<g clip-path="url(#clip38_2257)">
		<path id="合并" d="M4.84 8.14001C4.81333 8.12 4.79333 8.08667 4.78 8.03998Q4.64928 7.49289 4.39197 7.01376Q4.11783 6.5033 3.7 6.06998Q3.29184 5.65189 2.80191 5.38242Q2.30758 5.11053 1.73 4.98999C1.69666 4.97665 1.63667 4.87665 1.61 4.84998C1.61 4.80331 1.71 4.71332 1.73 4.67999Q2.21656 4.57666 2.64936 4.36392Q3.22169 4.08261 3.7 3.60999Q4.13308 3.18207 4.40667 2.6691Q4.66373 2.18707 4.78 1.63C4.79333 1.58331 4.90667 1.51666 4.94 1.48999C4.99333 1.48999 5.03 1.5 5.05 1.51999C5.07667 1.54666 5.09 1.58331 5.09 1.63Q5.22374 2.22153 5.50831 2.72842Q5.77695 3.20694 6.18 3.60999C6.73334 4.16333 7.47334 4.56998 8.24 4.72998Q8.252 4.745 8.2604 4.76178Q8.28 4.80099 8.28 4.84998C8.28 4.88333 8.18667 4.96332 8.16 4.98999Q7.53501 5.13672 7.00159 5.44296Q6.55349 5.7002 6.17 6.06998Q5.75188 6.47815 5.48242 6.96808Q5.21054 7.4624 5.09 8.03998C5.07 8.08667 5.05 8.12 5.03 8.14001C5.01049 8.14972 4.93568 8.1452 4.88388 8.14209C4.86487 8.14093 4.84895 8.14001 4.84 8.14001ZM11.5 2.5C11.2867 2.5 11.1067 2.57001 10.96 2.70999C10.8067 2.85666 10.73 3.03333 10.73 3.23999C10.73 3.44666 10.8067 3.62668 10.96 3.78C11.1067 3.93335 11.2867 4.01001 11.5 4.01001L19.39 4.01001C19.81 4.01001 20.1633 4.15335 20.45 4.44C20.7367 4.72668 20.88 5.08002 20.88 5.5L20.88 18.49Q20.88 18.7957 20.7755 19.06Q20.668 19.3318 20.45 19.56C20.1633 19.8533 19.81 20 19.39 20L5.4 20Q5.10631 20 4.85076 19.9012Q4.56684 19.7916 4.33 19.56Q4.09844 19.3232 3.98874 19.0392Q3.89001 18.7837 3.89001 18.49L3.89 11.06C3.89 10.8533 3.81667 10.68 3.67 10.54C3.53 10.3934 3.35333 10.32 3.14 10.32C2.93333 10.32 2.76 10.3934 2.62 10.54C2.47334 10.68 2.4 10.8533 2.4 11.06L2.4 18.49Q2.4 18.9415 2.52426 19.3557Q2.62295 19.6846 2.8 19.99C3.06001 20.4434 3.42334 20.8066 3.89001 21.08C4.35001 21.3533 4.85334 21.49 5.4 21.49L19.39 21.49C19.9367 21.49 20.4367 21.3533 20.89 21.08C21.35 20.8066 21.7133 20.4434 21.98 19.99C22.2533 19.53 22.39 19.03 22.39 18.49L22.39 5.5Q22.39 4.99847 22.2366 4.54932Q22.1392 4.2641 21.98 4C21.7133 3.54001 21.35 3.17334 20.89 2.89999C20.4367 2.63333 19.9367 2.5 19.39 2.5L11.5 2.5ZM6.8502 11.2208L10.151 11.2208L10.151 8.33997L11.6109 8.33997L11.6109 15.6593L10.151 15.6593L10.151 12.5099L6.8502 12.5099L6.8502 15.6593L5.4 15.6593L5.4 8.33997L6.8502 8.33997L6.8502 11.2208ZM15.5914 8.33997Q16.6259 8.33997 17.4684 8.74213L17.4708 8.74323L17.475 8.74524Q17.5001 8.75726 17.525 8.76965C18.1028 9.05609 18.5577 9.47443 18.8897 10.0245Q19.3902 10.8497 19.3902 11.9899Q19.3902 13.13 18.8897 13.9601C18.5577 14.5135 18.1044 14.935 17.5299 15.2247L17.5297 15.2249L17.5296 15.2249Q16.6703 15.6593 15.5914 15.6593L13.15 15.6593L13.15 8.33997L15.5914 8.33997ZM15.4205 14.4191Q16.5192 14.4191 17.1409 13.8745L17.141 13.8745Q17.1879 13.8334 17.232 13.7892Q17.284 13.7372 17.3317 13.6815L17.3319 13.6813Q17.8619 13.0626 17.8619 11.9899Q17.8619 10.9753 17.3659 10.3618Q17.2997 10.2799 17.2247 10.2052Q17.1662 10.1467 17.1031 10.0935Q16.4821 9.57043 15.4205 9.57043L14.6002 9.57043L14.6002 14.4191L15.4205 14.4191Z" clip-rule="evenodd" fill="#FFFFFF" fill-opacity="1.000000" fill-rule="evenodd"/>
	</g>
</svg>
