<svg width="24.000000" height="24.000000" viewBox="0 0 24 24" fill="none" xmlns="http://www.w3.org/2000/svg" xmlns:xlink="http://www.w3.org/1999/xlink">
	<desc>
			Created with Pixso.
	</desc>
	<defs>
		<filter id="filter_335_10619_dd" x="-1.000732" y="-2.000000" width="25.991821" height="28.191223" filterUnits="userSpaceOnUse" color-interpolation-filters="sRGB">
			<feFlood flood-opacity="0" result="BackgroundImageFix"/>
			<feColorMatrix in="SourceAlpha" type="matrix" values="0 0 0 0 0 0 0 0 0 0 0 0 0 0 0 0 0 0 127 0" result="hardAlpha"/>
			<feOffset dx="0" dy="0"/>
			<feGaussianBlur stdDeviation="1"/>
			<feComposite in2="hardAlpha" operator="out" k2="-1" k3="1"/>
			<feColorMatrix type="matrix" values="0 0 0 0 0 0 0 0 0 0 0 0 0 0 0 0 0 0 0.2 0"/>
			<feBlend mode="normal" in2="BackgroundImageFix" result="effect_dropShadow_1"/>
			<feBlend mode="normal" in="SourceGraphic" in2="effect_dropShadow_1" result="shape"/>
		</filter>
		<clipPath id="clip335_10590">
			<rect id="star_portrait" width="24.000000" height="24.000000" fill="white" fill-opacity="0"/>
		</clipPath>
	</defs>
	<g clip-path="url(#clip335_10590)">
		<g filter="url(#filter_335_10619_dd)">
			<path id="合并" d="M16.8201 1C16.8401 1.01999 16.92 1.09 16.9501 1.12C17.0701 1.78 17.3701 2.32999 17.8401 2.79001C18.3201 3.26001 18.8701 3.54999 19.5101 3.67001C19.53 3.69 19.6001 3.78 19.6001 3.84C19.5801 3.85001 19.54 3.94 19.5101 3.95001C18.8501 4.07999 18.29 4.38 17.8301 4.84C17.3701 5.29999 17.0701 5.85999 16.9501 6.51001C16.92 6.53 16.8601 6.62 16.8201 6.62C16.7601 6.62 16.7001 6.57999 16.6501 6.51001C16.5302 5.88 16.2301 5.32001 15.7601 4.85001Q15.4011 4.48322 14.969 4.25446L14.969 4.25446Q14.5707 4.04355 14.1101 3.95001C14.0901 3.92999 13.9901 3.85999 13.9901 3.84Q13.9901 3.80325 14.0048 3.77386Q14.0321 3.71924 14.1101 3.69Q14.5707 3.59647 14.969 3.38553L14.969 3.38553Q15.4011 3.1568 15.7601 2.79001C16.2301 2.32999 16.5302 1.78 16.6501 1.12C16.6801 1.09 16.7802 1 16.8201 1ZM9.35986 3C9.25989 3 9.17993 3.03 9.10986 3.11002C9.02991 3.17999 8.99988 3.26999 8.99988 3.39001C8.99988 3.48001 9.02991 3.56 9.10986 3.64001C9.17993 3.70999 9.25989 3.75 9.35986 3.75C9.46997 3.75 9.55994 3.70999 9.62988 3.64001C9.70996 3.56 9.74988 3.48001 9.74988 3.39001C9.74988 3.26999 9.70996 3.17999 9.62988 3.11002C9.55994 3.03 9.46997 3 9.35986 3ZM3.27014 6.19C3.6001 5.85999 3.81018 5.45999 3.90015 5.01001C3.93018 4.98999 4.06018 4.98999 4.09009 5.01001C4.19019 5.45999 4.40015 5.85999 4.7301 6.20001C5.06018 6.53 5.53015 6.82999 5.99011 6.91998C5.99683 6.93341 5.96753 6.96936 5.94446 6.99762C5.93323 7.01144 5.92346 7.02341 5.92017 7.03C5.47009 7.12 5.07019 7.32999 4.74011 7.66998C4.41016 8.01001 4.14014 8.47 4.04016 8.92999C4.01343 8.94781 3.94714 8.90222 3.91174 8.87787C3.90735 8.87488 3.90344 8.87219 3.90015 8.87C3.80017 8.41 3.59009 8.01001 3.26013 7.66998C2.93018 7.32999 2.46008 7.06 2.00012 6.97C1.99426 6.95837 2.01892 6.92642 2.0426 6.89584C2.05957 6.87384 2.07593 6.85254 2.08008 6.84C2.54016 6.73999 2.94019 6.51999 3.27014 6.19ZM18.7816 18.2215Q18.1536 17.7383 17.1578 17.3159C16.7164 17.1348 16.2546 16.9106 15.7769 16.6451C15.3137 16.3964 14.9563 16.1676 14.7046 15.9586L15.2771 14.7355Q16.062 14.1996 16.4296 13.0228C16.5814 12.5878 16.623 12.2219 16.5546 11.925C16.4806 11.6501 16.3763 11.4019 16.2455 11.1942L16.2196 10.8407C16.2096 10.3318 16.1718 9.90262 16.1063 9.55313C16.0425 9.21295 15.8934 8.85645 15.6591 8.48355C15.3335 7.9437 14.9321 7.54797 14.4547 7.29633C14.2905 7.20975 14.1172 7.14026 13.9351 7.0878C13.6461 7.00333 13.3541 6.93744 13.0592 6.89017L13.0591 6.89017Q12.4967 6.79999 11.9197 6.79999Q11.723 6.79999 11.5271 6.81076L11.5269 6.81079Q10.7104 6.85574 9.90442 7.0878Q9.69934 7.14682 9.50854 7.23621L9.5083 7.23633Q8.72363 7.60394 8.17957 8.48489Q7.8175 9.0986 7.72205 9.71957Q7.63306 10.2982 7.62976 11.1468C7.53796 11.3022 7.42249 11.5251 7.36792 11.6927L7.36792 11.6928Q7.32166 11.8346 7.29333 11.9822C7.24695 12.2953 7.28491 12.6479 7.40991 13.0232Q7.65796 13.7343 7.97412 14.1256C8.17908 14.3795 8.37671 14.5793 8.56689 14.7253C8.70251 14.9608 8.79932 15.1431 8.8573 15.2721L9.17798 15.9138C8.78735 16.2171 8.40588 16.4707 8.03369 16.6746Q7.37317 17.0432 6.74548 17.2943C6.03735 17.6008 5.47192 17.9108 5.05969 18.22Q4.47986 18.666 4.15295 19.2529C4.14783 19.2622 4.09302 19.3646 4.08801 19.374Q3.849 19.8224 3.80042 20.3724C3.77795 20.627 3.79565 20.8717 3.85327 21.1066C3.87915 21.2119 3.91296 21.3152 3.95496 21.4164C4.0481 21.6315 4.17188 21.8155 4.32654 21.9684L4.3269 21.9688L4.32703 21.969Q4.47424 22.1145 4.65857 22.2225C5.37207 22.6506 6.45679 22.9262 7.91284 23.0493Q10.1173 23.2045 11.9213 23.19C13.4065 23.19 14.8215 23.1331 16.1665 23.0193C17.5088 22.8954 18.5247 22.6225 19.2141 22.2006C19.4287 22.0626 19.6049 21.894 19.735 21.6995C19.798 21.6053 19.8511 21.5044 19.8943 21.3969C19.949 21.2702 19.9908 21.1407 20.0197 21.0084L20.0198 21.008L20.0198 21.0079Q20.0887 20.6909 20.059 20.3524C20.0381 20.1237 19.9889 19.9055 19.9113 19.6981C19.8656 19.5761 19.8101 19.4577 19.7446 19.3431C19.6931 19.247 19.6371 19.1539 19.5768 19.0637C19.3652 18.7472 19.1001 18.4665 18.7816 18.2215ZM19.9001 8.01001C19.8102 8.45999 19.6001 8.85999 19.2701 9.19C18.9402 9.51999 18.5402 9.73999 18.0801 9.84C18.0759 9.85254 18.0596 9.87384 18.0426 9.89584C18.0189 9.92642 17.9943 9.95837 18.0001 9.97C18.4601 10.06 18.9302 10.33 19.2601 10.67C19.5901 11.01 19.8002 11.41 19.9001 11.87C19.9034 11.8722 19.9073 11.8749 19.9117 11.8779C19.9471 11.9022 20.0134 11.9478 20.0402 11.93C20.1401 11.47 20.4102 11.01 20.7401 10.67C21.0701 10.33 21.4701 10.12 21.9202 10.03C21.9235 10.0234 21.9332 10.0114 21.9445 9.99762C21.9675 9.96936 21.9968 9.93341 21.9901 9.91998C21.5302 9.82999 21.0602 9.53 20.7301 9.20001C20.4001 8.85999 20.1902 8.45999 20.0901 8.01001C20.0602 7.98999 19.9302 7.98999 19.9001 8.01001ZM14.7661 21.6205C12.8419 21.7514 10.9413 21.7481 9.06433 21.6105C7.18701 21.4828 5.97644 21.2524 5.43433 20.9196C5.36328 20.862 5.28967 20.7353 5.28967 20.59C5.28259 20.4275 5.31006 20.273 5.37231 20.144C5.51172 19.8837 5.76282 19.5731 6.03796 19.3713Q6.45667 19.0503 7.28845 18.6938Q9.08411 17.9634 10.2181 17.0133C10.4659 16.8132 10.6274 16.5872 10.7025 16.3356C10.7177 16.2849 10.7292 16.2332 10.7374 16.1804C10.7628 15.9008 10.6943 15.5412 10.5146 15.2429L9.828 13.8895C9.76721 13.7678 9.70154 13.6815 9.63098 13.6307C9.55908 13.5716 9.49231 13.5284 9.43042 13.5012C9.33984 13.4454 9.23718 13.3429 9.12256 13.1937C9.00513 13.0163 8.9115 12.8095 8.84143 12.5732C8.79358 12.4294 8.77124 12.3141 8.77869 12.2399C8.78479 12.1853 8.80957 12.1186 8.85303 12.0399L9.00122 11.7929C9.05652 11.6961 9.09131 11.606 9.10547 11.5226C9.1283 11.4334 9.13965 11.2559 9.13965 10.99Q9.13965 10.4342 9.19763 10.0283Q9.20752 9.9592 9.22266 9.89124L9.22266 9.89093L9.22266 9.89087L9.22266 9.89078C9.2699 9.67758 9.35535 9.47284 9.479 9.27655C9.51807 9.20892 9.56555 9.13849 9.61377 9.07803Q9.88733 8.73456 10.3547 8.54538Q10.9609 8.29999 11.9197 8.29999C12.5656 8.29999 13.0905 8.38177 13.4946 8.54538Q13.8751 8.69934 14.1353 8.96927L14.1353 8.96933Q14.2666 9.10559 14.3673 9.27139C14.4531 9.42188 14.5217 9.57779 14.5732 9.7392C14.6067 9.8439 14.6329 9.95093 14.652 10.0602Q14.7097 10.4954 14.7097 10.99C14.7097 11.2746 14.7213 11.4691 14.7445 11.5734C14.7817 11.6729 14.8542 11.826 14.946 11.9793Q15.0551 12.1796 15.0609 12.2321C15.0692 12.2694 15.054 12.3972 15.0079 12.5728C14.9231 12.8257 14.8236 13.0317 14.7091 13.1907C14.584 13.3541 14.4806 13.4596 14.3989 13.5072C14.2184 13.6104 14.0988 13.7252 14.0402 13.8517L13.3042 15.244C13.1086 15.5901 13.0347 15.9064 13.0824 16.1929C13.1274 16.4855 13.3066 16.7653 13.62 17.0322C14.0594 17.3859 14.4767 17.6726 14.8633 17.8852C15.3322 18.1314 15.8693 18.3967 16.4747 18.681C17.074 18.9379 17.5162 19.1725 17.7888 19.3793C17.8759 19.4402 17.9634 19.5115 18.0393 19.584L18.0397 19.5844L18.0397 19.5844Q18.259 19.7943 18.416 20.0692Q18.4453 20.1223 18.4681 20.1781L18.4681 20.1782L18.4683 20.1784L18.4683 20.1785C18.5226 20.3112 18.5497 20.455 18.5497 20.61Q18.5497 20.7896 18.4601 20.8747C17.9244 21.213 16.6484 21.4923 14.7661 21.6205ZM3.10999 11.11C3.17993 11.03 3.25989 11 3.35999 11C3.46997 11 3.55994 11.03 3.62988 11.11C3.70996 11.18 3.74988 11.27 3.74988 11.39C3.74988 11.48 3.70996 11.56 3.62988 11.64C3.55994 11.71 3.46997 11.75 3.35999 11.75C3.25989 11.75 3.17993 11.71 3.10999 11.64C3.02991 11.56 2.99988 11.48 2.99988 11.39C2.99988 11.27 3.02991 11.18 3.10999 11.11Z" clip-rule="evenodd" fill="#FFFFFF" fill-opacity="1.000000" fill-rule="evenodd"/>
		</g>
	</g>
</svg>
