<svg width="24.000000" height="24.000000" viewBox="0 0 24 24" fill="none" xmlns="http://www.w3.org/2000/svg" xmlns:xlink="http://www.w3.org/1999/xlink">
	<desc>
			Created with Pixso.
	</desc>
	<defs>
		<clipPath id="clip1161_52857">
			<rect id="对白" width="24.000000" height="24.000000" fill="white" fill-opacity="0"/>
		</clipPath>
	</defs>
	<g clip-path="url(#clip1161_52857)">
		<path id="合并" d="M11.8298 8.02002C11.863 7.70001 11.8464 7.31335 11.7798 6.86005C11.7332 6.52667 11.6797 6.29669 11.6199 6.17004C11.5864 6.0434 11.5532 5.95337 11.5198 5.90002C11.4397 5.67334 11.4165 5.33337 11.4497 4.92004C11.4966 4.76001 11.4966 4.60339 11.4497 4.45001C11.4031 4.29669 11.3064 4.17334 11.1599 4.08002Q10.2998 3.50006 8.63989 3.12006Q6.97974 2.74005 5.75977 2.76001Q4.10791 2.80646 2.87793 3.55042L2.87793 3.55048Q2.78271 3.60815 2.6897 3.67004Q2.39941 3.86438 2.14038 4.09424Q1.24023 4.89307 0.719727 6.12006Q0.0498047 7.70001 0.0498047 9.86005Q0.0498047 10.8807 0.324219 11.8212Q0.412598 12.1248 0.529785 12.42Q0.749756 12.9746 1.05591 13.4767L1.05591 13.4767Q1.41772 14.0701 1.8999 14.59C1.99316 14.6901 2.11304 14.88 2.25977 15.16C2.3999 15.4401 2.47974 15.7867 2.49976 16.2Q2.50659 16.3369 2.48535 16.4694Q2.44312 16.7336 2.28979 16.98C2.13647 17.2267 1.89307 17.5601 1.55981 17.98C1.22656 18.3934 0.873047 18.8934 0.599854 19.34C0.473145 19.5334 0.319824 19.8234 0.139893 20.21C0.0463867 20.4167 0.0432129 20.6167 0.129883 20.8101Q0.186768 20.937 0.280029 21.0255L0.280029 21.0255Q0.399902 21.1394 0.579834 21.1901C0.753174 21.2567 0.913086 21.26 1.05981 21.2Q1.26978 21.1201 1.4397 20.9C1.58643 20.6934 1.75317 20.4067 1.9397 20.04C2.09985 19.6867 2.27637 19.3834 2.46973 19.13L2.8999 18.65Q3.45972 18.02 3.70972 17.54Q3.95972 17.0601 3.95972 16.2C3.95972 15.7067 3.88647 15.2433 3.73975 14.8101Q3.52979 14.16 3.16992 13.8Q2.96973 13.5584 2.74902 13.3376L2.74902 13.3375Q2.70483 13.2934 2.65991 13.2501Q2.33838 12.8291 2.10547 12.3638L2.10547 12.3637Q1.94019 12.0331 1.81982 11.6801C1.63306 11.1067 1.53979 10.51 1.53979 9.89001Q1.53979 7.76294 2.4126 6.09161Q2.41357 6.08997 2.41431 6.08832Q2.427 6.06415 2.4397 6.04004Q2.68774 5.57178 3.05249 5.22723Q4.01196 4.32074 5.77979 4.27002Q6.6499 4.22003 7.87988 4.48004Q9.11987 4.73004 9.90991 5.11005Q9.88989 5.57001 10.0999 6.26001Q10.2498 6.72003 10.2998 7.08002C10.3264 7.22668 10.3464 7.37335 10.3599 7.52002C10.3665 7.67334 10.3599 7.83002 10.3398 7.99005L10.3398 8.30005C10.373 8.43335 10.4131 8.54669 10.4597 8.64001L11.8799 10.97L11.2798 11.11Q11.1624 11.129 11.0593 11.1781Q10.8901 11.2585 10.7598 11.42C10.6265 11.6 10.5664 11.7934 10.5798 12.0001L10.6099 14.47C10.0833 14.5034 9.56982 14.6267 9.06982 14.84C8.57642 15.0601 8.19971 15.4167 7.9397 15.91C7.55981 16.63 7.46973 17.4667 7.66992 18.42C7.86987 19.3734 8.09644 20.1067 8.34985 20.6201C8.42969 20.7933 8.56982 20.9367 8.76978 21.01C8.96973 21.0834 9.15991 21.08 9.33984 21.0001C9.52637 20.92 9.65649 20.78 9.72974 20.58C9.80322 20.38 9.7998 20.1934 9.71973 20.02Q9.37988 19.27 9.16992 18.2401C9.02319 17.5533 9.05322 17.0167 9.25977 16.63C9.41992 16.3434 9.67969 16.1634 10.0398 16.09Q10.5798 15.98 11.0898 15.98C11.363 16.0001 11.5999 15.9134 11.7998 15.72C11.9998 15.5267 12.0999 15.2934 12.0999 15.02L12.0698 12.46L13.4397 12.1201C13.6331 12.0734 13.7532 11.9401 13.7998 11.72C13.8464 11.5067 13.7832 11.2467 13.6099 10.9401L11.8298 8.02002ZM21.658 6.91443Q21.7466 6.95618 21.8203 7.02985Q22.5447 7.7262 23.0317 8.5611Q23.2371 8.91315 23.4001 9.28986C23.7668 10.1365 23.9502 11.0332 23.9502 11.9799Q23.9502 12.7327 23.7935 13.4513Q23.6565 14.0786 23.4001 14.6799Q23.2378 15.0583 23.0305 15.4105Q22.5369 16.2496 21.7903 16.9399C21.6501 17.0532 21.5002 17.1099 21.3403 17.1099C21.1802 17.1099 21.0503 17.0465 20.9502 16.9199C20.8369 16.8065 20.7803 16.6665 20.7803 16.4999C20.7803 16.3332 20.8469 16.1865 20.9802 16.0599C21.5537 15.5132 21.9937 14.8865 22.3003 14.1799C22.6003 13.4799 22.7502 12.7465 22.7502 11.9799Q22.7502 11.2901 22.5911 10.6393Q22.4827 10.1956 22.3003 9.76984C21.9937 9.06317 21.5537 8.43988 20.9802 7.89984C20.8669 7.7865 20.8069 7.64984 20.8003 7.48987C20.7869 7.32983 20.8369 7.18652 20.9502 7.05988C21.0769 6.92651 21.2271 6.85986 21.4001 6.85986Q21.542 6.85986 21.658 6.91443ZM19.5403 8.44983C19.7002 8.44983 19.8335 8.50653 19.9402 8.61987C20.4202 9.06653 20.7869 9.57318 21.0403 10.1398Q21.0825 10.2371 21.1201 10.3361Q21.4102 11.1031 21.4102 11.9799Q21.4102 12.5723 21.2678 13.1283Q21.1746 13.4919 21.0203 13.8398C20.7668 14.4199 20.4001 14.9332 19.9202 15.3799C19.7937 15.4799 19.647 15.5298 19.4802 15.5298C19.3069 15.5298 19.167 15.4732 19.0603 15.3599Q18.9695 15.2585 18.9302 15.1401Q18.8955 15.0365 18.9001 14.9199C18.907 14.7465 18.9736 14.6065 19.1003 14.4999C19.4536 14.1599 19.7271 13.7732 19.9202 13.3398C20.1135 12.9132 20.2102 12.4598 20.2102 11.9799Q20.2102 11.677 20.158 11.3835Q20.0891 10.9987 19.9302 10.6299Q19.8484 10.4329 19.7427 10.2498Q19.4998 9.82837 19.1304 9.47986C19.0037 9.35321 18.9402 9.20984 18.9402 9.04987Q18.9402 8.91766 18.9888 8.8067Q19.0283 8.71625 19.1003 8.63983C19.2336 8.51318 19.3804 8.44983 19.5403 8.44983ZM19.0803 11.5298C19.207 11.6498 19.2703 11.7899 19.2703 11.9498C19.2703 12.1099 19.2102 12.2499 19.0903 12.3699C18.9702 12.4899 18.8235 12.5499 18.6501 12.5499L17.5403 12.5499L17.5403 13.7499C17.5403 13.9099 17.4868 14.0499 17.3804 14.1699C17.2668 14.2899 17.1204 14.3499 16.9402 14.3499C16.7803 14.3499 16.6404 14.2899 16.5203 14.1699C16.4001 14.0499 16.3403 13.9099 16.3403 13.7499L16.3403 12.5499L15.2402 12.5499C15.0803 12.5499 14.9402 12.4899 14.8203 12.3699C14.7002 12.2499 14.6404 12.1099 14.6404 11.9498C14.6404 11.7899 14.7002 11.6498 14.8203 11.5298C14.9402 11.4099 15.0803 11.3499 15.2402 11.3499L16.3403 11.3499L16.3403 10.1998C16.3403 10.0399 16.4001 9.89984 16.5203 9.77985C16.6404 9.65985 16.7803 9.59985 16.9402 9.59985Q17.0364 9.59985 17.1226 9.62866Q17.2522 9.67188 17.3604 9.77985C17.4802 9.89984 17.5403 10.0399 17.5403 10.1998L17.5403 11.3499L18.6501 11.3499C18.8103 11.3499 18.9536 11.4099 19.0803 11.5298Z" clip-rule="evenodd" fill="#FFFFFF" fill-opacity="1.000000" fill-rule="evenodd"/>
	</g>
</svg>
