<svg width="24.000000" height="24.000000" viewBox="0 0 24 24" fill="none" xmlns="http://www.w3.org/2000/svg" xmlns:xlink="http://www.w3.org/1999/xlink">
	<desc>
			Created with Pixso.
	</desc>
	<defs>
		<clipPath id="clip1161_52853">
			<rect id="waveform_1" width="24.000000" height="24.000000" fill="white" fill-opacity="0"/>
		</clipPath>
	</defs>
	<g clip-path="url(#clip1161_52853)">
		<path id="合并" d="M12.6101 21.29C12.4568 21.43 12.2769 21.5 12.0701 21.5C11.8635 21.5 11.6868 21.43 11.54 21.29C11.4001 21.1433 11.3301 20.9667 11.3301 20.76L11.3301 3.23999Q11.3301 3.07434 11.3901 2.93433L11.3901 2.93433L11.3901 2.93433Q11.4424 2.81244 11.54 2.71002C11.6868 2.57001 11.8635 2.5 12.0701 2.5C12.2769 2.5 12.4568 2.57001 12.6101 2.71002Q12.7349 2.82935 12.792 2.97528Q12.8401 3.09821 12.8401 3.23999L12.8401 20.76C12.8401 20.9667 12.7634 21.1433 12.6101 21.29ZM7.57837 19.1375Q7.67188 19.0884 7.75024 19.0101Q7.86157 18.8987 7.9165 18.7643Q7.97021 18.6332 7.97021 18.48L7.97021 6.94006Q7.97021 6.76471 7.90405 6.61938L7.90405 6.61938Q7.84961 6.49951 7.75024 6.40009Q7.65405 6.29462 7.53467 6.23755L7.53442 6.23755Q7.39355 6.17004 7.22021 6.17004C7.01343 6.17004 6.84033 6.24677 6.7002 6.40009Q6.60083 6.49951 6.54639 6.61938L6.54639 6.61938Q6.48022 6.76471 6.48022 6.94006L6.48022 18.48Q6.48022 18.6332 6.53394 18.7643Q6.58887 18.8987 6.7002 19.0101C6.84033 19.1501 7.01343 19.2201 7.22021 19.2201Q7.42065 19.2201 7.57788 19.1377L7.57837 19.1375ZM16.8203 16.8501C17.0337 16.8501 17.2102 16.7734 17.3503 16.6201Q17.4707 16.4941 17.5251 16.3442Q17.5703 16.2203 17.5703 16.0801L17.5703 8.28009Q17.5703 8.12701 17.5166 7.99585Q17.4617 7.86145 17.3503 7.75006C17.2102 7.61005 17.0337 7.54004 16.8203 7.54004C16.6135 7.54004 16.4404 7.61005 16.3003 7.75006Q16.189 7.86145 16.134 7.99585Q16.0803 8.12701 16.0803 8.28009L16.0803 16.0801Q16.0803 16.2203 16.1252 16.3442Q16.1799 16.4941 16.3003 16.6201C16.4404 16.7734 16.6135 16.8501 16.8203 16.8501ZM22.0803 14.78C21.9336 14.9267 21.7571 15 21.5503 15Q21.3972 15 21.2661 14.9464Q21.1316 14.8914 21.0203 14.78C20.8804 14.64 20.8103 14.4667 20.8103 14.26L20.8103 10.68Q20.8103 10.5278 20.8608 10.3948Q20.9133 10.2571 21.0203 10.14Q21.1396 10.0152 21.2856 9.95813Q21.4084 9.91003 21.5503 9.91003C21.7571 9.91003 21.9336 9.98669 22.0803 10.14C22.2271 10.2933 22.3003 10.4733 22.3003 10.68L22.3003 14.26C22.3003 14.4667 22.2271 14.64 22.0803 14.78ZM2.73438 14.9464Q2.60327 15 2.4502 15Q2.30981 15 2.18604 14.955L2.18604 14.955Q2.03613 14.9005 1.91016 14.78C1.75684 14.64 1.68018 14.4667 1.68018 14.26L1.68018 11.14C1.68018 10.9267 1.75684 10.75 1.91016 10.61Q2.03613 10.4896 2.18604 10.4351Q2.30981 10.39 2.4502 10.39Q2.60327 10.39 2.73438 10.4437L2.73438 10.4437L2.73438 10.4437Q2.8689 10.4987 2.98022 10.61C3.12012 10.75 3.19019 10.9267 3.19019 11.14L3.19019 14.26C3.19019 14.4667 3.12012 14.64 2.98022 14.78Q2.8689 14.8914 2.73438 14.9464L2.73438 14.9464L2.73438 14.9464Z" clip-rule="evenodd" fill="#FFFFFF" fill-opacity="1.000000" fill-rule="evenodd"/>
	</g>
</svg>
