<svg width="24.000000" height="24.000000" viewBox="0 0 24 24" fill="none" xmlns="http://www.w3.org/2000/svg" xmlns:xlink="http://www.w3.org/1999/xlink">
	<desc>
			Created with Pixso.
	</desc>
	<defs>
		<clipPath id="clip1161_52859">
			<rect id="音频对焦" width="24.000000" height="24.000000" fill="white" fill-opacity="0"/>
		</clipPath>
	</defs>
	<g clip-path="url(#clip1161_52859)">
		<path id="形状结合" d="M21.25 15.25C21.64 15.25 21.97 15.56 21.99 15.95L22 18C22 20.2 20.2 22 18 22L15.99 22C15.6 21.97 15.25 21.64 15.25 21.25C15.25 20.85 15.56 20.52 15.95 20.5L18 20.5C19.35 20.5 20.46 19.41 20.49 18.07L20.49 16C20.52 15.6 20.85 15.25 21.25 15.25ZM2.75 15.25C3.14 15.25 3.47 15.56 3.49 15.95L3.5 18C3.5 19.35 4.58 20.46 5.93 20.49L8 20.5C8.41 20.5 8.75 20.83 8.75 21.25C8.75 21.64 8.43 21.97 8.04 21.99L6 22C3.79 22 2 20.2 2 18L2 16C2.02 15.6 2.35 15.25 2.75 15.25ZM12 6.21C12.2 6.21 12.38 6.28 12.53 6.4C12.66 6.53 12.74 6.68 12.74 6.85L12.74 17.11C12.74 17.3 12.66 17.46 12.53 17.59C12.38 17.71 12.2 17.78 12 17.78C11.79 17.78 11.61 17.71 11.47 17.59C11.33 17.46 11.26 17.3 11.26 17.11L11.26 6.85C11.26 6.68 11.33 6.53 11.47 6.4C11.61 6.28 11.79 6.21 12 6.21ZM8.94 8.22C9.15 8.22 9.33 8.29 9.47 8.41C9.62 8.55 9.69 8.7 9.69 8.88L9.69 15.89C9.69 16.06 9.62 16.21 9.47 16.34C9.33 16.47 9.15 16.54 8.94 16.54C8.74 16.54 8.57 16.47 8.43 16.34C8.3 16.21 8.22 16.06 8.22 15.89L8.22 8.88C8.22 8.7 8.3 8.55 8.43 8.41C8.57 8.29 8.74 8.22 8.94 8.22ZM15 8.88C15.2 8.88 15.38 8.94 15.54 9.07C15.69 9.19 15.77 9.34 15.77 9.53L15.77 14.71C15.77 14.89 15.69 15.04 15.54 15.17C15.38 15.29 15.2 15.36 15 15.36C14.79 15.36 14.61 15.29 14.47 15.17C14.33 15.04 14.26 14.89 14.26 14.71L14.26 9.53C14.26 9.34 14.33 9.19 14.47 9.07C14.61 8.94 14.79 8.88 15 8.88ZM5.92 10.49C6.14 10.49 6.33 10.55 6.47 10.68C6.62 10.8 6.69 10.96 6.69 11.14L6.69 13.63C6.69 13.81 6.62 13.96 6.47 14.09C6.33 14.21 6.14 14.28 5.92 14.28C5.72 14.28 5.54 14.21 5.39 14.09C5.25 13.96 5.17 13.81 5.17 13.63L5.17 11.14C5.17 10.96 5.25 10.8 5.39 10.68C5.54 10.55 5.72 10.49 5.92 10.49ZM18.02 10.22C18.23 10.22 18.41 10.28 18.56 10.42C18.71 10.54 18.79 10.69 18.79 10.87L18.79 13.63C18.79 13.81 18.71 13.96 18.56 14.09C18.41 14.21 18.23 14.28 18.02 14.28C17.83 14.28 17.66 14.21 17.51 14.09C17.35 13.96 17.28 13.81 17.28 13.63L17.28 10.87C17.28 10.69 17.35 10.54 17.51 10.42C17.66 10.28 17.83 10.22 18.02 10.22ZM18 2C20.2 2 22 3.79 22 6L22 8C22 8.41 21.66 8.75 21.25 8.75C20.85 8.75 20.52 8.43 20.5 8.04L20.5 6C20.5 4.64 19.41 3.53 18.07 3.5L15.99 3.5C15.6 3.47 15.25 3.14 15.25 2.75C15.25 2.35 15.56 2.02 15.95 2L18 2ZM8 2C8.41 2 8.75 2.33 8.75 2.75C8.75 3.14 8.43 3.47 8.04 3.49L6 3.5C4.64 3.5 3.53 4.58 3.5 5.93L3.5 8C3.5 8.41 3.16 8.75 2.75 8.75C2.35 8.75 2.02 8.43 2 8.04L2 6C2 3.79 3.79 2 6 2L8 2Z" fill="#FFFFFF" fill-opacity="1.000000" fill-rule="nonzero"/>
	</g>
</svg>
