<svg width="24.000000" height="24.000000" viewBox="0 0 24 24" fill="none" xmlns="http://www.w3.org/2000/svg" xmlns:xlink="http://www.w3.org/1999/xlink">
	<desc>
			Created with Pixso.
	</desc>
	<defs>
		<filter id="filter_76_3756_dd" x="0.333332" y="0.333332" width="23.333336" height="23.333336" filterUnits="userSpaceOnUse" color-interpolation-filters="sRGB">
			<feFlood flood-opacity="0" result="BackgroundImageFix"/>
			<feColorMatrix in="SourceAlpha" type="matrix" values="0 0 0 0 0 0 0 0 0 0 0 0 0 0 0 0 0 0 127 0" result="hardAlpha"/>
			<feOffset dx="0" dy="0"/>
			<feGaussianBlur stdDeviation="0.555556"/>
			<feComposite in2="hardAlpha" operator="out" k2="-1" k3="1"/>
			<feColorMatrix type="matrix" values="0 0 0 0 0 0 0 0 0 0 0 0 0 0 0 0 0 0 0.2 0"/>
			<feBlend mode="normal" in2="BackgroundImageFix" result="effect_dropShadow_1"/>
			<feBlend mode="normal" in="SourceGraphic" in2="effect_dropShadow_1" result="shape"/>
		</filter>
	</defs>
	<rect id="画板 117" width="24.000000" height="24.000000" fill="#FFFFFF" fill-opacity="0"/>
	<g filter="url(#filter_76_3756_dd)">
		<path id="合并" d="M12 2C6.47 2 2 6.47 2 12C2 17.52 6.47 22 12 22C17.52 22 22 17.52 22 12C22 6.47 17.52 2 12 2ZM17 7.49C17 7.2 16.77 7 16.51 7L7.48 7C7.22 7 7 7.2 7 7.49L7 10.67C7.05 10.72 7.11 10.76 7.19 10.8C7.31 10.87 7.44 10.9 7.57 10.91C7.7 10.91 7.83 10.9 7.92 10.88C7.96 10.87 8.01 10.86 8.06 10.84C9.02 10.5 11.3 9.61 11.97 8.11C12.67 9.64 14.95 10.5 15.89 10.83C16.03 10.87 16.2 10.89 16.39 10.87C16.53 10.86 16.68 10.81 16.82 10.73C16.89 10.69 16.95 10.65 17 10.61L17 7.49ZM17 10.92C16.82 11.02 16.59 11.11 16.41 11.12C16.21 11.14 16.04 11.12 15.88 11.08C15.07 12.52 15.24 14.25 15.27 14.36C15.29 14.47 15.35 14.49 15.41 14.49L16.87 14.5C16.93 14.5 17 14.46 17 14.38L17 10.92ZM8.09 11.09C8.05 11.1 8.01 11.12 7.97 11.12C7.87 11.15 7.74 11.16 7.59 11.16L7.51 11.16C7.36 11.14 7.14 11.1 7 11.02L7 14.38C7 14.46 7.06 14.5 7.12 14.5L8.6 14.5C8.68 14.5 8.73 14.44 8.75 14.36C8.77 14.18 8.88 12.31 8.09 11.09ZM9.77 16.27C9.77 15.88 9.43 15.57 9.01 15.57L7.76 15.57C7.34 15.57 7 15.88 7 16.27L7 16.88C7 16.96 7.06 17 7.12 17L9.65 17C9.73 17 9.77 16.94 9.77 16.88L9.77 16.27ZM13.48 16.27C13.5 15.88 13.14 15.57 12.73 15.57L11.26 15.57C10.85 15.57 10.51 15.88 10.51 16.27L10.51 16.88C10.51 16.96 10.57 17 10.63 17L13.36 17C13.44 17 13.48 16.94 13.48 16.88L13.48 16.27ZM17 16.27C17 15.88 16.65 15.57 16.23 15.57L14.98 15.57C14.56 15.57 14.22 15.88 14.22 16.27L14.22 16.88C14.22 16.96 14.28 17 14.34 17L16.87 17C16.95 17 17 16.94 17 16.88L17 16.27Z" fill="#FFFFFF" fill-opacity="1.000000" fill-rule="evenodd"/>
	</g>
</svg>
