<svg width="24.000000" height="24.000000" viewBox="0 0 24 24" fill="none" xmlns="http://www.w3.org/2000/svg" xmlns:xlink="http://www.w3.org/1999/xlink">
	<desc>
			Created with Pixso.
	</desc>
	<defs>
		<filter id="filter_76_3763_dd" x="0.333332" y="0.333332" width="23.333336" height="23.333336" filterUnits="userSpaceOnUse" color-interpolation-filters="sRGB">
			<feFlood flood-opacity="0" result="BackgroundImageFix"/>
			<feColorMatrix in="SourceAlpha" type="matrix" values="0 0 0 0 0 0 0 0 0 0 0 0 0 0 0 0 0 0 127 0" result="hardAlpha"/>
			<feOffset dx="0" dy="0"/>
			<feGaussianBlur stdDeviation="0.555556"/>
			<feComposite in2="hardAlpha" operator="out" k2="-1" k3="1"/>
			<feColorMatrix type="matrix" values="0 0 0 0 0 0 0 0 0 0 0 0 0 0 0 0 0 0 0.2 0"/>
			<feBlend mode="normal" in2="BackgroundImageFix" result="effect_dropShadow_1"/>
			<feBlend mode="normal" in="SourceGraphic" in2="effect_dropShadow_1" result="shape"/>
		</filter>
	</defs>
	<rect id="画板 118" width="24.000000" height="24.000000" fill="#FFFFFF" fill-opacity="0"/>
	<g filter="url(#filter_76_3763_dd)">
		<path id="合并" d="M12 2C6.47715 2 2 6.47715 2 12C2 17.5229 6.47715 22 12 22C17.5229 22 22 17.5229 22 12C22 6.47715 17.5229 2 12 2ZM3.25 12Q3.25 13.8122 3.8907 15.359L3.89074 15.3591Q4.53146 16.9058 5.81281 18.1872Q7.09419 19.4686 8.64095 20.1093L8.641 20.1093L8.64121 20.1094Q10.1879 20.75 12 20.75Q13.8122 20.75 15.359 20.1093L15.3591 20.1093Q16.9058 19.4686 18.1872 18.1872Q19.4685 16.9059 20.1092 15.3592L20.1093 15.359Q20.75 13.8122 20.75 12Q20.75 10.188 20.1094 8.64123L20.1093 8.64102Q19.4686 7.09422 18.1872 5.81281Q16.9058 4.53144 15.359 3.89073L15.359 3.8907L15.3589 3.89069Q13.8122 3.25 12 3.25Q10.1878 3.25 8.64106 3.89068L8.64101 3.89071Q7.09422 4.53141 5.81281 5.81282Q4.53141 7.09422 3.8907 8.64102Q3.25 10.1878 3.25 12ZM7.4929 6.60852C7.24882 6.36444 6.85309 6.36444 6.60901 6.60852C6.36494 6.85259 6.36494 7.24832 6.60901 7.4924L7 7.88338L7 10.6717C7.05339 10.721 7.11801 10.7661 7.19385 10.8069C7.3188 10.8741 7.44482 10.9099 7.57191 10.9142C7.70035 10.9142 7.83554 10.9048 7.92503 10.8849C7.96852 10.8753 8.01369 10.8609 8.06057 10.8416C8.39263 10.7246 8.88229 10.5425 9.40892 10.2923L14.7291 15.6125C14.4335 15.71 14.2222 15.9703 14.2222 16.2764L14.2222 16.8887C14.2222 16.9629 14.2826 17 14.343 17L16.1166 17L16.3317 17.2151C16.5758 17.4592 16.9715 17.4592 17.2156 17.2151C17.4597 16.971 17.4597 16.5753 17.2156 16.3312L7.4929 6.60852ZM11.01 9.30868L8.70134 7L16.512 7C16.7763 7 17 7.20781 17 7.49118L17 10.6159C16.9504 10.6576 16.8915 10.698 16.8235 10.737C16.6807 10.8188 16.539 10.8651 16.3985 10.8758C16.207 10.8903 16.0396 10.8761 15.8963 10.833C14.9584 10.506 12.6718 9.64427 11.9793 8.11606C11.7752 8.56928 11.4254 8.96612 11.01 9.30868ZM16.2006 14.4992L15.2452 13.5439C15.2711 12.8851 15.4061 11.9358 15.8822 11.0883C16.0411 11.1279 16.2195 11.1401 16.4174 11.125C16.5955 11.1115 16.8245 11.0233 17 10.9228L17 14.3866C17 14.4622 16.939 14.5 16.878 14.5L16.2006 14.4992ZM8.09445 11.0961C8.05541 11.1096 8.01696 11.1206 7.97909 11.129C7.8718 11.1528 7.74481 11.1647 7.59814 11.1647L7.51478 11.1613C7.36567 11.1492 7.1438 11.104 7 11.0267L7 14.3866C7 14.4621 7.06088 14.4999 7.12153 14.5L8.60897 14.5016C8.68999 14.5016 8.73828 14.4438 8.75076 14.3682C8.7585 14.3182 8.77185 14.147 8.77185 13.8996C8.77185 13.2267 8.67312 11.99 8.09445 11.0961ZM9.77778 16.2764C9.77778 15.8868 9.43559 15.5714 9.01288 15.5714L7.76489 15.5714C7.34219 15.5714 7 15.8868 7 16.2764L7 16.8887C7 16.9629 7.06038 17 7.12077 17L9.657 17C9.73752 17 9.77778 16.9443 9.77778 16.8887L9.77778 16.2764ZM13.4807 16.2764C13.4812 16.2661 13.4815 16.2558 13.4815 16.2455C13.4815 15.8703 13.1362 15.5714 12.7353 15.5714L11.264 15.5714C10.852 15.5714 10.5185 15.8868 10.5185 16.2764L10.5185 16.8887C10.5185 16.9629 10.5774 17 10.6362 17L13.363 17C13.4415 17 13.4807 16.9443 13.4807 16.8887L13.4807 16.2764Z" clip-rule="evenodd" fill="#FFFFFF" fill-opacity="1.000000" fill-rule="evenodd"/>
	</g>
</svg>
