<svg width="24.000000" height="24.000000" viewBox="0 0 24 24" fill="none" xmlns="http://www.w3.org/2000/svg" xmlns:xlink="http://www.w3.org/1999/xlink">
	<desc>
			Created with Pixso.
	</desc>
	<defs>
		<filter id="filter_335_10621_dd" x="-2.660034" y="-0.299988" width="29.309937" height="22.509979" filterUnits="userSpaceOnUse" color-interpolation-filters="sRGB">
			<feFlood flood-opacity="0" result="BackgroundImageFix"/>
			<feColorMatrix in="SourceAlpha" type="matrix" values="0 0 0 0 0 0 0 0 0 0 0 0 0 0 0 0 0 0 127 0" result="hardAlpha"/>
			<feOffset dx="0" dy="0"/>
			<feGaussianBlur stdDeviation="1"/>
			<feComposite in2="hardAlpha" operator="out" k2="-1" k3="1"/>
			<feColorMatrix type="matrix" values="0 0 0 0 0 0 0 0 0 0 0 0 0 0 0 0 0 0 0.2 0"/>
			<feBlend mode="normal" in2="BackgroundImageFix" result="effect_dropShadow_1"/>
			<feBlend mode="normal" in="SourceGraphic" in2="effect_dropShadow_1" result="shape"/>
		</filter>
		<clipPath id="clip335_10605">
			<rect id="super_star" width="24.000000" height="24.000000" fill="white" fill-opacity="0"/>
		</clipPath>
	</defs>
	<g clip-path="url(#clip335_10605)">
		<g filter="url(#filter_335_10621_dd)">
			<path id="合并" d="M8.39001 2.87003C8.37 2.82001 8.25 2.73001 8.21997 2.70001C8.08008 2.70001 7.98999 2.76001 7.95996 2.87003C7.75 3.86002 7.30005 4.71002 6.59998 5.41C5.90002 6.12003 5.07007 6.57001 4.08997 6.76001L3.96997 6.83002C3.94006 6.86002 3.93005 6.92001 3.93005 7C3.93005 7.05002 3.94006 7.09003 3.96997 7.12003C4 7.15002 4.04004 7.17001 4.08997 7.17001C5.07007 7.38 5.90002 7.83002 6.59998 8.53C7.30005 9.24002 7.75 10.08 7.95996 11.05C7.98999 11.12 8.02002 11.16 8.05005 11.17C8.08008 11.19 8.14001 11.2 8.21997 11.2C8.25 11.2 8.29004 11.19 8.33008 11.16C8.37 11.14 8.39001 11.1 8.39001 11.05C8.58997 10.06 9.05005 9.22 9.75 8.52002C10.4401 7.83002 11.28 7.38 12.28 7.17001C12.3101 7.15002 12.39 7.03 12.42 7C12.42 6.85001 12.37 6.76001 12.28 6.73001Q11.5546 6.60419 10.9315 6.2811L10.9314 6.28104Q10.2919 5.94943 9.76001 5.41C9.05005 4.71002 8.58997 3.86002 8.39001 2.87003ZM14.48 6.89005C14.4199 7.31006 14.7 7.68005 15.12 7.74005C16.21 7.89005 17.21 8.13004 18.14 8.43005C18.7799 8.65005 19.37 8.90005 19.89 9.17004C20.39 9.44006 20.8199 9.73004 21.1699 10.04C21.83 10.6201 22.1499 11.2 22.1499 11.8C22.1499 12.4001 21.83 12.9901 21.1699 13.57C20.8199 13.88 20.39 14.17 19.89 14.4401C19.37 14.7101 18.7799 14.9601 18.14 15.17C17.74 15.3101 17.5299 15.7201 17.6599 16.1201C17.7899 16.5201 18.21 16.73 18.61 16.6C20.11 16.1 21.2899 15.4701 22.1599 14.7C22.63 14.2801 22.99 13.8401 23.24 13.38C23.52 12.8701 23.6499 12.3401 23.6499 11.8C23.6499 11.26 23.52 10.7401 23.24 10.23C22.99 9.76004 22.63 9.33005 22.1599 8.91003C21.2899 8.14005 20.11 7.51004 18.61 7.01004C17.6 6.67004 16.51 6.42004 15.33 6.25006C14.9099 6.20004 14.5399 6.48004 14.48 6.89005ZM3.32996 8.70004C3.07996 8.37006 2.62 8.30005 2.27991 8.55005C1.66992 9.00006 1.20996 9.48004 0.880005 10.0001C0.52002 10.58 0.339966 11.1801 0.339966 11.8C0.339966 12.3401 0.469971 12.8701 0.75 13.38C1 13.8401 1.35999 14.2801 1.82996 14.7C2.69995 15.4701 3.88 16.1 5.38 16.6C6.39001 16.9301 7.47998 17.1901 8.65991 17.35C9.07996 17.41 9.44995 17.13 9.51001 16.7201C9.56995 16.3 9.28992 15.9301 8.87 15.8701C7.77991 15.7101 6.77991 15.48 5.84998 15.17C5.20996 14.9601 4.62 14.7101 4.09998 14.4401C3.59998 14.17 3.16992 13.88 2.81995 13.57C2.15991 12.9901 1.83997 12.4001 1.83997 11.8C1.83997 11.4701 1.93994 11.13 2.15002 10.8Q2.495 10.26 3.16992 9.75006C3.51001 9.50006 3.57996 9.04004 3.32996 8.70004ZM15.04 8.59003C14.97 8.94 14.8199 9.23001 14.5699 9.48001C14.3199 9.73001 14.02 9.89001 13.6801 9.97C13.684 9.97791 13.6801 9.99982 13.6759 10.0241C13.6693 10.0613 13.6619 10.104 13.6801 10.11C14.02 10.18 14.3199 10.34 14.5601 10.6C14.8101 10.85 14.97 11.15 15.04 11.49C15.0508 11.4936 15.0654 11.5036 15.0807 11.5141C15.1079 11.5328 15.1372 11.5528 15.15 11.54C15.23 11.19 15.42 10.85 15.6801 10.6C15.92 10.34 16.22 10.18 16.5601 10.11C16.21 10.04 15.91 9.74002 15.66 9.49002C15.42 9.24002 15.26 8.94 15.1899 8.59003C15.1757 8.58282 15.1199 8.58597 15.0785 8.58832C15.0624 8.58923 15.0485 8.59003 15.04 8.59003ZM13.65 13.59C13.6599 13.62 13.75 13.68 13.77 13.71C13.89 14.37 14.1899 14.93 14.6699 15.39C15.14 15.86 15.7 16.15 16.34 16.26C16.35 16.28 16.4299 16.38 16.4299 16.43C16.4099 16.44 16.36 16.53 16.34 16.55C15.6799 16.68 15.12 16.97 14.6599 17.43C14.1899 17.9 13.89 18.46 13.77 19.11C13.75 19.12 13.6799 19.21 13.65 19.21C13.58 19.21 13.52 19.18 13.48 19.11C13.35 18.47 13.0499 17.92 12.59 17.45C12.13 16.98 11.58 16.68 10.9399 16.55C10.9199 16.52 10.8199 16.46 10.8199 16.43C10.8199 16.36 10.86 16.31 10.9399 16.28C11.58 16.15 12.13 15.86 12.59 15.39C13.0499 14.93 13.35 14.37 13.48 13.71C13.5 13.68 13.6 13.59 13.65 13.59Z" clip-rule="evenodd" fill="#FFFFFF" fill-opacity="1.000000" fill-rule="evenodd"/>
		</g>
	</g>
</svg>
