<?xml version="1.0" encoding="UTF-8"?>
<svg width="120px" height="120px" viewBox="0 0 120 120" version="1.1" xmlns="http://www.w3.org/2000/svg" xmlns:xlink="http://www.w3.org/1999/xlink">
    <title>形状结合</title>
    <defs>
        <path d="M112,0 C116.418278,-8.11624501e-16 120,3.581722 120,8 L120,112 C120,116.418278 116.418278,120 112,120 L8,120 C3.581722,120 5.41083001e-16,116.418278 0,112 L0,8 C-5.41083001e-16,3.581722 3.581722,8.11624501e-16 8,0 L112,0 Z M112,1 L8,1 L7.69635453,1.00646732 C5.88413149,1.0838125 4.25033228,1.85017278 3.05025253,3.05025253 C1.78350169,4.31700338 1,6.06700338 1,8 L1,8 L1,112 L1.00646732,112.303645 C1.0838125,114.115869 1.85017278,115.749668 3.05025253,116.949747 C4.31700338,118.216498 6.06700338,119 8,119 L8,119 L112,119 L112.303645,118.993533 C114.115869,118.916187 115.749668,118.149827 116.949747,116.949747 C118.216498,115.682997 119,113.932997 119,112 L119,112 L119,8 L118.993533,7.69635453 C118.916187,5.88413149 118.149827,4.25033228 116.949747,3.05025253 C115.682997,1.78350169 113.932997,1 112,1 L112,1 Z" id="path-1"></path>
        <filter x="-3.8%" y="-3.8%" width="107.5%" height="107.5%" filterUnits="objectBoundingBox" id="filter-2">
            <feOffset dx="0" dy="0" in="SourceAlpha" result="shadowOffsetOuter1"></feOffset>
            <feGaussianBlur stdDeviation="1.5" in="shadowOffsetOuter1" result="shadowBlurOuter1"></feGaussianBlur>
            <feColorMatrix values="0 0 0 0 0   0 0 0 0 0   0 0 0 0 0  0 0 0 0.2 0" type="matrix" in="shadowBlurOuter1"></feColorMatrix>
        </filter>
    </defs>
    <g id="页面-1" stroke="none" stroke-width="1" fill="none" fill-rule="evenodd">
        <g id="形状结合">
            <use fill="black" fill-opacity="1" filter="url(#filter-2)" xlink:href="#path-1"></use>
            <use fill="#FFFFFF" fill-rule="evenodd" xlink:href="#path-1"></use>
        </g>
    </g>
</svg>