<?xml version="1.0" encoding="UTF-8"?>
<svg width="64px"
     height="64px"
     viewBox="0 0 64 64"
     version="1.1"
     xmlns="http://www.w3.org/2000/svg"
     xmlns:xlink="http://www.w3.org/1999/xlink">
    <title>ic_camera_shootbar_Vedio</title>
    <defs>
        <path
            d="M32.2074,64 C14.5343,64 0.2074,49.6731 0.2074,32 C0.2074,14.3269 14.5343,0 32.2074,0 C49.8805,0 64.2074,14.3269 64.2074,32 C64.2074,49.6731 49.8805,64 32.2074,64 Z M32.2074,62.5 C49.0521,62.5 62.7074,48.8447 62.7074,32 C62.7074,15.1553 49.0521,1.5 32.2074,1.5 C15.3627,1.5 1.7074,15.1553 1.7074,32 C1.7074,48.8447 15.3627,62.5 32.2074,62.5 Z"
            id="path-1"></path>
        <path
            d="M32.2074,56 C45.4622,56 56.2074,45.2548 56.2074,32 C56.2074,18.7452 45.4622,8 32.2074,8 C18.9525,8 8.2074,18.7452 8.2074,32 C8.2074,45.2548 18.9525,56 32.2074,56 Z"
            id="path-3"></path>
        <path
            d="M32.2074,41 C37.1779,41 41.2074,36.9706 41.2074,32 C41.2074,27.0294 37.1779,23 32.2074,23 C27.2368,23 23.2074,27.0294 23.2074,32 C23.2074,36.9706 27.2368,41 32.2074,41 Z"
            id="path-5"></path>
    </defs>
    <g
        id="take_video_normal"
        stroke="#000000"
        stroke-opacity="0.3"
        stroke-width="0.3"
        fill-rule="evenodd">
        <mask
            id="mask-2"
            fill="white">
            <use xlink:href="#path-1"></use>
        </mask>
        <use
            id="Clip-112"
            fill="#FFFFFF"
            xlink:href="#path-1"></use>
        <mask
            id="mask-4"
            fill="white">
            <use xlink:href="#path-3"></use>
        </mask>
        <use
            id="Clip-114"
            fill="#FFFFFF"
            xlink:href="#path-3"></use>
        <mask
            id="mask-6"
            fill="white">
            <use xlink:href="#path-5"></use>
        </mask>
        <use
            id="Clip-116"
            fill="#EE1E24"
            xlink:href="#path-5"></use>
    </g>
</svg>