<?xml version="1.0" encoding="UTF-8"?>
<svg width="24px"
     height="24px"
     viewBox="0 0 24 24"
     version="1.1"
     xmlns="http://www.w3.org/2000/svg"
     xmlns:xlink="http://www.w3.org/1999/xlink">
    <title>ic/ic_camera_photo_self-portrait</title>
    <g
        id="ic/ic_camera_photo_self-portrait"
        stroke="#000000"
        stroke-opacity="0.1"
        stroke-width="0.5"
        fill="none"
        fill-rule="evenodd">
        <path
            d="M18.5,2 C19.3284271,2 20,2.67157288 20,3.5 L20,20.5 C20,21.3284271 19.3284271,22 18.5,22 L5.5,22 C4.67157288,22 4,21.3284271 4,20.5 L4,3.5 C4,2.67157288 4.67157288,2 5.5,2 L18.5,2 Z M17.7,3.5 L12.8,3.5 C12.3581722,3.5 12,3.85817221 12,4.30000001 L12,4.30000001 L12,19.7 C12,20.1418278 12.3581722,20.5 12.8,20.5 L12.8,20.5 L17.7,20.5 C18.1418278,20.5 18.5,20.1418278 18.5,19.7 L18.5,19.7 L18.5,4.30000001 C18.5,3.85817221 18.1418278,3.5 17.7,3.5 L17.7,3.5 Z M7.34999999,3.5 L5.90000001,3.5 C5.6790861,3.5 5.5,3.6790861 5.5,3.90000001 L5.5,3.90000001 L5.5,7.59999999 C5.5,7.8209139 5.6790861,8 5.90000001,8 L5.90000001,8 L7.34999999,8 C7.5709139,8 7.75,7.8209139 7.75,7.59999999 L7.75,7.59999999 L7.75,3.90000001 C7.75,3.6790861 7.5709139,3.5 7.34999999,3.5 L7.34999999,3.5 Z"
            id="形状结合"
            fill="#FFFFFF"></path>
    </g>
</svg>