<?xml version="1.0" encoding="UTF-8"?>
<svg width="24px" height="24px" viewBox="0 0 24 24" version="1.1" xmlns="http://www.w3.org/2000/svg" xmlns:xlink="http://www.w3.org/1999/xlink">
    <title>照片比例16:9</title>
    <g id="照片比例16:9" stroke="none" stroke-width="1" fill="none" fill-rule="evenodd">
        <path d="M18,1 C19.6568542,1 21,2.34314575 21,4 L21,20 C21,21.6568542 19.6568542,23 18,23 L6,23 C4.34314575,23 3,21.6568542 3,20 L3,4 C3,2.34314575 4.34314575,1 6,1 L18,1 Z M18,2.5 L6,2.5 C5.22030388,2.5 4.57955132,3.09488808 4.50686658,3.85553999 L4.5,4 L4.5,20 C4.5,20.7796961 5.09488808,21.4204487 5.85553999,21.4931334 L6,21.5 L18,21.5 C18.7796961,21.5 19.4204487,20.9051119 19.4931334,20.14446 L19.5,20 L19.5,4 C19.5,3.22030388 18.9051119,2.57955132 18.14446,2.50686658 L18,2.5 Z" id="形状结合" fill="#FFFFFF" fill-rule="nonzero"></path>
        <g id="16:9" transform="translate(5.351134, 9.347000)" fill="#FFFFFF" fill-rule="nonzero">
            <polygon id="路径" points="0 1.953 0 0.98 1.568 0.091 2.359 0.091 2.359 5.222 1.33 5.222 1.33 1.211"></polygon>
            <path d="M5.43673163,1.96 C5.75406497,1.96 6.0363983,2.02883333 6.28373163,2.1665 C6.53106497,2.30416667 6.7223983,2.49666667 6.85773163,2.744 C6.99306497,2.99133333 7.06073163,3.27366667 7.06073163,3.591 C7.06073163,3.92233333 6.98023163,4.21866667 6.81923163,4.48 C6.65823163,4.74133333 6.4388983,4.94433333 6.16123163,5.089 C5.88356497,5.23366667 5.5813983,5.306 5.25473163,5.306 C4.91873163,5.306 4.61306497,5.2325 4.33773163,5.0855 C4.0623983,4.9385 3.8453983,4.732 3.68673163,4.466 C3.52806497,4.2 3.44873163,3.892 3.44873163,3.542 C3.44873163,3.28066667 3.49773163,3.02983333 3.59573163,2.7895 C3.69373163,2.54916667 3.8663983,2.233 4.11373163,1.841 L5.21973163,0.091 L6.31873163,0.091 L5.31773163,1.631 C5.2383983,1.757 5.15206497,1.883 5.05873163,2.009 C5.17073163,1.97633333 5.29673163,1.96 5.43673163,1.96 Z M5.24773163,4.396 C5.46706497,4.396 5.6443983,4.3225 5.77973163,4.1755 C5.91506497,4.0285 5.98273163,3.83833333 5.98273163,3.605 C5.98273163,3.37166667 5.91506497,3.1815 5.77973163,3.0345 C5.6443983,2.8875 5.46706497,2.814 5.24773163,2.814 C5.02373163,2.814 4.84406497,2.8875 4.70873163,3.0345 C4.5733983,3.1815 4.50573163,3.37166667 4.50573163,3.605 C4.50573163,3.843 4.57456497,4.03433333 4.71223163,4.179 C4.8498983,4.32366667 5.0283983,4.396 5.24773163,4.396 Z" id="形状"></path>
            <path d="M8.36273163,2.002 C8.20406497,2.002 8.06873163,1.94366667 7.95673163,1.827 C7.84473163,1.71033333 7.78873163,1.57033333 7.78873163,1.407 C7.78873163,1.24366667 7.84473163,1.10366667 7.95673163,0.987 C8.06873163,0.870333333 8.20406497,0.812 8.36273163,0.812 C8.52606497,0.812 8.6648983,0.870333333 8.77923163,0.987 C8.89356497,1.10366667 8.95073163,1.24366667 8.95073163,1.407 C8.95073163,1.57033333 8.89356497,1.71033333 8.77923163,1.827 C8.6648983,1.94366667 8.52606497,2.002 8.36273163,2.002 Z M8.36273163,4.508 C8.20406497,4.508 8.06873163,4.44966667 7.95673163,4.333 C7.84473163,4.21633333 7.78873163,4.07633333 7.78873163,3.913 C7.78873163,3.74966667 7.84473163,3.60966667 7.95673163,3.493 C8.06873163,3.37633333 8.20406497,3.318 8.36273163,3.318 C8.52606497,3.318 8.6648983,3.37633333 8.77923163,3.493 C8.89356497,3.60966667 8.95073163,3.74966667 8.95073163,3.913 C8.95073163,4.07633333 8.89356497,4.21633333 8.77923163,4.333 C8.6648983,4.44966667 8.52606497,4.508 8.36273163,4.508 Z" id="形状"></path>
            <path d="M11.4917316,0 C11.8277316,0 12.1333983,0.0735 12.4087316,0.2205 C12.684065,0.3675 12.901065,0.574 13.0597316,0.84 C13.2183983,1.106 13.2977316,1.414 13.2977316,1.764 C13.2977316,2.02533333 13.2487316,2.27616667 13.1507316,2.5165 C13.0527316,2.75683333 12.880065,3.073 12.6327316,3.465 L11.5267316,5.215 L10.4277316,5.215 L11.4287316,3.675 C11.508065,3.549 11.5943983,3.423 11.6877316,3.297 C11.5757316,3.32966667 11.4497316,3.346 11.3097316,3.346 C10.9923983,3.346 10.710065,3.27716667 10.4627316,3.1395 C10.2153983,3.00183333 10.0228983,2.80933333 9.88523163,2.562 C9.74756497,2.31466667 9.67873163,2.03233333 9.67873163,1.715 C9.67873163,1.38366667 9.7603983,1.08733333 9.92373163,0.826 C10.087065,0.564666667 10.307565,0.361666667 10.5852316,0.217 C10.8628983,0.0723333333 11.165065,0 11.4917316,0 Z M11.4987316,2.492 C11.7227316,2.492 11.9023983,2.4185 12.0377316,2.2715 C12.173065,2.1245 12.2407316,1.93433333 12.2407316,1.701 C12.2407316,1.463 12.1718983,1.27166667 12.0342316,1.127 C11.896565,0.982333333 11.718065,0.91 11.4987316,0.91 C11.2793983,0.91 11.102065,0.9835 10.9667316,1.1305 C10.8313983,1.2775 10.7637316,1.46766667 10.7637316,1.701 C10.7637316,1.93433333 10.8313983,2.1245 10.9667316,2.2715 C11.102065,2.4185 11.2793983,2.492 11.4987316,2.492 Z" id="形状"></path>
        </g>
    </g>
</svg>