<?xml version="1.0" encoding="UTF-8"?>
<svg width="24px" height="24px" viewBox="0 0 24 24" version="1.1" xmlns="http://www.w3.org/2000/svg" xmlns:xlink="http://www.w3.org/1999/xlink">
    <title>照片比例4:3备份</title>
    <g id="照片比例4:3备份" stroke="none" stroke-width="1" fill="none" fill-rule="evenodd">
        <g id="编组">
            <path d="M18.5,1.5 C20.1568542,1.5 21.5,2.84314575 21.5,4.5 L21.5,19.5 C21.5,21.1568542 20.1568542,22.5 18.5,22.5 L5.5,22.5 C3.84314575,22.5 2.5,21.1568542 2.5,19.5 L2.5,4.5 C2.5,2.84314575 3.84314575,1.5 5.5,1.5 L18.5,1.5 Z M18.5,3 L5.5,3 C4.72030388,3 4.07955132,3.59488808 4.00686658,4.35553999 L4,4.5 L4,19.5 C4,20.2796961 4.59488808,20.9204487 5.35553999,20.9931334 L5.5,21 L18.5,21 C19.2796961,21 19.9204487,20.4051119 19.9931334,19.64446 L20,19.5 L20,4.5 C20,3.72030388 19.4051119,3.07955132 18.64446,3.00686658 L18.5,3 Z" id="矩形备份-2" fill="#FFFFFF" fill-rule="nonzero"></path>
            <g id="4:3" transform="translate(6.344000, 8.968000)" fill="#FFFFFF" fill-rule="nonzero">
                <polygon id="路径" points="3.648 2.416 3.648 3.784 4.44 3.784 4.44 4.776 3.648 4.776 3.648 5.968 2.512 5.968 2.512 4.776 0 4.776 0 3.984 2.016 0.104 3.232 0.104 1.304 3.784 2.512 3.784 2.512 2.416"></polygon>
                <path d="M5.72,2.288 C5.53866667,2.288 5.384,2.22133333 5.256,2.088 C5.128,1.95466667 5.064,1.79466667 5.064,1.608 C5.064,1.42133333 5.128,1.26133333 5.256,1.128 C5.384,0.994666667 5.53866667,0.928 5.72,0.928 C5.90666667,0.928 6.06533333,0.994666667 6.196,1.128 C6.32666667,1.26133333 6.392,1.42133333 6.392,1.608 C6.392,1.79466667 6.32666667,1.95466667 6.196,2.088 C6.06533333,2.22133333 5.90666667,2.288 5.72,2.288 Z M5.72,5.152 C5.53866667,5.152 5.384,5.08533333 5.256,4.952 C5.128,4.81866667 5.064,4.65866667 5.064,4.472 C5.064,4.28533333 5.128,4.12533333 5.256,3.992 C5.384,3.85866667 5.53866667,3.792 5.72,3.792 C5.90666667,3.792 6.06533333,3.85866667 6.196,3.992 C6.32666667,4.12533333 6.392,4.28533333 6.392,4.472 C6.392,4.65866667 6.32666667,4.81866667 6.196,4.952 C6.06533333,5.08533333 5.90666667,5.152 5.72,5.152 Z" id="形状"></path>
                <path d="M10.312,2.912 C10.6373333,3.03466667 10.8853333,3.21466667 11.056,3.452 C11.2266667,3.68933333 11.312,3.984 11.312,4.336 C11.312,4.69866667 11.22,5.00933333 11.036,5.268 C10.852,5.52666667 10.604,5.724 10.292,5.86 C9.98,5.996 9.63466667,6.064 9.256,6.064 C8.77066667,6.064 8.348,5.94933333 7.988,5.72 C7.628,5.49066667 7.37333333,5.15733333 7.224,4.72 L8.144,4.192 C8.22933333,4.46933333 8.37066667,4.67866667 8.568,4.82 C8.76533333,4.96133333 8.98666667,5.032 9.232,5.032 C9.472,5.032 9.67333333,4.96266667 9.836,4.824 C9.99866667,4.68533333 10.08,4.49333333 10.08,4.248 C10.08,3.70933333 9.66933333,3.44 8.848,3.44 L8.632,3.44 L8.632,2.48 L8.944,2.48 C9.248,2.48 9.48133333,2.40666667 9.644,2.26 C9.80666667,2.11333333 9.888,1.93066667 9.888,1.712 C9.888,1.50933333 9.82133333,1.34666667 9.688,1.224 C9.55466667,1.10133333 9.38133333,1.04 9.168,1.04 C8.93866667,1.04 8.74,1.11333333 8.572,1.26 C8.404,1.40666667 8.27466667,1.616 8.184,1.888 L7.304,1.384 C7.44266667,0.936 7.68533333,0.593333333 8.032,0.356 C8.37866667,0.118666667 8.78933333,0 9.264,0 C9.632,0 9.956,0.068 10.236,0.204 C10.516,0.34 10.7333333,0.530666667 10.888,0.776 C11.0426667,1.02133333 11.12,1.304 11.12,1.624 C11.12,1.92266667 11.052,2.18133333 10.916,2.4 C10.78,2.61866667 10.5786667,2.78933333 10.312,2.912 Z" id="路径"></path>
            </g>
        </g>
    </g>
</svg>