<?xml version="1.0" encoding="UTF-8"?>
<svg width="24px" height="24px" viewBox="0 0 24 24" version="1.1" xmlns="http://www.w3.org/2000/svg" xmlns:xlink="http://www.w3.org/1999/xlink">
    <title>参考线off</title>
    <g id="参考线off" stroke="none" stroke-width="1" fill="none" fill-rule="evenodd">
        <g id="编组" transform="translate(-0.000000, 0.000000)">
            <path d="M3.51465921,2.45399904 L21.546001,20.4853408 C21.8388942,20.778234 21.8388942,21.2531077 21.546001,21.546001 C21.2531077,21.8388942 20.778234,21.8388942 20.4853408,21.546001 L17.0007895,18.062 L17.0021053,21.25 C17.0021053,21.6296958 16.7199514,21.943491 16.3538758,21.9931534 L16.2514737,22 C15.8372601,22 15.5014737,21.6642136 15.5014737,21.25 L15.5007895,16.999 L8.49778947,16.999 L8.49852632,21.25 C8.49852632,21.6296958 8.21637243,21.943491 7.85029687,21.9931534 L7.74789474,22 C7.33368117,22 6.99789474,21.6642136 6.99789474,21.25 L6.99778947,16.999 L2.74578947,17 C2.33157591,17 1.99578947,16.6642136 1.99578947,16.25 C1.99578947,15.8357864 2.33157591,15.5 2.74578947,15.5 L6.99778947,15.499 L6.99778947,8.499 L2.74578947,8.5 C2.33157591,8.5 1.99578947,8.16421356 1.99578947,7.75 C1.99578947,7.33578644 2.33157591,7 2.74578947,7 L5.93878947,6.999 L2.45399904,3.51465921 C2.16110582,3.22176599 2.16110582,2.74689226 2.45399904,2.45399904 C2.74689226,2.16110582 3.22176599,2.16110582 3.51465921,2.45399904 Z M17.9737895,15.499 L21.2542105,15.5 C21.6684241,15.5 22.0042105,15.8357864 22.0042105,16.25 C22.0042105,16.6642136 21.6684241,17 21.2542105,17 L19.4737895,17 L17.9737895,15.499 Z M14.4377895,15.499 L8.49778947,9.558 L8.49778947,15.499 L14.4377895,15.499 Z M16.2521053,2 C16.6663188,2 17.0021053,2.33578644 17.0021053,2.75 L17.0017895,6.999 L21.2542105,7 C21.6684241,7 22.0042105,7.33578644 22.0042105,7.75 C22.0042105,8.16421356 21.6684241,8.5 21.2542105,8.5 L17.0017895,8.499 L17.0007895,14.526 L15.5007895,13.026 L15.5007895,8.499 L10.9727895,8.499 L9.47278947,6.999 L15.5007895,6.999 L15.5014737,2.75 C15.5014737,2.37030423 15.7836276,2.05650904 16.1497031,2.00684662 L16.2521053,2 Z M7.74852632,2 C8.16273988,2 8.49852632,2.33578644 8.49852632,2.75 L8.49778947,6.024 L6.99778947,4.523 L6.99789474,2.75 C6.99789474,2.37030423 7.28004862,2.05650904 7.64612418,2.00684662 L7.74852632,2 Z" id="形状结合" fill="#FFFFFF"></path>
            <g id="编组-61备份-21" transform="translate(1.923669, 1.923669)">
                <g id="编组-60" transform="translate(10.076331, 10.076331) rotate(225.000000) translate(-10.076331, -10.076331) translate(-3.423753, 9.326331)">
                    <g id="编组-59" transform="translate(-0.000000, 0.000000)"></g>
                </g>
            </g>
        </g>
    </g>
</svg>