<?xml version="1.0" encoding="UTF-8"?>
<svg width="24px"
     height="24px"
     viewBox="0 0 24 24"
     version="1.1"
     xmlns="http://www.w3.org/2000/svg"
     xmlns:xlink="http://www.w3.org/1999/xlink">
    <title>设置</title>
    <g
        id="设置"
        fill="none"
        stroke="#000000"
        stroke-opacity="0.3"
        stroke-width="0.3"
        fill-rule="evenodd">
        <g id="编组">
            <g
                id="编组-180"
                transform="translate(1.696863, 1.250000)"
                fill="#FFFFFF"
                fill-rule="nonzero">
                <path
                    d="M11.7926331,0 C12.49324,0 13.1263232,0.41785112 13.4017409,1.06205231 L13.4017409,1.06205231 L14.2243867,2.98625 L15.0748867,3.47725 L17.1587468,3.22607817 C17.8316904,3.14491431 18.4887379,3.45961774 18.8482371,4.02951678 L18.8482371,4.02951678 L18.8831848,4.08735213 L20.3711498,6.66013134 C20.7226019,7.26781272 20.6769125,8.02669833 20.2550912,8.58782407 L20.2550912,8.58782407 L18.9968867,10.26125 L18.9968867,11.2385 L20.2551168,12.91219 C20.6628608,13.45461 20.7191393,14.1818142 20.404978,14.7785992 L20.404978,14.7785992 L20.3711563,14.8398574 L18.8831848,17.4126479 C18.5325234,18.0189622 17.8541219,18.3577912 17.1587468,18.2739218 L17.1587468,18.2739218 L15.0748867,18.0225 L14.2243867,18.5135 L13.4017409,20.4379477 C13.1352077,21.0613682 12.5337119,21.4728063 11.8602132,21.498702 L11.8602132,21.498702 L11.7926331,21.5 L8.81368179,21.5 C8.1130381,21.5 7.4799291,21.0821056 7.2045342,20.4378548 L7.2045342,20.4378548 L6.38163669,18.5135 L5.53113669,18.0225 L3.44752655,18.2739218 C2.77458298,18.3550857 2.11753552,18.0403823 1.75803625,17.4704832 L1.75803625,17.4704832 L1.72308858,17.4126479 L0.235117092,14.8398574 C-0.116329228,14.232186 -0.0706475381,13.4733142 0.351156572,12.91219 L0.351156572,12.91219 L1.60913669,11.2385 L1.60913669,10.26125 L0.351182142,8.58782407 C-0.0565783481,8.04540252 -0.112864588,7.31818536 0.201301422,6.72139057 L0.201301422,6.72139057 L0.235123612,6.66013134 L1.72308858,4.08735213 C2.07375002,3.48103782 2.75215152,3.14220884 3.44752655,3.22607817 L3.44752655,3.22607817 L5.53113669,3.47725 L6.38163669,2.98625 L7.2045342,1.06214525 C7.47104539,0.43867667 8.07256459,0.02719647 8.74609809,0.00129813 L8.74609809,0.00129813 L8.81368179,0 L11.7926331,0 Z M11.7926331,1.5 L8.81368179,1.5 C8.71358979,1.5 8.62314569,1.5596992 8.58380349,1.65173504 L8.58380349,1.65173504 L7.72861613,3.65233575 C7.6223552,3.9009195 7.43836765,4.10835416 7.20424655,4.24353025 L7.20424655,4.24353025 L6.20910785,4.81810022 C5.97482811,4.95336791 5.70298792,5.00898058 5.4344083,4.97658714 L5.4344083,4.97658714 L3.26791291,4.71528566 C3.16857362,4.70330433 3.07165912,4.75170847 3.02156463,4.8383248 L3.02156463,4.8383248 L1.53359965,7.41110401 C1.48339221,7.49791564 1.48991927,7.60632787 1.55017944,7.68648869 L1.55017944,7.68648869 L2.85845706,9.4268191 C3.02126288,9.6433908 3.109294,9.9069971 3.10929264,10.1779382 L3.10929264,10.1779382 L3.10928688,11.3219965 C3.10928551,11.5929255 3.02125956,11.8565199 2.8584649,12.0730849 L2.8584649,12.0730849 L1.5501702,13.8135037 C1.48991247,13.8936643 1.48338652,14.0020745 1.53359313,14.0888847 L1.53359313,14.0888847 L3.02156463,16.6616752 C3.07165912,16.7482915 3.16857362,16.7966957 3.26791291,16.7847143 L3.26791291,16.7847143 L5.4344083,16.5234129 C5.70298792,16.4910194 5.97482811,16.5466321 6.20910785,16.6818998 L6.20910785,16.6818998 L7.20424655,17.2564697 C7.43836765,17.3916458 7.6223552,17.5990805 7.72861613,17.8476643 L7.72861613,17.8476643 L8.58380349,19.848265 C8.62314569,19.9403008 8.71358979,20 8.81368179,20 L8.81368179,20 L11.7926331,20 C11.8927198,20 11.9831603,19.940307 12.0225056,19.8482782 L12.0225056,19.8482782 L12.8779082,17.847494 C12.984171,17.5989455 13.1681403,17.3915401 13.4022318,17.256376 L13.4022318,17.256376 L14.3971525,16.6819104 C14.631436,16.5466355 14.9032831,16.4910191 15.1718696,16.5234134 L15.1718696,16.5234134 L17.3383605,16.7847143 C17.4376998,16.7966957 17.5346143,16.7482915 17.5847088,16.6616752 L17.5847088,16.6616752 L19.0726803,14.0888847 C19.1228869,14.0020745 19.1163609,13.8936643 19.0561032,13.8135037 L19.0561032,13.8135037 L17.7478085,12.0730849 C17.5850138,11.8565199 17.4969879,11.5929255 17.4969865,11.3219965 L17.4969865,11.3219965 L17.4969808,10.1779382 C17.4969794,9.9069971 17.5850105,9.6433908 17.7478163,9.4268191 L17.7478163,9.4268191 L19.0560939,7.68648869 C19.1163541,7.60632787 19.1228812,7.49791564 19.0726737,7.41110401 L19.0726737,7.41110401 L17.5847088,4.8383248 C17.5346143,4.75170847 17.4376998,4.70330433 17.3383605,4.71528566 L17.3383605,4.71528566 L15.1718696,4.9765866 C14.9032831,5.00898087 14.631436,4.9533645 14.3971525,4.81808955 L14.3971525,4.81808955 L13.4022318,4.24362397 C13.1681403,4.1084599 12.984171,3.90105452 12.8779082,3.65250599 L12.8779082,3.65250599 L12.0225056,1.65172176 C11.9831603,1.55969302 11.8927198,1.5 11.7926331,1.5 L11.7926331,1.5 Z M10.3031367,6.25 C12.7884181,6.25 14.8031367,8.26471863 14.8031367,10.75 C14.8031367,13.2352814 12.7884181,15.25 10.3031367,15.25 C7.81785532,15.25 5.80313669,13.2352814 5.80313669,10.75 C5.80313669,8.26471863 7.81785532,6.25 10.3031367,6.25 Z M10.3031367,7.75 C8.64628249,7.75 7.30313669,9.0931458 7.30313669,10.75 C7.30313669,12.4068542 8.64628249,13.75 10.3031367,13.75 C11.9599909,13.75 13.3031367,12.4068542 13.3031367,10.75 C13.3031367,9.0931458 11.9599909,7.75 10.3031367,7.75 Z"
                    id="path-1"></path>
            </g>
        </g>
        <text
            id="JPG"
            font-family="HarmonyHeiTi-Bold, HarmonyHeiTi"
            font-size="15"
            font-weight="bold"
            fill="#FFFFFF">
            <tspan
                x="12"
                y="39.125">JPG
            </tspan>
        </text>
    </g>
</svg>