<?xml version="1.0" encoding="UTF-8"?>
<svg width="24px" height="24px" viewBox="0 0 24 24" version="1.1" xmlns="http://www.w3.org/2000/svg" xmlns:xlink="http://www.w3.org/1999/xlink">
    <title>照片比例1:1备份</title>
    <g id="照片比例1:1备份" stroke="none" stroke-width="1" fill="none" fill-rule="evenodd">
        <g id="编组">
            <path d="M19,2 C20.6568542,2 22,3.34314575 22,5 L22,19 C22,20.6568542 20.6568542,22 19,22 L5,22 C3.34314575,22 2,20.6568542 2,19 L2,5 C2,3.34314575 3.34314575,2 5,2 L19,2 Z M19,3.5 L5,3.5 C4.22030388,3.5 3.57955132,4.09488808 3.50686658,4.85553999 L3.5,5 L3.5,19 C3.5,19.7796961 4.09488808,20.4204487 4.85553999,20.4931334 L5,20.5 L19,20.5 C19.7796961,20.5 20.4204487,19.9051119 20.4931334,19.14446 L20.5,19 L20.5,5 C20.5,4.22030388 19.9051119,3.57955132 19.14446,3.50686658 L19,3.5 Z" id="矩形" fill="#FFFFFF" fill-rule="nonzero"></path>
            <g id="1:1" transform="translate(7.048000, 9.068000)" fill="#FFFFFF" fill-rule="nonzero">
                <polygon id="路径" points="0 2.128 0 1.016 1.792 0 2.696 0 2.696 5.864 1.52 5.864 1.52 1.28"></polygon>
                <path d="M5.296,2.184 C5.11466667,2.184 4.96,2.11733333 4.832,1.984 C4.704,1.85066667 4.64,1.69066667 4.64,1.504 C4.64,1.31733333 4.704,1.15733333 4.832,1.024 C4.96,0.890666667 5.11466667,0.824 5.296,0.824 C5.48266667,0.824 5.64133333,0.890666667 5.772,1.024 C5.90266667,1.15733333 5.968,1.31733333 5.968,1.504 C5.968,1.69066667 5.90266667,1.85066667 5.772,1.984 C5.64133333,2.11733333 5.48266667,2.184 5.296,2.184 Z M5.296,5.048 C5.11466667,5.048 4.96,4.98133333 4.832,4.848 C4.704,4.71466667 4.64,4.55466667 4.64,4.368 C4.64,4.18133333 4.704,4.02133333 4.832,3.888 C4.96,3.75466667 5.11466667,3.688 5.296,3.688 C5.48266667,3.688 5.64133333,3.75466667 5.772,3.888 C5.90266667,4.02133333 5.968,4.18133333 5.968,4.368 C5.968,4.55466667 5.90266667,4.71466667 5.772,4.848 C5.64133333,4.98133333 5.48266667,5.048 5.296,5.048 Z" id="形状"></path>
                <polygon id="路径" points="7.208 2.128 7.208 1.016 9 0 9.904 0 9.904 5.864 8.728 5.864 8.728 1.28"></polygon>
            </g>
        </g>
    </g>
</svg>