<svg width="24.000000" height="24.000000" viewBox="0 0 24 24" fill="none" xmlns="http://www.w3.org/2000/svg" xmlns:xlink="http://www.w3.org/1999/xlink">
	<desc>
		Created with Pixso.
	</desc>
	<defs>
		<filter id="filter_477_359_dd" x="-2.000000" y="-1.500000" width="28.000000" height="27.000000" filterUnits="userSpaceOnUse" color-interpolation-filters="sRGB">
			<feFlood flood-opacity="0" result="BackgroundImageFix"/>
			<feColorMatrix in="SourceAlpha" type="matrix" values="0 0 0 0 0 0 0 0 0 0 0 0 0 0 0 0 0 0 127 0" result="hardAlpha"/>
			<feOffset dx="0" dy="0"/>
			<feGaussianBlur stdDeviation="1"/>
			<feComposite in2="hardAlpha" operator="out" k2="-1" k3="1"/>
			<feColorMatrix type="matrix" values="0 0 0 0 0 0 0 0 0 0 0 0 0 0 0 0 0 0 0.2 0"/>
			<feBlend mode="normal" in2="BackgroundImageFix" result="effect_dropShadow_1"/>
			<feBlend mode="normal" in="SourceGraphic" in2="effect_dropShadow_1" result="shape"/>
		</filter>
		<clipPath id="clip477_361">
			<rect id="曝光不足" width="24.000000" height="24.000000" fill="white" fill-opacity="0"/>
		</clipPath>
	</defs>
	<rect id="曝光不足" width="24.000000" height="24.000000" fill="#8A8A8A" fill-opacity="0"/>
	<g clip-path="url(#clip477_361)">
		<g filter="url(#filter_477_359_dd)">
			<path id="形状" d="M12 20C12.4238 20 12.7675 20.3358 12.7675 20.75L12.7675 21.75C12.7675 22.1642 12.4238 22.5 12 22.5C11.5762 22.5 11.2325 22.1642 11.2325 21.75L11.2325 20.75C11.2325 20.3358 11.5762 20 12 20ZM18.8737 17.6569L19.7781 18.5408C19.9279 18.6872 20.0029 18.8792 20.0029 19.0711C20.0029 19.263 19.9279 19.455 19.7781 19.6014C19.4784 19.8943 18.9924 19.8943 18.6927 19.6014L17.7883 18.7175C17.6385 18.5711 17.5635 18.3792 17.5635 18.1872C17.5635 17.9953 17.6385 17.8033 17.7883 17.6569C18.088 17.364 18.5739 17.364 18.8737 17.6569ZM6.21155 17.6569C6.36139 17.8033 6.43634 17.9953 6.43634 18.1872C6.43634 18.3792 6.36139 18.5711 6.21155 18.7175L5.30713 19.6014C5.00739 19.8943 4.52148 19.8943 4.2218 19.6014C4.07196 19.455 3.99701 19.263 3.99701 19.0711C3.99701 18.8792 4.07196 18.6872 4.2218 18.5408L5.12622 17.6569C5.4259 17.364 5.91187 17.364 6.21155 17.6569ZM12 5C15.9559 5 19.1628 8.134 19.1628 12C19.1628 15.866 15.9559 19 12 19C8.04407 19 4.83722 15.866 4.83722 12C4.83722 8.134 8.04407 5 12 5ZM12.0001 6.5C15.1083 6.5 17.6281 8.96243 17.6281 12C17.6281 15.0376 15.1083 17.5 12.0001 17.5C8.89191 17.5 6.37219 15.0376 6.37219 12C6.37219 8.96243 8.89191 6.5 12.0001 6.5ZM3.04651 11.25C3.47034 11.25 3.81396 11.5858 3.81396 12C3.81396 12.4142 3.47034 12.75 3.04651 12.75L1.76746 12.75C1.34357 12.75 1 12.4142 1 12C1 11.5858 1.34357 11.25 1.76746 11.25L3.04651 11.25ZM22.2325 11.25C22.6564 11.25 23 11.5858 23 12C23 12.4142 22.6564 12.75 22.2325 12.75L20.9535 12.75C20.5296 12.75 20.186 12.4142 20.186 12C20.186 11.5858 20.5296 11.25 20.9535 11.25L22.2325 11.25ZM14.25 11.25C14.6642 11.25 15 11.5858 15 12C15 12.4142 14.6642 12.75 14.25 12.75L9.75 12.75C9.33575 12.75 9 12.4142 9 12C9 11.5858 9.33575 11.25 9.75 11.25L14.25 11.25ZM5.30713 4.39865L6.21155 5.28253C6.36139 5.42896 6.43634 5.62091 6.43634 5.81287C6.43634 6.00479 6.36139 6.19675 6.21155 6.34317C5.91187 6.63608 5.4259 6.63608 5.12622 6.34317L4.2218 5.45929C4.07196 5.31287 3.99701 5.12091 3.99701 4.92896C3.99701 4.73703 4.07196 4.54507 4.2218 4.39865C4.52148 4.10574 5.00739 4.10574 5.30713 4.39865ZM19.7781 4.39865C19.9279 4.54507 20.0029 4.73703 20.0029 4.92896C20.0029 5.12091 19.9279 5.31287 19.7781 5.45929L18.8737 6.34317C18.5739 6.63608 18.088 6.63608 17.7883 6.34317C17.6385 6.19675 17.5635 6.00479 17.5635 5.81287C17.5635 5.62091 17.6385 5.42896 17.7883 5.28253L18.6927 4.39865C18.9924 4.10574 19.4784 4.10574 19.7781 4.39865ZM12 1.5C12.4238 1.5 12.7675 1.83578 12.7675 2.25L12.7675 3.25C12.7675 3.66422 12.4238 4 12 4C11.5762 4 11.2325 3.66422 11.2325 3.25L11.2325 2.25C11.2325 1.83578 11.5762 1.5 12 1.5Z" clip-rule="evenodd" fill="#FFFFFF" fill-opacity="1.000000" fill-rule="evenodd"/>
		</g>
	</g>
</svg>