<svg viewBox="0 0 24 24" xmlns="http://www.w3.org/2000/svg" xmlns:xlink="http://www.w3.org/1999/xlink" width="24"
	 height="24" fill="none">
<rect id="美颜" width="24" height="24" x="0" y="0"/>
<path id="path"
	  d="M19.58 4.05996C18.4933 3.06663 17.31 2.29996 16.03 1.75996C14.75 1.22663 13.4067 0.959961 12 0.959961C10.0133 0.959961 8.17333 1.45663 6.48 2.44996C4.78667 3.44329 3.44333 4.78329 2.45 6.46996C1.45667 8.15663 0.959999 9.99996 0.959999 12C0.959999 14 1.45667 15.8433 2.45 17.53C3.44333 19.2166 4.78667 20.5566 6.48 21.55C8.17333 22.5433 10.0133 23.04 12 23.04C13.2933 23.04 14.54 22.8233 15.74 22.39C15.7933 22.3766 15.8333 22.3533 15.86 22.32C16.02 22.2266 16.1333 22.0933 16.2 21.92C16.2667 21.7533 16.2667 21.5733 16.2 21.38C16.1333 21.1933 16.0133 21.0533 15.84 20.96C15.6667 20.8733 15.49 20.8533 15.31 20.9C14.2567 21.28 13.1067 21.5 12 21.5C10.72 21.5 9.5 21.26 8.34 20.78C7.18 20.3 6.16 19.63 5.28 18.77C4.4 17.9033 3.73667 16.91 3.29 15.79C3.00333 15.1033 2.98667 14.4333 3.24 13.78C3.49333 13.12 4.22 12.3733 5.42 11.54C6.09333 11.06 6.81 10.7266 7.57 10.54C8.33 10.3466 9.28 10.1766 10.42 10.03C11.2467 9.91663 11.9 9.81329 12.38 9.71996C14.1267 9.36663 15.56 8.86996 16.68 8.22996C17.8 7.58996 18.64 6.79996 19.2 5.85996C19.9333 6.67329 20.5 7.60663 20.9 8.65996C21.3 9.71996 21.5 10.8333 21.5 12C21.5 13.12 21.31 14.2 20.93 15.24C20.85 15.4333 20.8533 15.6266 20.94 15.82C21.0267 16.0066 21.1733 16.1333 21.38 16.2C21.6067 16.28 21.8133 16.2766 22 16.19C22.18 16.1033 22.31 15.9533 22.39 15.74C22.8233 14.54 23.04 13.2933 23.04 12C23.04 10.48 22.7367 9.03663 22.13 7.66996C21.5233 6.30329 20.6733 5.09996 19.58 4.05996ZM12.1 8.20996C11.3933 8.36996 10.5767 8.50663 9.65 8.61996C8.45 8.79329 7.48667 8.97996 6.76 9.17996C6.02667 9.37996 5.28667 9.74329 4.54 10.27C4.07333 10.59 3.67333 10.9466 3.34 11.34C3 11.7333 2.72 12.1466 2.5 12.58C2.43333 10.6266 2.83667 8.87996 3.71 7.33996C4.58333 5.80663 5.76333 4.61663 7.25 3.76996C8.73667 2.92329 10.32 2.49996 12 2.49996C13.1533 2.49996 14.25 2.69329 15.29 3.07996C16.33 3.47329 17.2567 4.02329 18.07 4.72996C17.8167 5.28996 17.4267 5.79329 16.9 6.23996C16.3667 6.68663 15.7 7.07329 14.9 7.39996C14.1 7.73329 13.1667 8.00329 12.1 8.20996ZM7.75 11.9C7.49667 11.9 7.27333 11.9966 7.08 12.19C6.88667 12.3833 6.79 12.6066 6.79 12.86C6.79 13.12 6.88667 13.3466 7.08 13.54C7.27333 13.7266 7.49667 13.82 7.75 13.82C8.02333 13.82 8.25333 13.7266 8.44 13.54C8.62 13.3466 8.71 13.12 8.71 12.86C8.71 12.6066 8.61333 12.3833 8.42 12.19C8.23333 11.9966 8.01 11.9 7.75 11.9ZM17.54 12.86C17.54 12.6066 17.45 12.3833 17.27 12.19C17.0833 11.9966 16.8633 11.9 16.61 11.9C16.35 11.9 16.13 11.9966 15.95 12.19C15.7633 12.3833 15.67 12.6066 15.67 12.86C15.67 13.1333 15.7633 13.3633 15.95 13.55C16.13 13.73 16.35 13.82 16.61 13.82C16.8633 13.82 17.0833 13.7266 17.27 13.54C17.45 13.3466 17.54 13.12 17.54 12.86ZM8.71 17.93C9.01667 18.1233 9.45667 18.3233 10.03 18.53C10.61 18.7366 11.2833 18.84 12.05 18.84C13.17 18.84 14.2567 18.5366 15.31 17.93C15.49 17.85 15.6033 17.7166 15.65 17.53C15.6967 17.35 15.68 17.1633 15.6 16.97C15.5067 16.7766 15.36 16.6466 15.16 16.58C14.96 16.52 14.77 16.5366 14.59 16.63C13.81 17.0766 13.0467 17.31 12.3 17.33C11.5533 17.3433 10.9467 17.2666 10.48 17.1C10.0067 16.9333 9.67333 16.7866 9.48 16.66C9.28666 16.5466 9.1 16.51 8.92 16.55C8.73333 16.59 8.57667 16.6966 8.45 16.87C8.33667 17.0633 8.3 17.2566 8.34 17.45C8.38 17.6433 8.53666 17.8233 8.71 17.93ZM19.42 17.11C19.2933 17.67 19.0067 18.12 18.62 18.5C18.24 18.8866 17.7767 19.1366 17.23 19.25C17.7567 19.3633 18.2167 19.6333 18.61 20.02C19.0033 20.4 19.2633 20.8633 19.39 21.41C19.5167 20.8633 19.7967 20.4 20.17 20.02C20.55 19.6333 21.02 19.3833 21.58 19.27C21.02 19.1566 20.55 18.8866 20.17 18.5C19.7967 18.12 19.5467 17.6566 19.42 17.11Z"
	  fill="rgb(0,0,0)" fill-opacity="0.898039222" fill-rule="nonzero"/>
</svg>

