<?xml version="1.0" encoding="UTF-8"?>
<svg width="24px"
     height="24px"
     viewBox="0 0 24 24"
     version="1.1"
     xmlns="http://www.w3.org/2000/svg"
     xmlns:xlink="http://www.w3.org/1999/xlink">
    <title>ic_camera_setting_resolution_photo</title>
    <g
        id="ic_camera_setting_resolution_photo"
        stroke="none"
        stroke-width="1"
        fill="none"
        fill-rule="evenodd">
        <path
            d="M8,2 L8,3.5 L5,3.5 C4.19040076,3.5 3.53060706,4.14139372 3.50103462,4.94376543 L3.5,5 L3.5,19 C3.5,19.8095992 4.14139372,20.4693929 4.94376543,20.4989654 L5,20.5 L19,20.5 C19.8095992,20.5 20.4693929,19.8586063 20.4989654,19.0562346 L20.5,19 L20.5,15.75 L22,15.75 L22,19 C22,20.6568542 20.6568542,22 19,22 L5,22 C3.34314575,22 2,20.6568542 2,19 L2,5 C2,3.34314575 3.34314575,2 5,2 L8,2 Z M10.5,13.25 L10.5,14.75 L9,14.75 L9,13.25 L10.5,13.25 Z M14.25,13.25 L14.25,14.75 L12.75,14.75 L12.75,13.25 L14.25,13.25 Z M18.25,13.25 L18.25,14.75 L16.75,14.75 L16.75,13.25 L18.25,13.25 Z M22,13.25 L22,14.75 L20.5,14.75 L20.5,13.25 L22,13.25 Z M19,2 C20.6568542,2 22,3.34314575 22,5 L22,12.25 L20.5,12.25 L20.5,5 C20.5,4.19040076 19.8586063,3.53060706 19.0562346,3.50103462 L19,3.5 L11.5,3.5 L11.5,2 L19,2 Z M10.5,9.5 L10.5,11 L9,11 L9,9.5 L10.5,9.5 Z M10.5,5.75 L10.5,7.25 L9,7.25 L9,5.75 L10.5,5.75 Z M10.5,2 L10.5,3.5 L9,3.5 L9,2 L10.5,2 Z"
            id="形状结合"
            fill="#FFFFFF"
            fill-rule="nonzero"></path>
    </g>
</svg>