<?xml version="1.0" encoding="UTF-8"?>
<svg width="24px" height="24px" viewBox="0 0 24 24" version="1.1" xmlns="http://www.w3.org/2000/svg" xmlns:xlink="http://www.w3.org/1999/xlink">
    <title>延时摄影</title>
    <defs>
        <path d="M11.9307403,1 C11.9649257,1 11.9985927,1.00183763 12.0315959,1.00603732 L12.0175615,1.00605711 C18.0952517,1.00605711 23.0221931,5.93092486 23.0221931,12.0060571 C23.0221931,18.0811894 18.0952517,23.0060571 12.0175615,23.0060571 C5.99379305,23.0060571 1.10044492,18.1681893 1.01409075,12.16748 C1.00517324,12.1219177 1.00044256,12.0749688 1.00044256,12.026957 C0.999733243,11.6694205 1.01656819,11.3115532 1.05107401,10.9544431 C1.09091208,10.5421481 1.45757905,10.2401986 1.87004761,10.2800199 C2.28251617,10.3198412 2.58459288,10.6863538 2.54475482,11.0986488 C2.51555626,11.4008326 2.50102523,11.7036128 2.50107426,12.0061308 L2.51356151,12.0060571 C2.51356151,17.2527622 6.76864725,21.5060571 12.0175615,21.5060571 C17.2664758,21.5060571 21.5215615,17.2527622 21.5215615,12.0060571 C21.5215615,6.75935199 17.2664758,2.50605711 12.0175615,2.50605711 L12.0175463,2.49560425 C11.9924017,2.49832492 11.9668811,2.49980533 11.9410467,2.49998269 C11.6316649,2.50210668 11.3228834,2.51945731 11.0156932,2.55186704 C10.6035943,2.59534504 10.2342615,2.29665939 10.1907652,1.88473399 C10.1472689,1.47280858 10.4460803,1.10363119 10.8581792,1.06015319 C11.2142033,1.02259129 11.5721126,1.00248014 11.9307403,1 Z M10.0432155,6.01847918 C10.1599183,6.26874916 11.1914879,8.08642435 13.1379243,11.4715047 C13.4296813,12.0971797 13.1587738,12.8410049 12.5328354,13.1328847 C11.906897,13.4247646 11.1629578,13.1541702 10.8712008,12.5284953 C10.8442898,12.4707843 10.8221658,12.4120682 10.8046659,12.3527942 C9.45591156,8.69200898 8.74832631,6.79237725 8.68318137,6.65267349 C8.50812715,6.27726851 8.67067167,5.83097341 9.04623472,5.65584549 C9.42179776,5.48071757 9.86816124,5.6430742 10.0432155,6.01847918 Z M3.16296292,6.75787506 C3.53406643,6.94218719 3.68542785,7.39231391 3.50103812,7.76326123 C3.36392435,8.03910081 3.23983585,8.32245142 3.12922065,8.61270566 C2.9817056,8.9997851 2.548199,9.19404074 2.16095658,9.04658777 C1.77371415,8.8991348 1.57937672,8.46581066 1.72689178,8.07873121 C1.8548256,7.74303293 1.99842141,7.41513822 2.15715343,7.09580797 C2.34154316,6.72486065 2.79185941,6.57356293 3.16296292,6.75787506 Z M5.63145249,3.93881859 C5.91116961,4.24442791 5.89007551,4.71883331 5.58433751,4.99843269 C5.35624988,5.20702031 5.1384605,5.42665678 4.93178753,5.65664118 C4.65487294,5.96479003 4.18048012,5.99020488 3.87220152,5.71340683 C3.56392292,5.43660878 3.53849738,4.96241562 3.81541197,4.65426677 C4.0548805,4.38778768 4.30719234,4.13333596 4.57139224,3.89172344 C4.87713024,3.61212405 5.35173538,3.63320927 5.63145249,3.93881859 Z M8.94414928,2.1912538 C9.09636929,2.57650884 8.90732559,3.01216652 8.52190834,3.16432247 C8.23423916,3.2778892 7.95219298,3.40537285 7.67684725,3.54627202 C7.30798474,3.73502536 6.85588334,3.58914387 6.66705053,3.2204366 C6.47821772,2.85172933 6.62416063,2.39981821 6.99302315,2.21106487 C7.31155827,2.04806494 7.63785152,1.90058181 7.9706709,1.76919058 C8.35608814,1.61703462 8.79192926,1.80599877 8.94414928,2.1912538 Z" id="path-1"></path>
        <filter x="-20.4%" y="-20.4%" width="140.9%" height="140.9%" filterUnits="objectBoundingBox" id="filter-2">
            <feOffset dx="0" dy="0" in="SourceAlpha" result="shadowOffsetOuter1"></feOffset>
            <feGaussianBlur stdDeviation="1.5" in="shadowOffsetOuter1" result="shadowBlurOuter1"></feGaussianBlur>
            <feColorMatrix values="0 0 0 0 0   0 0 0 0 0   0 0 0 0 0  0 0 0 0.2 0" type="matrix" in="shadowBlurOuter1"></feColorMatrix>
        </filter>
    </defs>
    <g id="延时摄影" stroke="none" stroke-width="1" fill="none" fill-rule="evenodd">
        <g>
            <use fill="black" fill-opacity="1" filter="url(#filter-2)" xlink:href="#path-1"></use>
            <use fill="#FFFFFF" fill-rule="evenodd" xlink:href="#path-1"></use>
        </g>
    </g>
</svg>