<?xml version="1.0" encoding="UTF-8"?>
<svg width="24px"
     height="24px"
     viewBox="0 0 24 24"
     version="1.1"
     xmlns="http://www.w3.org/2000/svg"
     xmlns:xlink="http://www.w3.org/1999/xlink">
    <title>super_macro</title>
    <g
        id="super_macro"
        stroke="#000000"
        stroke-opacity="0.3"
        stroke-width="0.3"
        fill="none"
        fill-rule="evenodd">
        <path
            d="M12,1 C12.9632688,1 14.3217926,2.51395163 15.2168551,4.48380248 L15.3033692,4.67899125 C15.4449673,5.00663199 15.5733535,5.34559251 15.6847445,5.69121139 L15.7176482,5.79509214 L15.744,5.8816 L15.79166,5.82859157 C16.6336289,4.90501038 17.709397,4.33879574 19.1441216,4.22961244 L19.2645156,4.22157391 L19.3833535,4.21579223 C19.7175866,4.20246999 20.0248238,4.39849962 20.1535772,4.70722578 C20.5931174,5.76115962 20.8307692,6.97503053 20.8307692,8.16923077 C20.8307692,12.7936928 17.276096,16.5879164 12.7500567,16.9685944 L12.75,22.25 C12.75,22.6642136 12.4142136,23 12,23 C11.5857864,23 11.25,22.6642136 11.25,22.25 L11.2499433,16.9685944 C6.72390401,16.5879164 3.16923077,12.7936928 3.16923077,8.16923077 C3.16923077,6.94913292 3.41623723,5.81612664 3.90770455,4.69416786 C4.04119006,4.38943705 4.3493358,4.19912318 4.68158142,4.21621381 C5.82814566,4.27519278 6.85445121,4.77211106 7.76905258,5.58456648 C7.89264539,5.694356 8.0103367,5.80568174 8.12342435,5.91935909 L8.23733333,6.03626667 L8.26521126,5.94698659 C8.3329688,5.73147533 8.40787217,5.51702174 8.48891431,5.30498936 L8.57196542,5.09381455 L8.65888525,4.88455689 C8.93015629,4.24839605 9.25247346,3.6433276 9.59710807,3.10825018 L9.69163106,2.96408451 L9.80633709,2.79591383 C10.5170499,1.77641757 11.2951616,1.07322349 11.9050344,1.00538489 L11.9554626,1.00120924 L12,1 Z M21.1099065,17.0119314 C21.2558311,17.4216448 21.041988,17.8720784 20.6322746,18.0180031 C18.6079554,18.73899 17.028119,20.3877577 16.3970549,22.4434011 C16.2694163,22.8591744 15.8288938,23.0927537 15.4131205,22.965115 C14.9973471,22.8374764 14.7637678,22.3969539 14.8914065,21.9811806 C15.668663,19.4493265 17.6111272,17.4221089 20.1038347,16.5342995 C20.5135482,16.3883749 20.9639818,16.6022179 21.1099065,17.0119314 Z M2.89009354,17.0119314 C3.03601817,16.6022179 3.48645182,16.3883749 3.89616526,16.5342995 C6.38887284,17.4221089 8.33133703,19.4493265 9.10859347,21.9811806 C9.23623215,22.3969539 9.00265286,22.8374764 8.58687953,22.965115 C8.1711062,23.0927537 7.73058373,22.8591744 7.60294505,22.4434011 C6.97188099,20.3877577 5.39204462,18.73899 3.3677254,18.0180031 C2.95801197,17.8720784 2.7441689,17.4216448 2.89009354,17.0119314 Z M12.074111,2.74771351 L12.0149333,2.6992 L11.9791118,2.73076196 C11.937982,2.76738965 11.8939758,2.80867335 11.8478285,2.85418854 C11.5511865,3.14676697 11.2167939,3.56145445 10.9034537,4.03892515 C10.119556,5.23343598 9.58644473,6.61132353 9.47415968,7.95874408 C9.41123908,8.7137913 8.43155942,8.96648272 8.01128284,8.33606785 C7.18511792,7.09682046 6.31366434,6.23389123 5.28208723,5.93026046 L5.19327152,5.90560894 L5.15306667,5.89573333 L5.14498263,5.91910557 C4.92709857,6.55121446 4.80464882,7.18805825 4.77586904,7.85772234 L4.77088953,8.01285559 L4.76923077,8.16923077 C4.76923077,12.1626743 8.00655642,15.4 12,15.4 C15.9934436,15.4 19.2307692,12.1626743 19.2307692,8.16923077 C19.2307692,7.44341848 19.1239982,6.70705356 18.9248778,6.02704976 L18.8773333,5.87173333 L18.8220929,5.88108555 C18.0072705,6.0287947 17.4049235,6.40517758 16.8995539,6.99048862 L16.8393676,7.06172753 L16.780068,7.13496458 C16.6549147,7.29277676 16.5391542,7.45846828 16.4107441,7.65968092 L16.3548725,7.74817025 L16.1363192,8.10281576 L15.9887172,8.33606785 C15.5670215,8.96861139 14.5837398,8.71164837 14.5254333,7.95366489 C14.4126472,6.48744507 13.884838,5.09890084 13.1030497,3.94483236 C12.7962323,3.49191149 12.4680104,3.10582677 12.1729971,2.83506114 C12.1387622,2.80364007 12.1056949,2.77447124 12.074111,2.74771351 Z"
            id="形状"
            fill="#fff"
            fill-rule="nonzero"></path>
    </g>
</svg>