<?xml version="1.0" encoding="UTF-8"?>
<svg width="24px" height="24px" viewBox="0 0 24 24" version="1.1" xmlns="http://www.w3.org/2000/svg" xmlns:xlink="http://www.w3.org/1999/xlink">
    <title>adjustment</title>
    <defs>
        <path d="M17,5.125 C18.2952411,5.125 19.398766,5.94583481 19.8187629,7.09569278 L19.8703536,7.24987794 L22.25,7.25 C22.6642136,7.25 23,7.58578644 23,8 C23,8.41421356 22.6642136,8.75 22.25,8.75 L19.9345638,8.75112718 L19.9465075,8.69193138 C19.6814638,10.0777174 18.4630349,11.125 17,11.125 C15.5979249,11.125 14.4204966,10.1631727 14.0915372,8.86334032 L14.0654362,8.75112718 L1.75,8.75 C1.33578644,8.75 1,8.41421356 1,8 C1,7.58578644 1.33578644,7.25 1.75,7.25 L14.1296464,7.24987794 L14.1259405,7.26214335 C14.4965712,6.02587086 15.6430807,5.125 17,5.125 Z M17,6.625 C16.1715729,6.625 15.5,7.29657288 15.5,8.125 C15.5,8.95342712 16.1715729,9.625 17,9.625 C17.8284271,9.625 18.5,8.95342712 18.5,8.125 C18.5,7.29657288 17.8284271,6.625 17,6.625 Z M7,13 C8.34599014,13 9.4849464,13.8864174 9.86495326,15.1073368 L9.90532497,15.2493712 L22.25,15.25 C22.6642136,15.25 23,15.5857864 23,16 C23,16.4142136 22.6642136,16.75 22.25,16.75 L9.90542312,16.7502477 L9.91547191,16.7100641 C9.59653538,18.0241995 8.41222289,19 7,19 C5.6491781,19 4.50687915,18.1072071 4.13098372,16.8795019 L4.09457688,16.7502477 L1.75,16.75 C1.33578644,16.75 1,16.4142136 1,16 C1,15.5857864 1.33578644,15.25 1.75,15.25 L4.09467503,15.2493712 L4.08798369,15.2758473 C4.41193988,13.9688323 5.59282849,13 7,13 Z M7,14.5 C6.17157288,14.5 5.5,15.1715729 5.5,16 C5.5,16.8284271 6.17157288,17.5 7,17.5 C7.82842712,17.5 8.5,16.8284271 8.5,16 C8.5,15.1715729 7.82842712,14.5 7,14.5 Z" id="path-1"></path>
        <filter x="-20.5%" y="-32.4%" width="140.9%" height="164.9%" filterUnits="objectBoundingBox" id="filter-2">
            <feOffset dx="0" dy="0" in="SourceAlpha" result="shadowOffsetOuter1"></feOffset>
            <feGaussianBlur stdDeviation="1.5" in="shadowOffsetOuter1" result="shadowBlurOuter1"></feGaussianBlur>
            <feColorMatrix values="0 0 0 0 0   0 0 0 0 0   0 0 0 0 0  0 0 0 0.2 0" type="matrix" in="shadowBlurOuter1"></feColorMatrix>
        </filter>
    </defs>
    <g id="adjustment" stroke="none" stroke-width="1" fill="none" fill-rule="evenodd">
        <g id="形状">
            <use fill="black" fill-opacity="1" filter="url(#filter-2)" xlink:href="#path-1"></use>
            <use fill="#FFFFFF" fill-rule="evenodd" xlink:href="#path-1"></use>
        </g>
    </g>
</svg>