<svg viewBox="0 0 24 24" xmlns="http://www.w3.org/2000/svg" xmlns:xlink="http://www.w3.org/1999/xlink" width="24"
	 height="24" fill="none">
<rect id="背景虚化" width="24" height="24" x="0" y="0"/>
<path id="合并"
	  d="M9.18 1.64001C9.3 1.52002 9.44666 1.45996 9.62 1.45996C9.8 1.45996 9.95 1.52002 10.07 1.64001C10.19 1.76001 10.25 1.90991 10.25 2.08997C10.25 2.25 10.19 2.39331 10.07 2.52002C9.95 2.64661 9.8 2.70996 9.62 2.70996C9.44666 2.70996 9.3 2.6499 9.18 2.52991C9.06 2.40991 9 2.26331 9 2.08997C9 1.90991 9.06 1.76001 9.18 1.64001ZM13.93 1.64001C14.05 1.52002 14.2 1.45996 14.38 1.45996C14.5533 1.45996 14.7 1.52002 14.82 1.64001C14.94 1.76001 15 1.90991 15 2.08997C15 2.25 14.94 2.39331 14.82 2.52002C14.7 2.64661 14.5533 2.70996 14.38 2.70996C14.2 2.70996 14.05 2.6499 13.93 2.52991C13.81 2.40991 13.75 2.26331 13.75 2.08997C13.75 1.90991 13.81 1.76001 13.93 1.64001ZM5.64 2.35999C5.56 2.43335 5.47333 2.46997 5.38 2.46997C5.26666 2.46997 5.17333 2.43335 5.1 2.35999C5.02666 2.29333 4.99 2.20325 4.99 2.08997C4.99 1.98999 5.02666 1.90662 5.1 1.83997C5.17333 1.7666 5.26666 1.72998 5.38 1.72998C5.47333 1.72998 5.56 1.7666 5.64 1.83997C5.72 1.90662 5.75999 1.98999 5.75999 2.08997C5.75999 2.20325 5.72 2.29333 5.64 2.35999ZM18.91 2.35999C18.83 2.43335 18.7433 2.46997 18.65 2.46997C18.5367 2.46997 18.4433 2.43335 18.37 2.35999C18.2967 2.29333 18.26 2.20325 18.26 2.08997C18.26 1.98999 18.2967 1.90662 18.37 1.83997C18.4433 1.7666 18.5367 1.72998 18.65 1.72998C18.7433 1.72998 18.83 1.7666 18.91 1.83997C18.99 1.90662 19.03 1.98999 19.03 2.08997C19.03 2.20325 18.99 2.29333 18.91 2.35999ZM10.25 5.95996C10.07 6.1333 9.86 6.21997 9.62 6.21997C9.36666 6.21997 9.15667 6.1333 8.99 5.95996C8.82333 5.79333 8.74 5.58997 8.74 5.34998C8.74 5.09668 8.82333 4.8866 8.99 4.71997C9.15667 4.54663 9.36666 4.45996 9.62 4.45996C9.86 4.45996 10.07 4.54663 10.25 4.71997C10.4233 4.8866 10.51 5.09668 10.51 5.34998C10.51 5.58997 10.4233 5.79333 10.25 5.95996ZM14.99 5.95996C14.8233 6.1333 14.62 6.21997 14.38 6.21997C14.12 6.21997 13.9067 6.1333 13.74 5.95996C13.5733 5.79333 13.49 5.58997 13.49 5.34998C13.49 5.09668 13.5733 4.8866 13.74 4.71997C13.9067 4.54663 14.12 4.45996 14.38 4.45996C14.62 4.45996 14.8233 4.54663 14.99 4.71997C15.1567 4.8866 15.24 5.09668 15.24 5.34998C15.24 5.58997 15.1567 5.79333 14.99 5.95996ZM19.09 5.77991C18.97 5.91333 18.8233 5.97998 18.65 5.97998C18.47 5.97998 18.3167 5.91992 18.19 5.79993C18.0633 5.67993 18 5.52991 18 5.34998C18 5.17664 18.0633 5.02661 18.19 4.8999C18.3167 4.7666 18.47 4.69995 18.65 4.69995C18.8233 4.69995 18.97 4.7666 19.09 4.8999C19.21 5.02661 19.27 5.17664 19.27 5.34998C19.27 5.51001 19.21 5.65332 19.09 5.77991ZM5.61521 5.95447Q5.50718 6 5.38 6C5.2 6 5.05 5.93665 4.93 5.80994C4.81 5.68335 4.75 5.52991 4.75 5.34998C4.75 5.17664 4.81333 5.02991 4.93999 4.90991C5.07333 4.78992 5.22 4.72998 5.38 4.72998C5.55333 4.72998 5.7 4.78992 5.82 4.90991C5.93999 5.02991 6 5.17664 6 5.34998C6 5.52991 5.93999 5.68335 5.82 5.80994Q5.72804 5.90698 5.61521 5.95447ZM1.86 5.07996C1.93333 5.00659 2.01666 4.96997 2.11 4.96997C2.22333 4.96997 2.31667 5.00659 2.39 5.07996C2.46333 5.14661 2.5 5.23657 2.5 5.34998C2.5 5.44995 2.46333 5.53992 2.39 5.62C2.31667 5.69995 2.22333 5.73999 2.11 5.73999C2.01666 5.73999 1.93333 5.69995 1.86 5.62C1.78667 5.53992 1.75 5.44995 1.75 5.34998C1.75 5.23657 1.78667 5.14661 1.86 5.07996ZM22.15 5.59998C22.07 5.67334 21.9833 5.70996 21.89 5.70996C21.7767 5.70996 21.6833 5.67334 21.61 5.59998C21.5367 5.53333 21.5 5.44995 21.5 5.34998C21.5 5.23657 21.5367 5.14661 21.61 5.07996C21.6833 5.00659 21.7767 4.96997 21.89 4.96997C21.9833 4.96997 22.07 5.00659 22.15 5.07996C22.23 5.14661 22.27 5.23657 22.27 5.34998C22.27 5.44995 22.23 5.53333 22.15 5.59998ZM12.1 14.1599C12.7667 14.1599 13.39 13.9933 13.97 13.6599C14.5433 13.3199 15 12.8666 15.34 12.2999C15.6733 11.7333 15.84 11.1133 15.84 10.4399C15.84 9.7666 15.6733 9.14661 15.34 8.57996C15 8.01331 14.5433 7.55994 13.97 7.21997C13.39 6.8866 12.7667 6.71997 12.1 6.71997C11.4267 6.71997 10.8067 6.8866 10.24 7.21997C9.66667 7.55994 9.21334 8.01331 8.88 8.57996C8.54667 9.14661 8.38 9.7666 8.38 10.4399C8.38 11.1133 8.54667 11.7333 8.88 12.2999C9.21334 12.8666 9.66667 13.3199 10.24 13.6599C10.8067 13.9933 11.4267 14.1599 12.1 14.1599ZM12.1 8.20996C12.7067 8.20996 13.23 8.42993 13.67 8.87C14.11 9.30994 14.33 9.83325 14.33 10.4399C14.33 11.0466 14.11 11.5699 13.67 12.01C13.23 12.45 12.7067 12.6699 12.1 12.6699C11.4867 12.6699 10.96 12.45 10.52 12.01C10.08 11.5699 9.86 11.0466 9.86 10.4399C9.86 9.83325 10.08 9.30994 10.52 8.87C10.96 8.42993 11.4867 8.20996 12.1 8.20996ZM6 9.94995C5.84 10.1166 5.63333 10.2 5.38 10.2C5.14 10.2 4.93333 10.1166 4.75999 9.94995C4.59333 9.78333 4.50999 9.57996 4.50999 9.33997C4.50999 9.07996 4.59333 8.86658 4.75999 8.69995C4.93333 8.53333 5.14 8.44995 5.38 8.44995C5.63333 8.44995 5.84 8.53333 6 8.69995C6.16 8.86658 6.24 9.07996 6.24 9.33997C6.24 9.57996 6.16 9.78333 6 9.94995ZM17.96 8.69995C18.1333 8.53333 18.3467 8.44995 18.6 8.44995C18.84 8.44995 19.0433 8.53333 19.21 8.69995C19.3767 8.86658 19.46 9.07996 19.46 9.33997C19.46 9.57996 19.3767 9.78333 19.21 9.94995C19.0433 10.1166 18.84 10.2 18.6 10.2C18.3467 10.2 18.1333 10.1166 17.96 9.94995C17.7933 9.78333 17.71 9.57996 17.71 9.33997C17.71 9.07996 17.7933 8.86658 17.96 8.69995ZM22.33 9.78992C22.21 9.91663 22.0633 9.97998 21.89 9.97998C21.71 9.97998 21.5567 9.91992 21.43 9.79993C21.3033 9.67993 21.24 9.53333 21.24 9.35999C21.24 9.18665 21.3033 9.03333 21.43 8.8999C21.5567 8.77332 21.71 8.70996 21.89 8.70996C22.0633 8.70996 22.21 8.77332 22.33 8.8999C22.45 9.03333 22.51 9.18665 22.51 9.35999C22.51 9.52002 22.45 9.66333 22.33 9.78992ZM1.67 8.91992C1.79 8.79993 1.93666 8.73999 2.11 8.73999C2.29 8.73999 2.44333 8.79993 2.57 8.91992C2.69666 9.03992 2.75999 9.18665 2.75999 9.35999C2.75999 9.53333 2.69666 9.67993 2.57 9.79993C2.44333 9.91992 2.29 9.97998 2.11 9.97998Q2.03542 9.97998 1.96567 9.96167Q1.81095 9.9209 1.68 9.78992C1.55333 9.66333 1.49 9.52002 1.49 9.35999C1.49 9.18665 1.55 9.03992 1.67 8.91992ZM4.75999 13.24C4.93333 13.0667 5.14 12.98 5.38 12.98C5.62 12.98 5.82667 13.0667 6 13.24C6.17333 13.4066 6.26 13.61 6.26 13.85C6.26 14.1033 6.17333 14.3132 6 14.48C5.82667 14.6533 5.62 14.74 5.38 14.74C5.14 14.74 4.93333 14.6533 4.75999 14.48C4.59333 14.3132 4.50999 14.1033 4.50999 13.85C4.50999 13.61 4.59333 13.4066 4.75999 13.24ZM18.2145 13.0604Q18.3887 12.98 18.6 12.98C18.84 12.98 19.0433 13.0667 19.21 13.24C19.3767 13.4066 19.46 13.61 19.46 13.85C19.46 14.1033 19.3767 14.3132 19.21 14.48C19.0433 14.6533 18.84 14.74 18.6 14.74Q18.3887 14.74 18.2145 14.6595Q18.0754 14.5955 17.96 14.48C17.7933 14.3132 17.71 14.1033 17.71 13.85C17.71 13.61 17.7933 13.4066 17.96 13.24Q18.0754 13.1245 18.2145 13.0604ZM1.68 13.3999C1.80666 13.2799 1.95 13.22 2.11 13.22C2.29 13.22 2.44333 13.2799 2.57 13.3999C2.69666 13.52 2.75999 13.6699 2.75999 13.85C2.75999 14.0233 2.69666 14.1733 2.57 14.2999C2.44333 14.4333 2.29 14.5 2.11 14.5C1.93666 14.5 1.79 14.4333 1.67 14.2999C1.55 14.1733 1.49 14.0233 1.49 13.85C1.49 13.6699 1.55333 13.52 1.68 13.3999ZM21.43 13.3999C21.5567 13.2799 21.71 13.22 21.89 13.22C22.0633 13.22 22.21 13.2799 22.33 13.3999C22.45 13.52 22.51 13.6699 22.51 13.85C22.51 14.0233 22.45 14.1699 22.33 14.2899C22.21 14.4099 22.0633 14.47 21.89 14.47C21.71 14.47 21.5567 14.4099 21.43 14.2899C21.3033 14.1699 21.24 14.0233 21.24 13.85C21.24 13.6699 21.3033 13.52 21.43 13.3999ZM10.97 14.71C9.89667 14.71 8.90334 14.98 7.99001 15.52C7.07667 16.0533 6.35334 16.78 5.82001 17.7C5.28667 18.62 5.02 19.6167 5.02 20.6899C5.02 21.2032 5.2 21.64 5.56001 22C5.92001 22.36 6.35334 22.5399 6.86 22.5399L17.35 22.5399C17.8633 22.5399 18.3 22.36 18.66 22C19.02 21.64 19.2 21.2032 19.2 20.6899C19.2 19.6167 18.9333 18.62 18.4 17.7C17.86 16.78 17.1333 16.0533 16.22 15.52C15.3133 14.98 14.3233 14.71 13.25 14.71L10.97 14.71ZM6.86 21.0499C6.75334 21.0499 6.66667 21.0133 6.60001 20.9399C6.53334 20.8667 6.5 20.7833 6.5 20.6899C6.5 19.87 6.7 19.1166 7.10001 18.4299C7.5 17.7433 8.04667 17.2 8.74001 16.7999C9.42667 16.4 10.17 16.2 10.97 16.2L13.22 16.2C14.04 16.2 14.7933 16.4 15.48 16.7999C16.1667 17.2 16.71 17.7433 17.11 18.4299C17.51 19.1166 17.71 19.87 17.71 20.6899C17.71 20.7833 17.68 20.8667 17.62 20.9399C17.5533 21.0133 17.4633 21.0499 17.35 21.0499L6.86 21.0499ZM1.86 17.58C1.93333 17.5066 2.01666 17.47 2.11 17.47C2.22333 17.47 2.31667 17.5066 2.39 17.58C2.46333 17.6533 2.5 17.7466 2.5 17.86C2.5 17.9532 2.46333 18.0366 2.39 18.11C2.31667 18.1833 2.22333 18.22 2.11 18.22C2.01666 18.22 1.93333 18.1833 1.86 18.11C1.78667 18.0366 1.75 17.9532 1.75 17.86C1.75 17.7466 1.78667 17.6533 1.86 17.58ZM21.61 17.58C21.6833 17.5066 21.7767 17.47 21.89 17.47C21.9833 17.47 22.07 17.5066 22.15 17.58C22.23 17.6533 22.27 17.7466 22.27 17.86C22.27 17.9532 22.23 18.0399 22.15 18.12C22.07 18.2 21.9833 18.24 21.89 18.24C21.7767 18.24 21.6833 18.2 21.61 18.12Q21.5244 18.0265 21.5054 17.921Q21.5 17.891 21.5 17.86C21.5 17.7466 21.5367 17.6533 21.61 17.58Z"
	  fill="rgb(0,0,0)" fill-opacity="0.898039222" fill-rule="evenodd"/>
</svg>
