<svg width="24.000000" height="24.000000" viewBox="0 0 24 24" fill="none" xmlns="http://www.w3.org/2000/svg"
     xmlns:xlink="http://www.w3.org/1999/xlink">
    <desc>
        Created with Pixso.
    </desc>
    <defs>
        <clipPath id="clip668_46672">
            <rect id="beauty" width="24.000000" height="24.000000" fill="white" fill-opacity="0"/>
        </clipPath>
    </defs>
    <g clip-path="url(#clip668_46672)">
        <path id="path"
              d="M19.58 4.05C18.49 3.06 17.3 2.29 16.03 1.76C14.75 1.22 13.4 0.95 12 0.95C10.01 0.95 8.17 1.45 6.47 2.44C4.78 3.44 3.44 4.78 2.45 6.46C1.45 8.15 0.95 10 0.95 12C0.95 14 1.45 15.84 2.45 17.52C3.44 19.21 4.78 20.55 6.47 21.54C8.17 22.54 10.01 23.03 12 23.03C13.29 23.03 14.54 22.82 15.74 22.39C15.79 22.37 15.83 22.35 15.86 22.31C16.01 22.22 16.13 22.09 16.2 21.91C16.26 21.75 16.26 21.57 16.2 21.38C16.13 21.19 16.01 21.05 15.83 20.96C15.66 20.87 15.49 20.85 15.3 20.89C14.25 21.27 13.1 21.5 12 21.5C10.71 21.5 9.5 21.26 8.33 20.77C7.17 20.29 6.16 19.62 5.28 18.77C4.4 17.9 3.73 16.9 3.29 15.78C3 15.1 2.98 14.43 3.24 13.77C3.49 13.12 4.21 12.37 5.41 11.53C6.09 11.05 6.8 10.72 7.57 10.53C8.33 10.34 9.28 10.17 10.41 10.02C11.24 9.91 11.9 9.81 12.37 9.71C14.12 9.36 15.55 8.87 16.67 8.22C17.79 7.58 18.63 6.79 19.2 5.85C19.93 6.67 20.5 7.6 20.9 8.65C21.29 9.71 21.5 10.83 21.5 12C21.5 13.12 21.3 14.2 20.92 15.24C20.84 15.43 20.85 15.62 20.94 15.81C21.02 16 21.17 16.13 21.37 16.2C21.6 16.27 21.81 16.27 22 16.18C22.17 16.1 22.3 15.95 22.38 15.74C22.82 14.53 23.04 13.29 23.04 12C23.04 10.48 22.73 9.03 22.12 7.66C21.52 6.3 20.67 5.09 19.58 4.05ZM12.09 8.2C11.39 8.37 10.57 8.5 9.65 8.62C8.45 8.79 7.48 8.97 6.75 9.17C6.02 9.38 5.28 9.74 4.54 10.27C4.07 10.59 3.67 10.94 3.33 11.34C3 11.73 2.71 12.14 2.5 12.58C2.43 10.62 2.83 8.88 3.7 7.33C4.58 5.8 5.76 4.61 7.25 3.77C8.73 2.92 10.32 2.5 12 2.5C13.15 2.5 14.25 2.69 15.29 3.07C16.33 3.47 17.25 4.02 18.07 4.72C17.81 5.28 17.42 5.79 16.9 6.23C16.36 6.68 15.7 7.07 14.9 7.39C14.09 7.73 13.16 8 12.09 8.2ZM7.75 11.89C7.49 11.89 7.27 11.99 7.08 12.18C6.88 12.38 6.79 12.6 6.79 12.86C6.79 13.12 6.88 13.34 7.08 13.53C7.27 13.72 7.49 13.81 7.75 13.81C8.02 13.81 8.25 13.72 8.44 13.53C8.62 13.34 8.7 13.12 8.7 12.86C8.7 12.6 8.61 12.38 8.41 12.18C8.23 11.99 8 11.89 7.75 11.89ZM17.54 12.86C17.54 12.6 17.45 12.38 17.26 12.18C17.08 11.99 16.86 11.89 16.61 11.89C16.34 11.89 16.12 11.99 15.95 12.18C15.76 12.38 15.66 12.6 15.66 12.86C15.66 13.13 15.76 13.36 15.95 13.54C16.12 13.73 16.34 13.81 16.61 13.81C16.86 13.81 17.08 13.72 17.26 13.53C17.45 13.34 17.54 13.12 17.54 12.86ZM8.7 17.92C9.01 18.12 9.45 18.32 10.03 18.52C10.61 18.73 11.28 18.84 12.04 18.84C13.16 18.84 14.25 18.53 15.3 17.92C15.49 17.85 15.6 17.71 15.65 17.52C15.69 17.35 15.67 17.16 15.59 16.96C15.5 16.77 15.36 16.64 15.16 16.58C14.96 16.52 14.76 16.53 14.58 16.62C13.8 17.07 13.04 17.3 12.29 17.33C11.55 17.34 10.94 17.26 10.47 17.1C10 16.93 9.67 16.78 9.47 16.65C9.28 16.54 9.09 16.51 8.91 16.54C8.73 16.59 8.57 16.69 8.45 16.87C8.33 17.06 8.29 17.25 8.33 17.45C8.37 17.64 8.53 17.82 8.7 17.92ZM19.41 17.11C19.29 17.66 19 18.12 18.62 18.5C18.24 18.88 17.77 19.13 17.22 19.25C17.75 19.36 18.21 19.63 18.61 20.02C19 20.39 19.26 20.86 19.38 21.4C19.51 20.86 19.79 20.39 20.16 20.02C20.54 19.63 21.01 19.38 21.58 19.27C21.01 19.15 20.54 18.88 20.16 18.5C19.79 18.12 19.54 17.65 19.41 17.11Z"
              fill="#FFFFFF" fill-opacity="0.901961" fill-rule="nonzero"/>
    </g>
</svg>