<svg width="24.000000" height="24.000000" viewBox="0 0 24 24" fill="none" xmlns="http://www.w3.org/2000/svg" xmlns:xlink="http://www.w3.org/1999/xlink">
	<desc>
		Created with Pixso.
	</desc>
	<defs>
		<clipPath id="clip668_46676">
			<rect id="virtual_background" width="24.000000" height="24.000000" fill="white" fill-opacity="0"/>
		</clipPath>
	</defs>
	<g clip-path="url(#clip668_46676)">
		<path id="合并" d="M9.18066 1.64001C9.2998 1.52002 9.44727 1.45996 9.62012 1.45996C9.7998 1.45996 9.9502 1.52002 10.0703 1.64001C10.1904 1.76001 10.25 1.90991 10.25 2.08997Q10.25 2.17249 10.2285 2.24915Q10.1885 2.39526 10.0703 2.52002C9.9502 2.64661 9.7998 2.70996 9.62012 2.70996C9.44727 2.70996 9.2998 2.6499 9.18066 2.52991C9.06055 2.40991 9 2.26331 9 2.08997Q9 1.92798 9.06543 1.79834Q9.1084 1.71191 9.18066 1.64001ZM13.9307 1.64001C14.0498 1.52002 14.2002 1.45996 14.3799 1.45996C14.5537 1.45996 14.7002 1.52002 14.8203 1.64001C14.9404 1.76001 15 1.90991 15 2.08997Q15 2.17249 14.9785 2.24915Q14.9385 2.39526 14.8203 2.52002C14.7002 2.64661 14.5537 2.70996 14.3799 2.70996C14.2002 2.70996 14.0498 2.6499 13.9307 2.52991C13.8105 2.40991 13.75 2.26331 13.75 2.08997Q13.75 1.92798 13.8154 1.79834Q13.8584 1.71191 13.9307 1.64001ZM5.64062 2.35999C5.56055 2.43335 5.47363 2.46997 5.37988 2.46997C5.2666 2.46997 5.17383 2.43335 5.10059 2.35999C5.02734 2.29333 4.99023 2.20325 4.99023 2.08997Q4.99023 2.01294 5.01953 1.9491Q5.04688 1.88855 5.10059 1.83997C5.17383 1.7666 5.2666 1.72998 5.37988 1.72998Q5.41113 1.72998 5.44238 1.73547Q5.54688 1.75464 5.64062 1.83997C5.7207 1.90662 5.75977 1.98999 5.75977 2.08997Q5.75977 2.19482 5.71484 2.27295Q5.68652 2.32166 5.64062 2.35999ZM18.9102 2.35999C18.8301 2.43335 18.7432 2.46997 18.6504 2.46997C18.5371 2.46997 18.4434 2.43335 18.3701 2.35999Q18.3369 2.32996 18.3145 2.2937Q18.2598 2.20898 18.2598 2.08997Q18.2598 2.01294 18.2891 1.9491Q18.3164 1.88855 18.3701 1.83997C18.4434 1.7666 18.5371 1.72998 18.6504 1.72998C18.7432 1.72998 18.8301 1.7666 18.9102 1.83997C18.9902 1.90662 19.0303 1.98999 19.0303 2.08997Q19.0303 2.19482 18.9844 2.27295Q18.9561 2.32166 18.9102 2.35999ZM9.91211 6.17236Q9.77441 6.21997 9.62012 6.21997C9.36719 6.21997 9.15723 6.1333 8.99023 5.95996C8.82324 5.79333 8.74023 5.58997 8.74023 5.34998Q8.74023 5.11353 8.83691 4.92749Q8.89551 4.81445 8.99023 4.71997C9.15723 4.54663 9.36719 4.45996 9.62012 4.45996Q9.77441 4.45996 9.91211 4.50757Q10.0957 4.57129 10.25 4.71997C10.4238 4.8866 10.5098 5.09668 10.5098 5.34998Q10.5098 5.52881 10.4463 5.68054Q10.3809 5.83423 10.25 5.95996Q10.0957 6.10864 9.91211 6.17236ZM14.9902 5.95996C14.8232 6.1333 14.6201 6.21997 14.3799 6.21997C14.1201 6.21997 13.9072 6.1333 13.7402 5.95996C13.5732 5.79333 13.4902 5.58997 13.4902 5.34998C13.4902 5.09668 13.5732 4.8866 13.7402 4.71997C13.9072 4.54663 14.1201 4.45996 14.3799 4.45996C14.6201 4.45996 14.8232 4.54663 14.9902 4.71997C15.1572 4.8866 15.2402 5.09668 15.2402 5.34998Q15.2402 5.54102 15.1699 5.70117Q15.1074 5.84265 14.9902 5.95996ZM19.0898 5.77991C18.9707 5.91333 18.8232 5.97998 18.6504 5.97998C18.4707 5.97998 18.3174 5.91992 18.1904 5.79993Q18.1045 5.71887 18.0576 5.61963Q18 5.49841 18 5.34998Q18 5.2345 18.0381 5.13293Q18.085 5.00562 18.1904 4.8999C18.3174 4.7666 18.4707 4.69995 18.6504 4.69995C18.8232 4.69995 18.9707 4.7666 19.0898 4.8999C19.21 5.02661 19.2705 5.17664 19.2705 5.34998C19.2705 5.51001 19.21 5.65332 19.0898 5.77991ZM5.82031 5.80994C5.7002 5.93665 5.55371 6 5.37988 6C5.2002 6 5.0498 5.93665 4.93066 5.80994C4.81055 5.68335 4.75 5.52991 4.75 5.34998Q4.75 5.22266 4.7959 5.11462Q4.84277 5.00183 4.94043 4.90991C5.07324 4.78992 5.2207 4.72998 5.37988 4.72998Q5.51953 4.72998 5.63574 4.78174Q5.73633 4.82642 5.82031 4.90991C5.94043 5.02991 6 5.17664 6 5.34998C6 5.52991 5.94043 5.68335 5.82031 5.80994ZM1.86035 5.07996C1.93359 5.00659 2.0166 4.96997 2.11035 4.96997Q2.2207 4.96997 2.30566 5.01636Q2.35156 5.04138 2.39062 5.07996C2.46387 5.14661 2.5 5.23657 2.5 5.34998Q2.5 5.40186 2.4873 5.4502Q2.46191 5.5415 2.39062 5.62C2.31738 5.69995 2.22363 5.73999 2.11035 5.73999Q2.07227 5.73999 2.03516 5.73096Q1.94043 5.70703 1.86035 5.62C1.78711 5.53992 1.75 5.44995 1.75 5.34998Q1.75 5.23096 1.80371 5.14624Q1.82715 5.10999 1.86035 5.07996ZM22.1504 5.59998C22.0703 5.67334 21.9834 5.70996 21.8906 5.70996C21.7773 5.70996 21.6836 5.67334 21.6104 5.59998C21.5371 5.53333 21.5 5.44995 21.5 5.34998Q21.5 5.23096 21.5537 5.14624Q21.5771 5.10999 21.6104 5.07996C21.6836 5.00659 21.7773 4.96997 21.8906 4.96997C21.9834 4.96997 22.0703 5.00659 22.1504 5.07996C22.2305 5.14661 22.2705 5.23657 22.2705 5.34998Q22.2705 5.4165 22.2471 5.47327Q22.2168 5.54431 22.1504 5.59998ZM13.043 14.0414Q13.5234 13.9165 13.9697 13.66Q14.4307 13.3867 14.791 13.0157Q15.1025 12.6945 15.3398 12.3Q15.5469 11.9484 15.668 11.5695Q15.8398 11.0322 15.8398 10.4399Q15.8398 9.84778 15.668 9.31055Q15.5469 8.93164 15.3398 8.57996Q15.1025 8.18555 14.791 7.86426Q14.4307 7.49329 13.9697 7.21997Q13.5234 6.9635 13.043 6.83862Q12.5869 6.71997 12.0996 6.71997Q11.5078 6.71997 10.9697 6.89185Q10.5908 7.01318 10.2393 7.21997Q9.76172 7.5033 9.39551 7.89148L9.39551 7.89148Q9.10156 8.20215 8.87988 8.57996Q8.67285 8.93164 8.55176 9.31055L8.55176 9.31055L8.55176 9.31055Q8.37988 9.84778 8.37988 10.4399Q8.37988 11.0322 8.55176 11.5695Q8.67285 11.9484 8.87988 12.3Q9.10156 12.6779 9.39551 12.9885Q9.76172 13.3767 10.2393 13.66Q10.5908 13.8668 10.9697 13.988L10.9707 13.988Q11.5078 14.16 12.0996 14.16Q12.5869 14.16 13.043 14.0414ZM12.0996 8.20996C12.7061 8.20996 13.2295 8.42993 13.6699 8.87Q14.0283 9.22852 14.1924 9.66089Q14.3301 10.0244 14.3301 10.4399Q14.3301 10.8556 14.1924 11.2191Q14.0283 11.6515 13.6699 12.01C13.2295 12.45 12.7061 12.67 12.0996 12.67Q11.6621 12.67 11.2842 12.5209Q10.8662 12.3562 10.5195 12.01Q10.1611 11.6515 9.99707 11.2191Q9.85938 10.8556 9.85938 10.4399Q9.85938 10.0244 9.99707 9.66089Q10.1611 9.22852 10.5195 8.87Q10.8662 8.52368 11.2842 8.35913Q11.6621 8.20996 12.0996 8.20996ZM6 9.94995C5.83984 10.1166 5.63379 10.2 5.37988 10.2C5.14062 10.2 4.93359 10.1166 4.75977 9.94995C4.59375 9.78333 4.50977 9.57996 4.50977 9.33997Q4.50977 9.08057 4.62109 8.88318Q4.67676 8.78369 4.75977 8.69995C4.93359 8.53333 5.14062 8.44995 5.37988 8.44995Q5.62695 8.44995 5.81348 8.55493Q5.91602 8.61194 6 8.69995C6.16016 8.86658 6.24023 9.07996 6.24023 9.33997C6.24023 9.57996 6.16016 9.78333 6 9.94995ZM17.96 8.69995C18.1338 8.53333 18.3467 8.44995 18.6006 8.44995Q18.791 8.44995 18.9512 8.52039Q19.0928 8.58264 19.21 8.69995C19.377 8.86658 19.46 9.07996 19.46 9.33997C19.46 9.57996 19.377 9.78333 19.21 9.94995C19.0439 10.1166 18.8398 10.2 18.6006 10.2C18.3467 10.2 18.1338 10.1166 17.96 9.94995C17.7939 9.78333 17.71 9.57996 17.71 9.33997Q17.71 9.08057 17.8213 8.88318Q17.877 8.78369 17.96 8.69995ZM22.3301 9.78992C22.21 9.91663 22.0635 9.97998 21.8906 9.97998C21.71 9.97998 21.5566 9.91992 21.4307 9.79993C21.3037 9.67993 21.2402 9.53333 21.2402 9.35999C21.2402 9.18665 21.3037 9.03333 21.4307 8.8999C21.5566 8.77332 21.71 8.70996 21.8906 8.70996C22.0635 8.70996 22.21 8.77332 22.3301 8.8999C22.4502 9.03333 22.5098 9.18665 22.5098 9.35999Q22.5098 9.4425 22.4893 9.51904Q22.4482 9.66528 22.3301 9.78992ZM1.66992 8.91992C1.79004 8.79993 1.93652 8.73999 2.11035 8.73999Q2.26074 8.73999 2.38574 8.79578Q2.48633 8.84021 2.57031 8.91992Q2.66699 9.01184 2.71484 9.12463Q2.75977 9.23267 2.75977 9.35999C2.75977 9.53333 2.69727 9.67993 2.57031 9.79993C2.44336 9.91992 2.29004 9.97998 2.11035 9.97998Q2.03516 9.97998 1.96582 9.96155Q1.81152 9.9209 1.68066 9.78992Q1.54883 9.65906 1.50879 9.50439Q1.49023 9.43457 1.49023 9.35999Q1.49023 9.22058 1.54199 9.10425Q1.58691 9.00342 1.66992 8.91992ZM4.75977 13.24C4.93359 13.0667 5.14062 12.98 5.37988 12.98Q5.54688 12.98 5.69238 13.0359Q5.86133 13.1006 6 13.24C6.17383 13.4066 6.25977 13.61 6.25977 13.85C6.25977 14.1033 6.17383 14.3134 6 14.48C5.82715 14.6533 5.62012 14.74 5.37988 14.74C5.14062 14.74 4.93359 14.6533 4.75977 14.48C4.59375 14.3134 4.50977 14.1033 4.50977 13.85C4.50977 13.61 4.59375 13.4066 4.75977 13.24ZM17.96 13.24C18.1338 13.0667 18.3467 12.98 18.6006 12.98Q18.7793 12.98 18.9307 13.0442Q19.084 13.1091 19.21 13.24C19.377 13.4066 19.46 13.61 19.46 13.85C19.46 14.1033 19.377 14.3134 19.21 14.48C19.0439 14.6533 18.8398 14.74 18.6006 14.74C18.3467 14.74 18.1338 14.6533 17.96 14.48C17.7939 14.3134 17.71 14.1033 17.71 13.85C17.71 13.61 17.7939 13.4066 17.96 13.24ZM1.68066 13.3999C1.80664 13.2799 1.9502 13.22 2.11035 13.22C2.29004 13.22 2.44336 13.2799 2.57031 13.3999C2.69727 13.52 2.75977 13.6699 2.75977 13.85C2.75977 14.0233 2.69727 14.1733 2.57031 14.2999Q2.46875 14.4069 2.34473 14.4567Q2.23633 14.5 2.11035 14.5Q1.99414 14.5 1.89355 14.4597Q1.76953 14.4103 1.66992 14.2999C1.5498 14.1733 1.49023 14.0233 1.49023 13.85C1.49023 13.6699 1.55371 13.52 1.68066 13.3999ZM21.4307 13.3999C21.5566 13.2799 21.71 13.22 21.8906 13.22C22.0635 13.22 22.21 13.2799 22.3301 13.3999C22.4502 13.52 22.5098 13.6699 22.5098 13.85Q22.5098 13.9894 22.459 14.1057Q22.4141 14.2064 22.3301 14.2899C22.21 14.4099 22.0635 14.47 21.8906 14.47C21.71 14.47 21.5566 14.4099 21.4307 14.2899Q21.333 14.198 21.2861 14.0853Q21.2402 13.9772 21.2402 13.85C21.2402 13.6699 21.3037 13.52 21.4307 13.3999ZM9.29688 14.9474Q8.61816 15.1486 7.98926 15.52Q7.33301 15.9033 6.80762 16.4199Q6.23633 16.9813 5.81934 17.7Q5.44727 18.3425 5.24805 19.0348Q5.01953 19.8296 5.01953 20.6899C5.01953 21.2034 5.19922 21.64 5.55957 22Q5.83398 22.2744 6.16504 22.4094Q6.48633 22.54 6.85938 22.54L17.3496 22.54C17.8633 22.54 18.2998 22.36 18.6592 22C19.0195 21.64 19.1992 21.2034 19.1992 20.6899Q19.1992 19.8296 18.9707 19.0348Q18.7725 18.3425 18.3994 17.7Q17.9678 16.9637 17.376 16.3926L17.376 16.3925Q16.8584 15.8932 16.2197 15.52Q15.6211 15.1637 14.9746 14.9641Q14.1514 14.71 13.25 14.71L10.9697 14.71Q10.0977 14.71 9.29688 14.9474ZM6.85938 21.0499C6.75293 21.0499 6.66602 21.0133 6.59961 20.9399C6.5332 20.8667 6.5 20.7833 6.5 20.6899Q6.5 19.9335 6.72656 19.2527Q6.86816 18.8265 7.09961 18.4299Q7.38281 17.9431 7.76465 17.5524L7.76465 17.5524Q8.19141 17.1165 8.73926 16.8Q9.22949 16.5148 9.75781 16.3651Q10.3398 16.2 10.9697 16.2L13.2197 16.2Q13.9756 16.2 14.6572 16.4269Q15.083 16.569 15.4795 16.8Q15.9941 17.1 16.4023 17.5074Q16.8096 17.915 17.1094 18.4299C17.5098 19.1167 17.71 19.87 17.71 20.6899C17.71 20.7833 17.6797 20.8667 17.6191 20.9399C17.5527 21.0133 17.4629 21.0499 17.3496 21.0499L6.85938 21.0499ZM2.02246 17.4814Q2.06543 17.47 2.11035 17.47Q2.2207 17.47 2.30566 17.5164Q2.35156 17.5414 2.39062 17.58Q2.42871 17.6185 2.4541 17.6644Q2.5 17.7495 2.5 17.86C2.5 17.9532 2.46387 18.0366 2.39062 18.11C2.31738 18.1833 2.22363 18.22 2.11035 18.22Q2.06543 18.22 2.02246 18.2085Q1.93457 18.1844 1.86035 18.11C1.78711 18.0366 1.75 17.9532 1.75 17.86Q1.75 17.7495 1.79688 17.6644Q1.82129 17.6185 1.86035 17.58Q1.93457 17.5055 2.02246 17.4814ZM21.6104 17.58C21.6836 17.5066 21.7773 17.47 21.8906 17.47C21.9834 17.47 22.0703 17.5066 22.1504 17.58C22.2305 17.6533 22.2705 17.7466 22.2705 17.86Q22.2705 17.8865 22.2656 17.9122Q22.2471 18.0227 22.1504 18.12C22.0703 18.2 21.9834 18.24 21.8906 18.24C21.7773 18.24 21.6836 18.2 21.6104 18.12Q21.5244 18.0269 21.5059 17.9216Q21.5 17.8914 21.5 17.86Q21.5 17.7495 21.5469 17.6644Q21.5713 17.6185 21.6104 17.58Z" clip-rule="evenodd" fill="#FFFFFF" fill-opacity="0.901961" fill-rule="evenodd"/>
	</g>
</svg>